<svg width="160" height="64" viewBox="0 0 160 64" fill="none" xmlns="http://www.w3.org/2000/svg">
<path d="M22.1384 1.31202C22.6502 1.8243 22.8262 2.46465 22.8262 3.18503C22.8102 6.91505 22.8102 10.6611 22.7942 14.3911C22.7942 17.0965 22.7622 19.786 22.7622 22.4915C22.7622 24.2844 22.4263 24.6686 20.6188 24.6846C16.8597 24.6846 13.0847 24.6846 9.32563 24.6526C8.01396 24.6526 7.45411 23.9963 7.4701 22.4754C7.4701 22.0912 7.58207 21.723 7.53409 21.3388C7.42212 20.2342 6.91024 19.722 5.75854 19.6419C4.49486 19.5619 3.23118 19.4658 1.9675 19.5138C0.623842 19.5779 0 18.8575 0 17.5288C0 14.3591 0.0959756 11.2054 0.0799797 8.03565C0.0799797 6.29071 0.0159959 4.56178 0.111972 2.81684C0.175955 1.47211 0.495874 1.02387 1.75955 0.99185C4.59083 0.911807 7.42212 0.943824 10.2694 0.943824C13.6925 0.943824 17.1157 0.975842 20.5388 0.975842C21.0986 0.975842 21.6425 1.02387 22.1384 1.29601V1.31202Z" fill="black"/>
<path d="M22.1224 63.2971C21.8985 63.9214 21.3226 63.8414 20.8748 63.8414C17.7076 63.8414 14.5564 63.8414 11.3892 63.8094C10.7973 63.8094 10.2055 63.8094 9.61362 63.8094C7.99803 63.8094 7.37418 63.201 7.35819 61.5201C7.34219 58.9427 7.35819 56.3813 7.37418 53.804C7.37418 50.9544 7.37418 48.1049 7.40618 45.2553C7.42217 43.6385 7.96603 43.1582 9.54963 43.1742C13.2127 43.1902 16.8758 43.2062 20.5388 43.1742C22.0745 43.1742 22.6663 43.6705 22.6823 45.2713C22.6823 48.6652 22.6663 52.075 22.6503 55.4689C22.6503 57.3419 22.6503 59.2149 22.6183 61.0879C22.6183 61.8563 22.5863 62.6087 22.1224 63.2651V63.2971Z" fill="#8F1537"/>
<path d="M20.3628 37.0756C18.2354 40.4694 14.2524 40.9017 11.5011 38.9006C8.78177 36.9155 7.93398 33.5217 10.0614 30.448C12.1249 27.4704 15.724 26.8621 18.6513 28.9592C21.6105 31.0724 21.8504 34.3702 20.3628 37.0756Z" fill="#8F1537"/>
<path d="M31.544 11.6696C34.2154 7.89154 37.6225 5.00998 41.8774 3.10495C46.5962 0.975802 51.5709 0.239404 56.6736 0.0473007C59.8248 -0.0807684 62.976 0.0473007 66.0953 0.479534C70.3982 1.08786 74.5571 2.2725 78.3162 4.59375C82.1072 6.94703 85.0824 10.0687 87.2259 14.0068C89.5773 18.2972 90.793 22.8756 91.1929 27.7422C91.5928 32.7369 91.3528 37.6676 90.0732 42.5022C88.8095 47.2248 86.714 51.5471 83.2749 55.037C80.1557 58.2227 76.4446 60.4799 72.0937 61.7766C66.4152 63.4735 60.6726 63.8097 54.8181 63.4255C50.6592 63.1534 46.6282 62.449 42.7892 60.8641C37.4305 58.6389 33.2396 55.101 30.3763 49.9622C27.1611 44.2151 25.9295 38.0678 26.0254 31.5363C26.1054 26.2054 26.8092 21.0346 29.0487 16.136C29.7685 14.5671 30.5523 13.0623 31.544 11.6536V11.6696ZM57.2335 20.5224C57.2335 20.5224 57.2335 20.5224 57.2335 20.5384C56.8016 20.2342 56.4017 19.882 55.9378 19.6579C55.282 19.3217 54.6262 18.9855 53.7944 19.1936C51.9868 19.6419 51.411 20.8105 51.411 22.7155C51.411 26.1094 51.411 29.5192 51.411 32.913C51.411 35.8426 51.331 38.7562 51.427 41.6858C51.507 44.0551 53.9383 45.1757 55.9378 43.8629C56.7216 43.3507 57.4894 42.8384 58.2732 42.3421C62.4162 39.6527 66.5751 36.9792 70.7181 34.2738C72.9575 32.817 72.1897 30.3837 70.926 29.5352C66.3832 26.5096 61.8083 23.532 57.2495 20.5224H57.2335Z" fill="black"/>
<path d="M147.195 5.68208C151.114 8.45158 153.945 12.0855 155.88 16.4719C159.671 25.0205 159.719 33.8413 157.608 42.7421C156.648 46.8083 154.825 50.5223 152.153 53.772C149.338 57.2139 145.867 59.7433 141.724 61.3281C134.942 63.9375 127.887 64.2097 120.753 63.5533C116.434 63.1531 112.275 62.1766 108.388 60.2235C105.941 59.0069 103.766 57.374 101.846 55.4049C97.6392 51.0826 95.3837 45.8318 94.28 40.0046C93.4642 35.6983 93.4962 31.392 93.8641 27.0536C94.28 22.187 95.6077 17.6085 98.103 13.4463C100.934 8.70772 104.901 5.16981 110.116 3.04066C115.331 0.927517 120.737 0.239146 126.288 0.255155C129.503 0.255155 132.702 0.463267 135.837 1.0876C139.9 1.90404 143.787 3.24877 147.227 5.66608L147.195 5.68208ZM112.963 42.598C113.347 42.8061 113.683 43.1103 114.131 43.2544C114.579 43.3824 115.027 43.4785 115.491 43.5905C117.138 43.9748 118.21 43.4785 118.77 41.9577C119.314 40.4849 120.161 39.2682 121.297 38.1476C123.713 35.7463 127.056 35.138 129.839 36.0985C132.702 37.091 134.494 39.1241 135.566 41.8776C135.949 42.8381 136.493 43.6066 137.661 43.7346C140.78 44.0708 143.867 41.5895 144.363 38.2757C144.683 36.0985 144.651 33.9213 144.523 31.7281C144.299 27.758 141.612 24.9565 137.309 25.0045C130.399 25.0846 123.489 24.9885 116.578 24.9405C113.843 24.9245 111.348 26.6054 110.532 29.2148C109.54 32.3365 109.748 35.5382 110.26 38.7079C110.532 40.3888 111.46 41.7496 112.979 42.614L112.963 42.598Z" fill="black"/>
<path d="M115.571 35.1061C115.027 34.7059 115.283 34.1456 115.283 33.7134C115.283 33.089 115.043 32.9129 114.499 32.9449C114.259 32.9449 114.019 32.8969 113.779 32.9129C113.299 32.9449 113.059 32.6728 113.027 32.2566C112.995 31.7923 113.347 31.5842 113.763 31.5202C113.923 31.4882 114.099 31.5362 114.259 31.5522C115.139 31.6322 115.523 31.2961 115.283 30.3836C115.139 29.8072 115.379 29.407 115.954 29.359C116.53 29.311 116.818 29.7592 116.754 30.2395C116.626 31.216 116.946 31.6322 117.954 31.5522C118.45 31.5202 118.994 31.7443 118.914 32.3686C118.866 32.8649 118.466 33.073 117.906 32.977C116.946 32.8009 116.546 33.2171 116.69 34.2096C116.738 34.5458 116.738 34.946 116.306 35.1541C116.002 35.2982 115.778 35.1061 115.555 35.1061H115.571Z" fill="black"/>
<path d="M137.981 35.0904C137.757 34.7382 137.741 34.322 137.933 34.0178C138.221 33.5536 138.765 33.6176 139.149 33.8417C139.549 34.0979 139.389 34.6262 139.229 34.9143C138.957 35.4106 138.445 35.1545 137.997 35.0744L137.981 35.0904Z" fill="black"/>
<path d="M139.213 29.5355C139.517 29.8877 139.405 30.3039 139.213 30.6401C138.909 31.1363 138.413 30.7201 137.997 30.7842C137.949 30.432 137.725 30.1278 137.997 29.7276C138.349 29.2313 138.765 29.4234 139.229 29.5195L139.213 29.5355Z" fill="black"/>
<path d="M141.452 32.6892C141.052 33.3135 140.524 33.1054 140.188 32.8973C139.884 32.7212 139.9 32.2249 140.108 31.8887C140.396 31.4405 140.86 31.5205 141.228 31.6966C141.772 31.9368 141.276 32.433 141.436 32.6892H141.452Z" fill="black"/>
<path d="M137.133 32.7531C136.781 33.1853 136.206 33.1213 135.982 32.9772C135.614 32.7531 135.534 32.1768 135.854 31.7926C136.126 31.4564 136.573 31.4724 136.957 31.7286C137.405 32.0327 137.005 32.465 137.133 32.7691V32.7531Z" fill="black"/>
</svg>
