<svg width="353" height="491" viewBox="0 0 353 491" fill="none" xmlns="http://www.w3.org/2000/svg">
<g clip-path="url(#clip0_703_148)" filter="url(#filter0_i_703_148)">
<path d="M16.7023 65.5464L194.876 5.61969C204.105 2.51572 213.989 7.14805 216.953 15.9616L347.151 403.065C350.117 411.884 345.039 421.542 335.811 424.646L157.637 484.572C148.414 487.674 138.532 483.048 135.566 474.228L5.36853 87.1256C2.4042 78.312 7.47978 68.6482 16.7023 65.5464ZM184.444 40.2229L116.233 63.1648C113.349 64.1348 111.119 66.1252 109.835 68.5692C108.552 71.0132 108.223 73.8947 109.15 76.6508C111.004 82.163 117.181 85.0532 122.943 83.1153L191.154 60.1734C194.038 59.2035 196.268 57.213 197.552 54.7691C198.837 52.331 199.164 49.4435 198.237 46.6874C196.385 41.1812 190.205 38.285 184.444 40.2229ZM194.288 69.4908L59.2615 114.905C56.3837 115.873 54.1474 117.866 52.8638 120.31C51.5844 122.746 51.2514 125.635 52.1784 128.391C54.0303 133.897 60.2098 136.794 65.9716 134.856L200.998 89.4413C203.882 88.4713 206.112 86.4809 207.395 84.0369C208.679 81.5929 209.008 78.7114 208.081 75.9553C206.227 70.4431 200.049 67.5529 194.288 69.4908ZM204.464 97.1623L60.222 145.676C57.5551 146.573 55.5172 148.499 54.3762 150.895C53.2333 153.285 52.9934 156.143 53.9203 158.9C55.7743 164.412 61.5983 167.421 66.9321 165.627L211.175 117.113C213.841 116.216 215.879 114.29 217.02 111.894C218.163 109.504 218.403 106.646 217.476 103.89C215.622 98.3774 209.798 95.3683 204.464 97.1623ZM243.82 176.469C240.856 167.656 230.972 163.023 221.75 166.125L88.1191 211.07C78.8903 214.174 73.8209 223.836 76.7853 232.65L121.974 367.004C124.94 375.824 134.816 380.452 144.045 377.348L277.675 332.403C286.898 329.301 291.975 319.644 289.009 310.824L243.82 176.469ZM138.574 453.226C141.541 462.045 151.425 466.678 160.647 463.576L316.55 411.14C325.778 408.036 330.854 398.372 327.888 389.553L319.834 365.608C316.869 356.794 306.986 352.162 297.757 355.266L141.854 407.701C132.632 410.803 127.556 420.467 130.521 429.281L138.574 453.226Z" fill="#F3ECEF"/>
<path d="M271.457 371.514L281.207 368.235C290.431 365.132 300.313 369.763 303.278 378.579L306.858 389.224C309.823 398.039 304.749 407.701 295.524 410.803L285.774 414.082C276.55 417.185 266.669 412.554 263.704 403.738L260.123 393.093C257.158 384.278 262.233 374.617 271.457 371.514Z" fill="#F3ECEF"/>
<path d="M211.601 391.645L221.35 388.366C230.575 385.263 240.456 389.894 243.421 398.71L247.002 409.355C249.966 418.17 244.892 427.831 235.668 430.934L225.918 434.213C216.694 437.316 206.812 432.684 203.847 423.869L200.267 413.224C197.302 404.409 202.376 394.747 211.601 391.645Z" fill="#F3ECEF"/>
<path d="M151.744 411.778L161.494 408.498C170.718 405.396 180.6 410.027 183.565 418.842L187.145 429.487C190.11 438.303 185.036 447.964 175.811 451.067L166.062 454.346C156.837 457.448 146.956 452.817 143.991 444.002L140.41 433.357C137.446 424.542 142.52 414.88 151.744 411.778Z" fill="#F3ECEF"/>
</g>
<defs>
<filter id="filter0_i_703_148" x="0" y="0" width="357.52" height="494.189" filterUnits="userSpaceOnUse" color-interpolation-filters="sRGB">
<feFlood flood-opacity="0" result="BackgroundImageFix"/>
<feBlend mode="normal" in="SourceGraphic" in2="BackgroundImageFix" result="shape"/>
<feColorMatrix in="SourceAlpha" type="matrix" values="0 0 0 0 0 0 0 0 0 0 0 0 0 0 0 0 0 0 127 0" result="hardAlpha"/>
<feOffset dx="5" dy="4"/>
<feGaussianBlur stdDeviation="9.5"/>
<feComposite in2="hardAlpha" operator="arithmetic" k2="-1" k3="1"/>
<feColorMatrix type="matrix" values="0 0 0 0 0.0509804 0 0 0 0 0.0196078 0 0 0 0 0.211765 0 0 0 0.07 0"/>
<feBlend mode="normal" in2="shape" result="effect1_innerShadow_703_148"/>
</filter>
<clipPath id="clip0_703_148">
<rect width="223.232" height="442.092" fill="white" transform="matrix(-0.947826 0.318789 0.318789 0.947826 211.585 0)"/>
</clipPath>
</defs>
</svg>
