<svg xmlns="http://www.w3.org/2000/svg" viewBox="0 0 2537 2537"><defs><style>.cls-1{fill:#efa5c0;opacity:0.6;}.cls-11,.cls-2{fill:#8e5e32;}.cls-3{fill:#e5b391;}.cls-11,.cls-3,.cls-4{fill-rule:evenodd;}.cls-4{fill:#4c5127;}.cls-10,.cls-5,.cls-8{fill:none;stroke-miterlimit:10;}.cls-5{stroke:#3d3f1f;stroke-width:5px;}.cls-6{fill:#3d3f1f;}.cls-7{fill:#a53232;}.cls-8{stroke:#a53232;stroke-width:14px;}.cls-10,.cls-8{stroke-linecap:round;}.cls-9{opacity:0.71;}.cls-10{stroke:#fff;stroke-width:9px;}</style></defs><g id="Layer_2" data-name="Layer 2"><g id="Layer_1-2" data-name="Layer 1"><circle class="cls-1" cx="1268.5" cy="1268.5" r="1268.5"/><ellipse class="cls-2" cx="1269.39" cy="1119.92" rx="410.05" ry="405.42"/><path class="cls-3" d="M1680.2,1200.59q0,10.62-.54,21.11c-11,216.7-191,390.61-411.17,390.61-219.21,0-399.9-173.73-411.16-390.26q-.55-10.66-.56-21.46,0-15.88,1.2-31.49C874.13,956.45,1052.63,788,1268.49,788h1.16c217.16.6,394.94,170.38,409.57,384.06Q1680.19,1186.2,1680.2,1200.59Z"/><path class="cls-3" d="M1958.14,2041.5V2317a1187.73,1187.73,0,0,1-203.4,116.47q-21.39,9.6-43.21,18.34a1183.86,1183.86,0,0,1-368,82.83,23.87,23.87,0,0,1-4.07.34q-.54,0-1.08,0-34.54,2-69.59,2h-.34a1185.3,1185.3,0,0,1-689.64-220V2041.5c0-3.29,0-6.58.13-9.85,0-1.62.09-3.25.15-4.87q.12-3.21.31-6.4c0-1.08.11-2.15.18-3.22,0-.32,0-.65.07-1,.07-1.24.16-2.47.26-3.7.1-1.43.22-2.86.35-4.29.09-1.08.19-2.16.29-3.24,0-.58.11-1.16.17-1.74s.14-1.41.22-2.11c.12-1.15.24-2.29.38-3.43h0q.24-2.12.51-4.23c.07-.56.14-1.11.22-1.67.12-1,.26-2,.4-3,.09-.73.2-1.45.31-2.17s.22-1.55.34-2.33.21-1.39.32-2.09c.15-1,.31-2,.47-2.92.21-1.27.42-2.53.65-3.79s.39-2.23.6-3.34.42-2.28.65-3.42.47-2.46.73-3.69c.06-.33.13-.66.2-1,.27-1.31.55-2.62.84-3.92,0-.15.06-.3.1-.44.23-1.12.48-2.23.74-3.34.18-.79.36-1.58.55-2.36.3-1.31.62-2.61.94-3.9s.67-2.69,1-4c.38-1.5.78-3,1.19-4.48l0-.13c.34-1.26.69-2.52,1.06-3.78q.78-2.79,1.61-5.56c.21-.72.43-1.43.66-2.14.3-1,.61-2,.93-3,.42-1.35.85-2.69,1.29-4a378.46,378.46,0,0,1,14.87-38.25c.54-1.2,1.09-2.39,1.65-3.58q1.05-2.3,2.16-4.58c.57-1.2,1.16-2.4,1.75-3.59.45-.91.9-1.82,1.37-2.73s.88-1.77,1.34-2.65a.09.09,0,0,1,0,0q1-2.05,2.12-4.08c.62-1.17,1.24-2.33,1.87-3.49s1.12-2,1.68-3.07l.22-.38c.52-1,1.05-1.9,1.59-2.84s1.13-2,1.71-3,1.17-2,1.76-3,1.33-2.24,2-3.36q.66-1.11,1.35-2.22,1-1.62,2-3.24c.56-.89,1.12-1.78,1.69-2.67l.94-1.46c.58-.9,1.16-1.8,1.76-2.69.16-.26.33-.51.51-.77.55-.84,1.1-1.68,1.67-2.51.38-.58.77-1.16,1.17-1.73.61-.9,1.22-1.79,1.84-2.68.11-.17.23-.34.36-.52.69-1,1.4-2,2.11-3,.25-.36.51-.73.78-1.1.53-.75,1.07-1.5,1.62-2.24,1.22-1.7,2.47-3.39,3.73-5.07.52-.7,1.05-1.39,1.59-2.09s1-1.28,1.46-1.91c.76-1,1.53-2,2.31-3,.88-1.13,1.78-2.26,2.68-3.38l.2-.25c.6-.74,1.19-1.47,1.8-2.2s1-1.3,1.59-1.94l2.44-2.91c1-1.17,2-2.33,3-3.49.78-.9,1.56-1.79,2.35-2.68q4.91-5.56,10-10.93,3.18-3.33,6.43-6.58,3.54-3.55,7.18-7c.91-.87,1.83-1.73,2.75-2.59l3.38-3.11c1-1,2.08-1.89,3.13-2.82,1.44-1.28,2.9-2.56,4.36-3.81,1-.83,1.92-1.66,2.89-2.47s2.14-1.81,3.22-2.7l.81-.67c.89-.74,1.79-1.47,2.69-2.2l1.16-.93,2.33-1.85q2.36-1.86,4.74-3.68c1-.75,2-1.49,2.94-2.23l.25-.18c1-.77,2-1.52,3.06-2.27l1.08-.79c.74-.54,1.48-1.08,2.23-1.61s1.36-1,2-1.45l1.2-.85c1-.69,1.94-1.36,2.92-2l.29-.2c1-.7,2-1.39,3-2.07s2.12-1.42,3.19-2.12c.84-.56,1.69-1.11,2.54-1.65,1.74-1.13,3.48-2.24,5.24-3.33.77-.49,1.55-1,2.34-1.45,1.1-.68,2.21-1.36,3.33-2,.85-.52,1.71-1,2.56-1.53l.9-.52c1.06-.63,2.13-1.25,3.2-1.86q2.49-1.44,5-2.83c.93-.52,1.87-1,2.81-1.54q13.8-7.48,28.26-13.86,1.92-.86,3.87-1.68c2-.87,4.12-1.74,6.19-2.57,1.06-.44,2.13-.87,3.2-1.29q2.94-1.17,5.9-2.28l2.08-.78,3.16-1.15,1-.38,3.4-1.18,1-.35c1.31-.45,2.64-.9,4-1.33s2.52-.83,3.79-1.23l.93-.3,3.12-1,1.55-.47c.82-.25,1.64-.5,2.46-.73.67-.21,1.35-.41,2-.59,1-.29,1.93-.56,2.9-.83l1.16-.32c1-.3,2.1-.58,3.15-.86,1.29-.35,2.59-.69,3.89-1l2.41-.61c1.07-.27,2.15-.53,3.22-.78l.35-.09c1.13-.27,2.26-.54,3.39-.79s2-.46,3-.68l.93-.2c1-.23,2.07-.45,3.1-.66l2.31-.48c1.35-.28,2.71-.54,4.07-.8.88-.18,1.77-.34,2.66-.5l2.32-.42,2.34-.41c1.32-.23,2.64-.44,4-.65,1.06-.18,2.13-.34,3.19-.5q7.1-1.08,14.26-1.89,6.81-.78,13.68-1.3c3.19-.24,6.39-.45,9.6-.61H942c2.89-.15,5.78-.26,8.69-.34q5.44-.16,10.94-.16h613.95c1.66,0,3.31,0,5,0a378.53,378.53,0,0,1,66,6.55,374.53,374.53,0,0,1,55,14.75h0q5.05,1.77,10,3.67a384.45,384.45,0,0,1,134.3,87.4q13,13,24.72,27.21,2.92,3.56,5.77,7.17,4.28,5.43,8.34,11t7.95,11.31q1.29,1.9,2.56,3.84,3.81,5.77,7.41,11.69,2.4,4,4.71,8t4.52,8.07q1.11,2,2.19,4.09,2.18,4.1,4.24,8.25a384.23,384.23,0,0,1,16.6,38.48c1.07,2.93,2.11,5.87,3.12,8.84a377.39,377.39,0,0,1,12.37,45.55c.64,3.11,1.25,6.23,1.81,9.37A382.12,382.12,0,0,1,1958.14,2041.5Z"/><path class="cls-4" d="M1958.14,2041.5V2317a1187.73,1187.73,0,0,1-203.4,116.47q-21.39,9.6-43.21,18.34a1183.86,1183.86,0,0,1-368,82.83,23.87,23.87,0,0,1-4.07.34q-.54,0-1.08,0-34.54,2-69.59,2h-.34a1185.3,1185.3,0,0,1-689.64-220V2041.5c0-3.29,0-6.58.13-9.85,0-1.62.09-3.25.15-4.87q.12-3.21.31-6.4c0-1.08.11-2.15.18-3.22,0-.32,0-.65.07-1,.07-1.24.16-2.47.26-3.7.1-1.43.22-2.86.35-4.29.09-1.08.19-2.16.29-3.24,0-.58.11-1.16.17-1.74s.14-1.41.22-2.11c.12-1.15.24-2.29.38-3.43h0q.24-2.12.51-4.23c.07-.56.14-1.11.22-1.67.12-1,.26-2,.4-3,.09-.73.2-1.45.31-2.17s.22-1.55.34-2.33.21-1.39.32-2.09c.15-1,.31-2,.47-2.92.21-1.27.42-2.53.65-3.79s.39-2.23.6-3.34.42-2.28.65-3.42.47-2.46.73-3.69c.06-.33.13-.66.2-1,.27-1.31.55-2.62.84-3.92,0-.15.06-.3.1-.44.23-1.12.48-2.23.74-3.34.18-.79.36-1.58.55-2.36.3-1.31.62-2.61.94-3.9s.67-2.69,1-4c.38-1.5.78-3,1.19-4.48l0-.13c.34-1.26.69-2.52,1.06-3.78q.78-2.79,1.61-5.56c.21-.72.43-1.43.66-2.14.3-1,.61-2,.93-3,.42-1.35.85-2.69,1.29-4a378.46,378.46,0,0,1,14.87-38.25c.54-1.2,1.09-2.39,1.65-3.58q1.05-2.3,2.16-4.58c.57-1.2,1.16-2.4,1.75-3.59.45-.91.9-1.82,1.37-2.73s.88-1.77,1.34-2.65a.09.09,0,0,1,0,0q1-2.05,2.12-4.08c.62-1.17,1.24-2.33,1.87-3.49s1.12-2,1.68-3.07l.22-.38c.52-1,1.05-1.9,1.59-2.84s1.13-2,1.71-3,1.17-2,1.76-3,1.33-2.24,2-3.36q.66-1.11,1.35-2.22,1-1.62,2-3.24c.56-.89,1.12-1.78,1.69-2.67l.94-1.46c.58-.9,1.16-1.8,1.76-2.69.16-.26.33-.51.51-.77.55-.84,1.1-1.68,1.67-2.51.38-.58.77-1.16,1.17-1.73.61-.9,1.22-1.79,1.84-2.68.11-.17.23-.34.36-.52.69-1,1.4-2,2.11-3,.25-.36.51-.73.78-1.1.53-.75,1.07-1.5,1.62-2.24,1.22-1.7,2.47-3.39,3.73-5.07.52-.7,1.05-1.39,1.59-2.09s1-1.28,1.46-1.91c.76-1,1.53-2,2.31-3,.88-1.13,1.78-2.26,2.68-3.38l.2-.25c.6-.74,1.19-1.47,1.8-2.2s1-1.3,1.59-1.94l2.44-2.91c1-1.17,2-2.33,3-3.49.78-.9,1.56-1.79,2.35-2.68q4.91-5.56,10-10.93,3.18-3.33,6.43-6.58,3.54-3.55,7.18-7c.91-.87,1.83-1.73,2.75-2.59l3.38-3.11c1-1,2.08-1.89,3.13-2.82,1.44-1.28,2.9-2.56,4.36-3.81,1-.83,1.92-1.66,2.89-2.47s2.14-1.81,3.22-2.7l.81-.67c.89-.74,1.79-1.47,2.69-2.2l1.16-.93,2.33-1.85q2.36-1.86,4.74-3.68c1-.75,2-1.49,2.94-2.23l.25-.18c1-.77,2-1.52,3.06-2.27l1.08-.79c.74-.54,1.48-1.08,2.23-1.61s1.36-1,2-1.45l1.2-.85c1-.69,1.94-1.36,2.92-2l.29-.2c1-.7,2-1.39,3-2.07s2.12-1.42,3.19-2.12c.84-.56,1.69-1.11,2.54-1.65,1.74-1.13,3.48-2.24,5.24-3.33.77-.49,1.55-1,2.34-1.45,1.1-.68,2.21-1.36,3.33-2,.85-.52,1.71-1,2.56-1.53l.9-.52c1.06-.63,2.13-1.25,3.2-1.86q2.49-1.44,5-2.83c.93-.52,1.87-1,2.81-1.54q13.8-7.48,28.26-13.86,1.92-.86,3.87-1.68c2-.87,4.12-1.74,6.19-2.57,1.06-.44,2.13-.87,3.2-1.29q2.94-1.17,5.9-2.28l2.08-.78,3.16-1.15,1-.38,3.4-1.18,1-.35c1.31-.45,2.64-.9,4-1.33s2.52-.83,3.79-1.23l.93-.3,3.12-1,1.55-.47c.82-.25,1.64-.5,2.46-.73.67-.21,1.35-.41,2-.59,1-.29,1.93-.56,2.9-.83l1.16-.32c1-.3,2.1-.58,3.15-.86,1.29-.35,2.59-.69,3.89-1l2.41-.61c1.07-.27,2.15-.53,3.22-.78l.35-.09c1.13-.27,2.26-.54,3.39-.79s2-.46,3-.68l.93-.2c1-.23,2.07-.45,3.1-.66l2.31-.48c1.35-.28,2.71-.54,4.07-.8.88-.18,1.77-.34,2.66-.5l2.32-.42,2.34-.41c1.32-.23,2.64-.44,4-.65,1.06-.18,2.13-.34,3.19-.5q7.1-1.08,14.26-1.89,6.81-.77,13.68-1.3c3.19-.24,6.39-.45,9.6-.61H942c2.89-.15,5.78-.26,8.69-.34q5.44-.16,10.94-.16h88.71l50.76,39.38,167.24,129.72,3.29-2.14,256.53-167h47.42c1.66,0,3.31,0,5,0a378.53,378.53,0,0,1,66,6.55,374.53,374.53,0,0,1,55,14.75h0q5.05,1.77,10,3.67a384.45,384.45,0,0,1,134.3,87.4q13,13,24.72,27.21,2.92,3.56,5.77,7.17,4.26,5.43,8.34,11t7.95,11.31q1.29,1.9,2.56,3.84,3.8,5.77,7.41,11.69,2.4,4,4.71,8t4.52,8.07q1.11,2,2.19,4.09,2.18,4.1,4.24,8.25a384.23,384.23,0,0,1,16.6,38.48c1.07,2.93,2.11,5.87,3.12,8.84a377.39,377.39,0,0,1,12.37,45.55c.64,3.11,1.25,6.23,1.81,9.37A382.12,382.12,0,0,1,1958.14,2041.5Z"/><polyline class="cls-5" points="1269.01 1827.5 1269.01 1827.71 1269.01 1827.86 1268.84 2537"/><circle class="cls-6" cx="1339.51" cy="2000" r="25"/><circle class="cls-6" cx="1339.51" cy="2255" r="25"/><path class="cls-6" d="M1364.51,2510a25,25,0,0,1-20.93,24.66,23.87,23.87,0,0,1-4.07.34q-.54,0-1.08,0a25,25,0,1,1,26.08-25Z"/><path class="cls-6" d="M1268.38,1827.79,1155,1912.5l-213.1-253.3q9.81-.51,19.76-.51h88.71Z"/><path class="cls-6" d="M1268.91,1827.79l113.37,84.71,213.1-253.3q-9.81-.51-19.76-.51h-88.71Z"/><path class="cls-7" d="M1712,1709.87a48.06,48.06,0,0,0-96.11,0h0V2340h0a48.06,48.06,0,0,0,96.11,0h0V1709.87Z"/><path class="cls-8" d="M1663.51,2313a201.65,201.65,0,0,0,7.36,19.06q1.68,3.81,3.53,7.57a241.64,241.64,0,0,0,21.82,35.95q7.18,9.86,15.31,19h0a253.27,253.27,0,0,0,43.2,38.89"/><g class="cls-9"><path class="cls-10" d="M1633.51,1699.67c.52,3.71,3,18,18.67,29.42,16.89,12.4,37,12.64,41.33,12.61"/><path class="cls-10" d="M1693.51,1743c-.51,3.72-3,18-18.67,29.43-16.89,12.39-37,12.63-41.33,12.61"/><path class="cls-10" d="M1633.51,1785.57c.52,3.71,3,18,18.67,29.43,16.89,12.39,37,12.63,41.33,12.61"/><path class="cls-10" d="M1693.51,1828.92c-.51,3.71-3,18-18.67,29.42-16.89,12.4-37,12.64-41.33,12.61"/><path class="cls-10" d="M1633.51,1870.69c.52,3.71,3,18,18.67,29.42,16.89,12.4,37,12.64,41.33,12.61"/><path class="cls-10" d="M1693.51,1914c-.51,3.71-3,18-18.67,29.42-16.89,12.4-37,12.64-41.33,12.61"/><path class="cls-10" d="M1633.51,1956.6c.52,3.71,3,18,18.67,29.42,16.89,12.4,37,12.64,41.33,12.61"/><path class="cls-10" d="M1693.51,1999.94c-.51,3.71-3,18-18.67,29.43-16.89,12.39-37,12.63-41.33,12.61"/><path class="cls-10" d="M1633.51,2041.71c.52,3.72,3,18,18.67,29.43,16.89,12.39,37,12.63,41.33,12.61"/><path class="cls-10" d="M1693.51,2085.06c-.51,3.71-3,18-18.67,29.42-16.89,12.4-37,12.64-41.33,12.61"/><path class="cls-10" d="M1633.51,2127.62c.52,3.71,3,18,18.67,29.42,16.89,12.4,37,12.64,41.33,12.61"/><path class="cls-10" d="M1693.51,2171c-.51,3.71-3,18-18.67,29.42-16.89,12.4-37,12.64-41.33,12.61"/><path class="cls-10" d="M1693.51,1699.67c-.51,3.71-3,18-18.67,29.42-16.89,12.4-37,12.64-41.33,12.61"/><path class="cls-10" d="M1633.51,1743c.52,3.72,3,18,18.67,29.43,16.89,12.39,37,12.63,41.33,12.61"/><path class="cls-10" d="M1693.51,1785.57c-.51,3.71-3,18-18.67,29.43-16.89,12.39-37,12.63-41.33,12.61"/><path class="cls-10" d="M1633.51,1828.92c.52,3.71,3,18,18.67,29.42,16.89,12.4,37,12.64,41.33,12.61"/><path class="cls-10" d="M1693.51,1870.69c-.51,3.71-3,18-18.67,29.42-16.89,12.4-37,12.64-41.33,12.61"/><path class="cls-10" d="M1633.51,1914c.52,3.71,3,18,18.67,29.42,16.89,12.4,37,12.64,41.33,12.61"/><path class="cls-10" d="M1693.51,1956.6c-.51,3.71-3,18-18.67,29.42-16.89,12.4-37,12.64-41.33,12.61"/><path class="cls-10" d="M1633.51,1999.94c.52,3.71,3,18,18.67,29.43,16.89,12.39,37,12.63,41.33,12.61"/><path class="cls-10" d="M1693.51,2041.71c-.51,3.72-3,18-18.67,29.43-16.89,12.39-37,12.63-41.33,12.61"/><path class="cls-10" d="M1633.51,2085.06c.52,3.71,3,18,18.67,29.42,16.89,12.4,37,12.64,41.33,12.61"/><path class="cls-10" d="M1693.51,2127.62c-.51,3.71-3,18-18.67,29.42-16.89,12.4-37,12.64-41.33,12.61"/><path class="cls-10" d="M1633.51,2171c.52,3.71,3,18,18.67,29.42,16.89,12.4,37,12.64,41.33,12.61"/><path class="cls-10" d="M1693.51,2214.06c-.51,3.71-3,18-18.67,29.42-16.89,12.4-37,12.64-41.33,12.61"/><path class="cls-10" d="M1633.51,2256.62c.52,3.71,3,18,18.67,29.42,16.89,12.4,37,12.64,41.33,12.61"/><path class="cls-10" d="M1693.51,2300c-.51,3.71-3,18-18.67,29.42-16.89,12.4-37,12.64-41.33,12.61"/><path class="cls-10" d="M1633.51,2214.06c.52,3.71,3,18,18.67,29.42,16.89,12.4,37,12.64,41.33,12.61"/><path class="cls-10" d="M1693.51,2256.62c-.51,3.71-3,18-18.67,29.42-16.89,12.4-37,12.64-41.33,12.61"/><path class="cls-10" d="M1633.51,2300c.52,3.71,3,18,18.67,29.42,16.89,12.4,37,12.64,41.33,12.61"/></g><path class="cls-11" d="M1679.6,1169.18c-87.52-60-131.12-156.75-150.5-214.8a71.27,71.27,0,0,0-67.64-48.62H1069.09a73.28,73.28,0,0,0-69.56,50c-19.09,57.18-61.39,150.63-145.93,210.47,16.25-213.88,195.78-383.3,412.89-383.3h1.17C1486.07,783.5,1664.88,954.26,1679.6,1169.18Z"/><path class="cls-11" d="M1170.35,731.59s42-21.75,46.93-52.42-1.53-38.31-1.53-38.31,34.45,9.32,31.68,38.19-4.09,21.71-4.09,21.71,32.63,8.06,34.41-20.9-5-44-5-44,31.08,11.67,33,44-4,27-4,27,18.3-7.56,25-25-1-46-1-46,38.18,25.49,32,48-13.17,29.81-33,48,46.82-14.59,54-37,4-36,4-36,25.45,27.79,16,53-35,32.6-35,32.6"/></g></g></svg>