<?xml version="1.0" encoding="UTF-8"?>
<svg id="Layer_2" data-name="Layer 2" xmlns="http://www.w3.org/2000/svg" xmlns:xlink="http://www.w3.org/1999/xlink" viewBox="0 0 2295 2295">
  <defs>
    <style>
      .cls-1 {
        fill: #cc9466;
      }

      .cls-1, .cls-2, .cls-3, .cls-4, .cls-5, .cls-6, .cls-7, .cls-8 {
        stroke-width: 0px;
      }

      .cls-1, .cls-3, .cls-6, .cls-7 {
        fill-rule: evenodd;
      }

      .cls-2 {
        fill: #f5c9d9;
      }

      .cls-3 {
        fill: #4c5127;
      }

      .cls-9 {
        stroke: #68212a;
        stroke-width: 9px;
      }

      .cls-9, .cls-10, .cls-5, .cls-11 {
        fill: none;
      }

      .cls-9, .cls-10, .cls-11 {
        stroke-miterlimit: 10;
      }

      .cls-9, .cls-11 {
        stroke-linecap: round;
      }

      .cls-4 {
        fill: #3d3f1f;
      }

      .cls-10 {
        stroke: #3d3f1f;
        stroke-width: 5px;
      }

      .cls-6 {
        fill: url(#linear-gradient);
      }

      .cls-7 {
        fill: #16120d;
      }

      .cls-11 {
        stroke: #561a1e;
        stroke-width: 14px;
      }

      .cls-8 {
        fill: #561a1e;
      }
    </style>
    <linearGradient id="linear-gradient" x1="1148.05" y1="1046.27" x2="1148.05" y2="529.1" gradientUnits="userSpaceOnUse">
      <stop offset="0" stop-color="#cc9466"/>
      <stop offset=".07" stop-color="#c28d61"/>
      <stop offset=".17" stop-color="#a97c57"/>
      <stop offset=".31" stop-color="#7f5f45"/>
      <stop offset=".48" stop-color="#46382d"/>
      <stop offset=".56" stop-color="#282420"/>
      <stop offset=".65" stop-color="#1a1a1a"/>
    </linearGradient>
  </defs>
  <g id="Layer_1-2" data-name="Layer 1">
    <circle class="cls-2" cx="1147.5" cy="1147.5" r="1147.5"/>
    <path class="cls-7" d="m1540.75,1027.02c-60.2,153.74-213.32,262.98-392.7,262.98s-335.21-111.19-394.27-267.08c115.36-132.74,161.3-351.03,161.3-351.03h460.74s47.3,223.09,164.93,355.13Z"/>
    <path class="cls-1" d="m1559.2,958.59c0,7.08-.4,14.11-.54,21.11-4.74,238.78-231.74,390.61-411.17,390.61-155.57,0-396.57-154.83-411.16-390.26-.44-7.11-.56-14.26-.56-21.46,0-10.59.4-21.09,1.2-31.49,16.16-212.65,194.66-381.1,410.52-381.1h.02c.38,0,.75,0,1.13.01h0c217.16.6,394.94,170.38,409.57,384.06.65,9.42.98,18.93.98,28.52Z"/>
    <path class="cls-1" d="m1837.14,1799.5v275.52c-63.46,45.18-131.54,84.29-203.4,116.47-14.26,6.4-28.67,12.51-43.21,18.34-114.88,46.1-238.62,74.79-367.95,82.83-1.33.23-2.69.34-4.07.34-.36,0-.72-.01-1.08-.03-23.03,1.34-46.23,2.02-69.59,2.03h-.34c-155.8,0-304.61-29.93-440.99-84.36-88.63-35.36-172.01-81.06-248.65-135.62v-275.52c0-3.29.04-6.58.13-9.85.04-1.62.09-3.25.15-4.87.08-2.14.18-4.27.31-6.4.05-1.08.11-2.15.18-3.22.02-.32.04-.65.07-.97.07-1.24.16-2.47.26-3.7.1-1.43.22-2.86.35-4.29.09-1.08.19-2.16.29-3.24.05-.58.11-1.16.17-1.74.07-.7.14-1.41.22-2.11.12-1.15.24-2.29.38-3.43h0c.16-1.42.33-2.83.51-4.24.07-.56.14-1.11.22-1.67.12-.99.26-1.97.4-2.96.09-.73.2-1.45.31-2.17.1-.78.22-1.55.34-2.33.1-.7.21-1.39.32-2.09.15-.97.31-1.95.47-2.92.21-1.27.42-2.53.65-3.79.19-1.12.39-2.23.6-3.34.2-1.14.42-2.28.65-3.42.23-1.23.47-2.46.73-3.69.06-.33.13-.66.2-.99.27-1.31.55-2.62.84-3.92.03-.15.06-.3.1-.44.23-1.12.48-2.23.74-3.34.18-.79.36-1.58.55-2.36.3-1.31.62-2.61.94-3.9.33-1.35.67-2.69,1.02-4.03.38-1.5.78-2.99,1.19-4.48,0-.04.02-.09.03-.13.34-1.26.69-2.52,1.06-3.78.52-1.86,1.06-3.71,1.61-5.56.21-.72.43-1.43.66-2.14.3-1.01.61-2.01.93-3.01.42-1.35.85-2.69,1.29-4.03,4.28-13.07,9.25-25.83,14.87-38.25.54-1.2,1.09-2.39,1.65-3.58.7-1.53,1.42-3.06,2.16-4.58.57-1.2,1.16-2.4,1.75-3.59.45-.91.9-1.82,1.37-2.73.43-.89.88-1.77,1.34-2.65,0-.01.01-.03.03-.05.69-1.37,1.4-2.73,2.12-4.08.62-1.17,1.24-2.33,1.87-3.49.55-1.03,1.12-2.05,1.68-3.07.07-.13.14-.25.22-.38.52-.95,1.05-1.9,1.59-2.84.56-1,1.13-1.99,1.71-2.99.58-1.01,1.17-2.01,1.76-3,.66-1.12,1.33-2.24,2.01-3.36.44-.74.89-1.48,1.35-2.22.66-1.08,1.33-2.16,2.01-3.24.56-.89,1.12-1.78,1.69-2.67.31-.48.63-.97.94-1.46.58-.9,1.16-1.8,1.76-2.69.16-.26.33-.51.51-.77.55-.84,1.1-1.68,1.67-2.51.38-.58.77-1.16,1.17-1.73.61-.9,1.22-1.79,1.84-2.68.11-.17.23-.34.36-.52.69-1.01,1.4-2.01,2.11-3,.25-.36.51-.73.78-1.1.53-.75,1.07-1.5,1.62-2.24,1.22-1.7,2.47-3.39,3.73-5.07.52-.7,1.05-1.39,1.59-2.09.48-.64.97-1.28,1.46-1.91.76-.99,1.53-1.98,2.31-2.96.88-1.13,1.78-2.26,2.68-3.38.07-.08.13-.16.2-.25.6-.74,1.19-1.47,1.8-2.2.52-.65,1.05-1.3,1.59-1.94.81-.97,1.62-1.94,2.44-2.91.99-1.17,1.98-2.33,2.99-3.49.78-.9,1.56-1.79,2.35-2.68,3.27-3.71,6.61-7.35,10.02-10.93,2.12-2.22,4.26-4.41,6.43-6.58,2.36-2.37,4.76-4.7,7.18-6.99.91-.87,1.83-1.73,2.75-2.59,1.12-1.04,2.25-2.08,3.38-3.11,1.04-.95,2.08-1.89,3.13-2.82,1.44-1.28,2.9-2.56,4.36-3.81.96-.83,1.92-1.66,2.89-2.47,1.07-.91,2.14-1.81,3.22-2.7.27-.23.54-.45.81-.67.89-.74,1.79-1.47,2.69-2.2.39-.31.77-.62,1.16-.93.77-.62,1.55-1.24,2.33-1.85,1.57-1.24,3.15-2.47,4.74-3.68.97-.75,1.95-1.49,2.94-2.23.08-.06.17-.13.25-.18,1.01-.77,2.03-1.52,3.06-2.27.36-.27.72-.53,1.08-.79.74-.54,1.48-1.08,2.23-1.61.68-.49,1.36-.98,2.05-1.45.4-.29.8-.57,1.2-.85.97-.69,1.94-1.36,2.92-2.03.1-.07.19-.14.29-.2,1.01-.7,2.02-1.39,3.04-2.07,1.06-.71,2.12-1.42,3.19-2.12.84-.56,1.69-1.11,2.54-1.65,1.74-1.13,3.48-2.24,5.24-3.33.77-.49,1.55-.97,2.34-1.45,1.1-.68,2.21-1.36,3.33-2.02.85-.52,1.71-1.03,2.56-1.53.3-.18.6-.35.9-.52,1.06-.63,2.13-1.25,3.2-1.86,1.66-.96,3.33-1.9,5.02-2.83.93-.52,1.87-1.03,2.81-1.54,9.2-4.99,18.63-9.62,28.26-13.86,1.28-.57,2.57-1.13,3.87-1.68,2.05-.87,4.12-1.74,6.19-2.57,1.06-.44,2.13-.87,3.2-1.29,1.96-.78,3.93-1.54,5.9-2.28.69-.26,1.39-.52,2.08-.78,1.05-.39,2.11-.77,3.16-1.15.35-.13.69-.25,1.04-.38,1.13-.4,2.26-.79,3.4-1.18.32-.12.65-.23.99-.35,1.31-.45,2.64-.9,3.96-1.33,1.26-.42,2.52-.83,3.79-1.23.31-.1.62-.2.93-.3,1.04-.33,2.08-.65,3.12-.97.51-.16,1.03-.32,1.55-.47.82-.25,1.64-.5,2.46-.73.67-.21,1.35-.41,2.02-.59.96-.29,1.93-.56,2.9-.83.38-.11.77-.22,1.16-.32,1.04-.3,2.1-.58,3.15-.86,1.29-.35,2.59-.69,3.89-1.02.8-.21,1.6-.41,2.41-.61,1.07-.27,2.15-.53,3.22-.78.12-.04.23-.06.35-.09,1.13-.27,2.26-.54,3.39-.79,1-.24,2-.46,3-.68.31-.07.62-.13.93-.2,1.03-.23,2.07-.45,3.1-.66.77-.17,1.54-.33,2.31-.48,1.35-.28,2.71-.54,4.07-.8.88-.18,1.77-.34,2.66-.5.77-.14,1.54-.28,2.32-.42.78-.14,1.56-.28,2.34-.41,1.32-.23,2.64-.44,3.97-.65,1.06-.18,2.13-.34,3.19-.5,4.73-.72,9.48-1.35,14.26-1.89,4.54-.52,9.1-.95,13.68-1.3,3.19-.24,6.39-.45,9.6-.61.04,0,.09,0,.13-.01,2.89-.15,5.78-.26,8.69-.34,3.63-.11,7.28-.16,10.94-.16h613.95c1.66,0,3.31.01,4.96.03,22.49.26,44.53,2.5,65.96,6.55,18.83,3.55,37.19,8.5,54.95,14.75h.01c3.37,1.18,6.71,2.4,10.03,3.67,50.77,19.46,96.46,49.5,134.3,87.4,8.66,8.66,16.91,17.75,24.72,27.21,1.95,2.37,3.88,4.76,5.77,7.17,2.85,3.62,5.63,7.29,8.34,11.01,2.72,3.72,5.37,7.49,7.95,11.31.86,1.27,1.71,2.55,2.56,3.84,2.54,3.85,5.01,7.75,7.41,11.69,1.6,2.64,3.17,5.29,4.71,7.96,1.54,2.67,3.05,5.36,4.52,8.07.74,1.36,1.47,2.72,2.19,4.09,1.45,2.73,2.86,5.48,4.24,8.25,6.2,12.46,11.75,25.3,16.6,38.48,1.07,2.93,2.11,5.87,3.12,8.84,5.03,14.8,9.18,30.01,12.37,45.55.64,3.11,1.25,6.23,1.81,9.37,3.94,21.94,6,44.53,6,67.57Z"/>
    <path class="cls-3" d="m1837.14,1799.5v275.52c-63.46,45.18-131.54,84.29-203.4,116.47-14.26,6.4-28.67,12.51-43.21,18.34-114.88,46.1-238.62,74.79-367.95,82.83-1.33.23-2.69.34-4.07.34-.36,0-.72-.01-1.08-.03-23.03,1.34-46.23,2.02-69.59,2.03h-.34c-155.8,0-304.61-29.93-440.99-84.36-88.63-35.36-172.01-81.06-248.65-135.62v-275.52c0-3.29.04-6.58.13-9.85.04-1.62.09-3.25.15-4.87.08-2.14.18-4.27.31-6.4.05-1.08.11-2.15.18-3.22.02-.32.04-.65.07-.97.07-1.24.16-2.47.26-3.7.1-1.43.22-2.86.35-4.29.09-1.08.19-2.16.29-3.24.05-.58.11-1.16.17-1.74.07-.7.14-1.41.22-2.11.12-1.15.24-2.29.38-3.43h0c.16-1.42.33-2.83.51-4.24.07-.56.14-1.11.22-1.67.12-.99.26-1.97.4-2.96.09-.73.2-1.45.31-2.17.1-.78.22-1.55.34-2.33.1-.7.21-1.39.32-2.09.15-.97.31-1.95.47-2.92.21-1.27.42-2.53.65-3.79.19-1.12.39-2.23.6-3.34.2-1.14.42-2.28.65-3.42.23-1.23.47-2.46.73-3.69.06-.33.13-.66.2-.99.27-1.31.55-2.62.84-3.92.03-.15.06-.3.1-.44.23-1.12.48-2.23.74-3.34.18-.79.36-1.58.55-2.36.3-1.31.62-2.61.94-3.9.33-1.35.67-2.69,1.02-4.03.38-1.5.78-2.99,1.19-4.48,0-.04.02-.09.03-.13.34-1.26.69-2.52,1.06-3.78.52-1.86,1.06-3.71,1.61-5.56.21-.72.43-1.43.66-2.14.3-1.01.61-2.01.93-3.01.42-1.35.85-2.69,1.29-4.03,4.28-13.07,9.25-25.83,14.87-38.25.54-1.2,1.09-2.39,1.65-3.58.7-1.53,1.42-3.06,2.16-4.58.57-1.2,1.16-2.4,1.75-3.59.45-.91.9-1.82,1.37-2.73.43-.89.88-1.77,1.34-2.65,0-.01.01-.03.03-.05.69-1.37,1.4-2.73,2.12-4.08.62-1.17,1.24-2.33,1.87-3.49.55-1.03,1.12-2.05,1.68-3.07.07-.13.14-.25.22-.38.52-.95,1.05-1.9,1.59-2.84.56-1,1.13-1.99,1.71-2.99.58-1.01,1.17-2.01,1.76-3,.66-1.12,1.33-2.24,2.01-3.36.44-.74.89-1.48,1.35-2.22.66-1.08,1.33-2.16,2.01-3.24.56-.89,1.12-1.78,1.69-2.67.31-.48.63-.97.94-1.46.58-.9,1.16-1.8,1.76-2.69.16-.26.33-.51.51-.77.55-.84,1.1-1.68,1.67-2.51.38-.58.77-1.16,1.17-1.73.61-.9,1.22-1.79,1.84-2.68.11-.17.23-.34.36-.52.69-1.01,1.4-2.01,2.11-3,.25-.36.51-.73.78-1.1.53-.75,1.07-1.5,1.62-2.24,1.22-1.7,2.47-3.39,3.73-5.07.52-.7,1.05-1.39,1.59-2.09.48-.64.97-1.28,1.46-1.91.76-.99,1.53-1.98,2.31-2.96.88-1.13,1.78-2.26,2.68-3.38.07-.08.13-.16.2-.25.6-.74,1.19-1.47,1.8-2.2.52-.65,1.05-1.3,1.59-1.94.81-.97,1.62-1.94,2.44-2.91.99-1.17,1.98-2.33,2.99-3.49.78-.9,1.56-1.79,2.35-2.68,3.27-3.71,6.61-7.35,10.02-10.93,2.12-2.22,4.26-4.42,6.43-6.58,2.36-2.37,4.76-4.7,7.18-6.99.91-.87,1.83-1.73,2.75-2.59,1.12-1.04,2.25-2.08,3.38-3.11,1.04-.95,2.08-1.89,3.13-2.82,1.44-1.28,2.9-2.56,4.36-3.81.96-.83,1.92-1.66,2.89-2.47,1.07-.91,2.14-1.81,3.22-2.7.27-.23.54-.45.81-.67.89-.74,1.79-1.47,2.69-2.2.39-.31.77-.62,1.16-.93.77-.62,1.55-1.24,2.33-1.85,1.57-1.24,3.15-2.47,4.74-3.68.97-.75,1.95-1.49,2.94-2.23.08-.06.17-.13.25-.18,1.01-.77,2.03-1.52,3.06-2.27.36-.27.72-.53,1.08-.79.74-.54,1.48-1.08,2.23-1.61.68-.49,1.36-.98,2.05-1.45.4-.29.8-.57,1.2-.85.97-.69,1.94-1.36,2.92-2.03.1-.07.19-.14.29-.2,1.01-.7,2.02-1.39,3.04-2.07,1.06-.71,2.12-1.42,3.19-2.12.84-.56,1.69-1.11,2.54-1.65,1.74-1.13,3.48-2.24,5.24-3.33.77-.49,1.55-.97,2.34-1.45,1.1-.68,2.21-1.36,3.33-2.02.85-.52,1.71-1.03,2.56-1.53.3-.18.6-.35.9-.52,1.06-.63,2.13-1.25,3.2-1.86,1.66-.96,3.33-1.9,5.02-2.83.93-.52,1.87-1.03,2.81-1.54,9.2-4.99,18.63-9.62,28.26-13.86,1.28-.57,2.57-1.13,3.87-1.68,2.05-.87,4.12-1.74,6.19-2.57,1.06-.44,2.13-.87,3.2-1.29,1.96-.78,3.93-1.54,5.9-2.28.69-.26,1.39-.52,2.08-.78,1.05-.39,2.11-.77,3.16-1.15.35-.13.69-.25,1.04-.38,1.13-.4,2.26-.79,3.4-1.18.32-.12.65-.23.99-.35,1.31-.45,2.64-.9,3.96-1.33,1.26-.42,2.52-.83,3.79-1.23.31-.1.62-.2.93-.3,1.04-.33,2.08-.65,3.12-.97.51-.16,1.03-.32,1.55-.47.82-.25,1.64-.5,2.46-.73.67-.21,1.35-.41,2.02-.59.96-.29,1.93-.56,2.9-.83.38-.11.77-.22,1.16-.32,1.04-.3,2.1-.58,3.15-.86,1.29-.35,2.59-.69,3.89-1.02.8-.21,1.6-.41,2.41-.61,1.07-.27,2.15-.53,3.22-.78.12-.04.23-.06.35-.09,1.13-.27,2.26-.54,3.39-.79,1-.24,2-.46,3-.68.31-.07.62-.13.93-.2,1.03-.23,2.07-.45,3.1-.66.77-.17,1.54-.33,2.31-.48,1.35-.28,2.71-.54,4.07-.8.88-.18,1.77-.34,2.66-.5.77-.14,1.54-.28,2.32-.42.78-.14,1.56-.28,2.34-.41,1.32-.23,2.64-.44,3.97-.65,1.06-.18,2.13-.34,3.19-.5,4.73-.72,9.48-1.35,14.26-1.89,4.54-.51,9.1-.94,13.68-1.3,3.19-.24,6.39-.45,9.6-.61.04,0,.09,0,.13-.01,2.89-.15,5.78-.26,8.69-.34,3.63-.11,7.28-.16,10.94-.16h88.71l50.76,39.38,167.24,129.72,3.29-2.14,256.53-166.96h47.42c1.66,0,3.31.01,4.96.03,22.49.26,44.53,2.5,65.96,6.55,18.83,3.55,37.19,8.5,54.95,14.75h.01c3.37,1.18,6.71,2.4,10.03,3.67,50.77,19.46,96.46,49.5,134.3,87.4,8.66,8.67,16.91,17.75,24.72,27.21,1.95,2.37,3.87,4.76,5.77,7.17,2.84,3.62,5.62,7.29,8.34,11.01,2.71,3.72,5.36,7.49,7.95,11.31.86,1.27,1.71,2.55,2.56,3.84,2.53,3.85,5.01,7.75,7.41,11.69,1.6,2.64,3.17,5.29,4.71,7.96,1.54,2.67,3.04,5.36,4.52,8.07.74,1.36,1.47,2.72,2.19,4.09,1.45,2.73,2.86,5.48,4.24,8.25,6.2,12.46,11.75,25.3,16.6,38.48,1.07,2.93,2.11,5.87,3.12,8.84,5.03,14.8,9.18,30.01,12.37,45.55.64,3.11,1.25,6.23,1.81,9.37,3.94,21.94,6,44.53,6,67.57Z"/>
    <polyline class="cls-10" points="1148.01 1585.5 1148.01 1585.71 1148.01 1585.86 1147.84 2295"/>
    <circle class="cls-4" cx="1218.51" cy="1758" r="25"/>
    <circle class="cls-4" cx="1218.51" cy="2013" r="25"/>
    <path class="cls-4" d="m1147.38,1585.79l-113.37,84.71-213.1-253.3c6.54-.34,13.13-.51,19.76-.51h88.71l218,169.1Z"/>
    <path class="cls-4" d="m1147.91,1585.79l113.37,84.71,213.1-253.3c-6.54-.34-13.13-.51-19.76-.51h-88.71l-218,169.1Z"/>
    <path class="cls-8" d="m1591.04,1467.87c-.1-26.46-21.58-47.87-48.06-47.87s-47.95,21.42-48.06,47.87h0v630.13h0c.03,26.52,21.54,48,48.06,48s48.03-21.48,48.06-48h0v-630.13h0Z"/>
    <path class="cls-11" d="m1542.51,2071c2.1,6.41,4.57,12.78,7.36,19.06,1.12,2.54,2.3,5.06,3.53,7.57,6.11,12.45,13.47,24.52,21.82,35.95,4.79,6.57,9.91,12.92,15.31,19.01h0c13.04,14.74,27.68,27.94,43.2,38.9"/>
    <g>
      <path class="cls-9" d="m1512.51,1457.67c.51,3.71,3.05,17.96,18.67,29.42,16.89,12.4,36.98,12.64,41.33,12.61"/>
      <path class="cls-9" d="m1572.51,1501.01c-.51,3.71-3.05,17.96-18.67,29.42-16.89,12.4-36.98,12.64-41.33,12.61"/>
      <path class="cls-9" d="m1512.51,1543.57c.51,3.71,3.05,17.96,18.67,29.42,16.89,12.4,36.98,12.64,41.33,12.61"/>
      <path class="cls-9" d="m1572.51,1586.92c-.51,3.71-3.05,17.96-18.67,29.42-16.89,12.4-36.98,12.64-41.33,12.61"/>
      <path class="cls-9" d="m1512.51,1628.69c.51,3.71,3.05,17.96,18.67,29.42,16.89,12.4,36.98,12.64,41.33,12.61"/>
      <path class="cls-9" d="m1572.51,1672.04c-.51,3.71-3.05,17.96-18.67,29.42-16.89,12.4-36.98,12.64-41.33,12.61"/>
      <path class="cls-9" d="m1512.51,1714.6c.51,3.71,3.05,17.96,18.67,29.42,16.89,12.4,36.98,12.64,41.33,12.61"/>
      <path class="cls-9" d="m1572.51,1757.94c-.51,3.71-3.05,17.96-18.67,29.42-16.89,12.4-36.98,12.64-41.33,12.61"/>
      <path class="cls-9" d="m1512.51,1799.71c.51,3.71,3.05,17.96,18.67,29.42,16.89,12.4,36.98,12.64,41.33,12.61"/>
      <path class="cls-9" d="m1572.51,1843.06c-.51,3.71-3.05,17.96-18.67,29.42-16.89,12.4-36.98,12.64-41.33,12.61"/>
      <path class="cls-9" d="m1512.51,1885.62c.51,3.71,3.05,17.96,18.67,29.42,16.89,12.4,36.98,12.64,41.33,12.61"/>
      <path class="cls-9" d="m1572.51,1928.97c-.51,3.71-3.05,17.96-18.67,29.42-16.89,12.4-36.98,12.64-41.33,12.61"/>
      <path class="cls-9" d="m1572.51,1457.67c-.51,3.71-3.05,17.96-18.67,29.42-16.89,12.4-36.98,12.64-41.33,12.61"/>
      <path class="cls-9" d="m1512.51,1501.01c.51,3.71,3.05,17.96,18.67,29.42,16.89,12.4,36.98,12.64,41.33,12.61"/>
      <path class="cls-9" d="m1572.51,1543.57c-.51,3.71-3.05,17.96-18.67,29.42-16.89,12.4-36.98,12.64-41.33,12.61"/>
      <path class="cls-9" d="m1512.51,1586.92c.51,3.71,3.05,17.96,18.67,29.42,16.89,12.4,36.98,12.64,41.33,12.61"/>
      <path class="cls-9" d="m1572.51,1628.69c-.51,3.71-3.05,17.96-18.67,29.42-16.89,12.4-36.98,12.64-41.33,12.61"/>
      <path class="cls-9" d="m1512.51,1672.04c.51,3.71,3.05,17.96,18.67,29.42,16.89,12.4,36.98,12.64,41.33,12.61"/>
      <path class="cls-9" d="m1572.51,1714.6c-.51,3.71-3.05,17.96-18.67,29.42-16.89,12.4-36.98,12.64-41.33,12.61"/>
      <path class="cls-9" d="m1512.51,1757.94c.51,3.71,3.05,17.96,18.67,29.42,16.89,12.4,36.98,12.64,41.33,12.61"/>
      <path class="cls-9" d="m1572.51,1799.71c-.51,3.71-3.05,17.96-18.67,29.42-16.89,12.4-36.98,12.64-41.33,12.61"/>
      <path class="cls-9" d="m1512.51,1843.06c.51,3.71,3.05,17.96,18.67,29.42,16.89,12.4,36.98,12.64,41.33,12.61"/>
      <path class="cls-9" d="m1572.51,1885.62c-.51,3.71-3.05,17.96-18.67,29.42-16.89,12.4-36.98,12.64-41.33,12.61"/>
      <path class="cls-9" d="m1512.51,1928.97c.51,3.71,3.05,17.96,18.67,29.42,16.89,12.4,36.98,12.64,41.33,12.61"/>
      <path class="cls-9" d="m1572.51,1972.06c-.51,3.71-3.05,17.96-18.67,29.42-16.89,12.4-36.98,12.64-41.33,12.61"/>
      <path class="cls-9" d="m1512.51,2014.62c.51,3.71,3.05,17.96,18.67,29.42,16.89,12.4,36.98,12.64,41.33,12.61"/>
      <path class="cls-9" d="m1572.51,2057.97c-.51,3.71-3.05,17.96-18.67,29.42-16.89,12.4-36.98,12.64-41.33,12.61"/>
      <path class="cls-9" d="m1512.51,1972.06c.51,3.71,3.05,17.96,18.67,29.42,16.89,12.4,36.98,12.64,41.33,12.61"/>
      <path class="cls-9" d="m1572.51,2014.62c-.51,3.71-3.05,17.96-18.67,29.42-16.89,12.4-36.98,12.64-41.33,12.61"/>
      <path class="cls-9" d="m1512.51,2057.97c.51,3.71,3.05,17.96,18.67,29.42,16.89,12.4,36.98,12.64,41.33,12.61"/>
    </g>
    <path class="cls-6" d="m1567.08,909.82c1.89,45.71-1.07,91.85-7.99,136.45-6.3-6.16-12.41-12.59-18.34-19.25,24.64-221.75-99.13-152.83-125.68-224.66-27.16-73.45-39.25-130.47-39.25-130.47h-460.74s-10.69,50.79-34.7,118.27c-25.77,72.41-127.99,51.11-126.6,232.76-5.72,6.59-11.62,12.97-17.69,19.1-4.51-40.82-7.38-83.84-6.69-127.08-.89-10.86-1.35-21.85-1.35-32.94,0-225.33,85.87-408,420-408s420,182.67,420,408c0,9.35-.32,18.63-.97,27.82Z"/>
    <path class="cls-4" d="m1241.98,2262.78c0,12.42-9.06,22.73-20.93,24.66-1.33.23-2.69.34-4.07.34-.36,0-.72-.01-1.08-.03-13.31-.56-23.92-11.52-23.92-24.97s11.19-25,25-25,25,11.19,25,25Z"/>
    <polyline class="cls-5" points="604.39 774.27 660.39 560.27 707.39 534.27 937.39 534.27 960.39 534.27 957.39 580.27 944.39 584.27 933.39 640.27 901.39 691.27 847.39 710.27 725.39 707.27 708.39 686.27 679.39 619.27"/>
  </g>
</svg>