<?xml version="1.0" encoding="UTF-8"?>
<svg id="Layer_2" data-name="Layer 2" xmlns="http://www.w3.org/2000/svg" viewBox="0 0 2295 2295">
  <defs>
    <style>
      .cls-1 {
        fill: #3d2b1c;
      }

      .cls-1, .cls-2, .cls-3, .cls-4, .cls-5, .cls-6 {
        stroke-width: 0px;
      }

      .cls-1, .cls-3, .cls-5 {
        fill-rule: evenodd;
      }

      .cls-2 {
        fill: #f5c9d9;
      }

      .cls-3 {
        fill: #4c5127;
      }

      .cls-7 {
        stroke: #68212a;
        stroke-width: 9px;
      }

      .cls-7, .cls-8, .cls-9 {
        fill: none;
        stroke-miterlimit: 10;
      }

      .cls-7, .cls-9 {
        stroke-linecap: round;
      }

      .cls-4 {
        fill: #3d3f1f;
      }

      .cls-8 {
        stroke: #3d3f1f;
        stroke-width: 5px;
      }

      .cls-5 {
        fill: #dbb086;
      }

      .cls-9 {
        stroke: #561a1e;
        stroke-width: 14px;
      }

      .cls-6 {
        fill: #561a1e;
      }
    </style>
  </defs>
  <g id="Layer_1-2" data-name="Layer 1">
    <circle class="cls-2" cx="1147.5" cy="1147.5" r="1147.5"/>
    <path class="cls-1" d="m682.3,924.49c23.55-256.58,232.69-449.03,466.83-452.44,269.8-3.93,454.91,244.88,473.51,445.8,34.49,372.55-344.81,610.16-680.34,463.16-156.66-68.63-250.27-188-260-456.51Z"/>
    <path class="cls-5" d="m1532.67,955.59c0,7.08-.17,14.12-.51,21.11-10.32,216.7-178.7,390.61-384.68,390.61s-374.13-173.73-384.67-390.26c-.35-7.11-.52-14.26-.52-21.46,0-227.27,173.37-412.59,385.19-412.59h.02c.36,0,.7,0,1.06.01h0c212.13.63,384.1,185.69,384.1,412.58Z"/>
    <path class="cls-5" d="m1837.14,2075.2v-.18s.01-278.52.01-278.52c0-1.93-.01-3.85-.05-5.77-.02-1.92-.07-3.84-.13-5.76-.02-.96-.05-1.91-.1-2.87-.03-.96-.07-1.91-.11-2.87-.09-1.91-.19-3.81-.3-5.71-.09-1.53-.19-3.04-.3-4.56-.22-3.03-.47-6.06-.76-9.07s-.62-6.02-.97-9.01c-.27-2.24-.56-4.48-.87-6.72-.3-2.23-.63-4.46-.98-6.68-.7-4.44-1.47-8.85-2.31-13.24-.45-2.34-.93-4.68-1.42-7-.49-2.33-1.01-4.65-1.54-6.96-2.42-10.4-5.26-20.64-8.5-30.7-.72-2.23-1.46-4.46-2.22-6.68-.38-1.11-.77-2.22-1.16-3.32-.72-2.02-1.45-4.04-2.2-6.05s-1.51-4.01-2.29-6.01c-1.18-2.99-2.39-5.96-3.63-8.92-.62-1.48-1.25-2.95-1.9-4.41-1.91-4.4-3.91-8.76-6-13.07-.69-1.44-1.39-2.87-2.1-4.3s-1.43-2.85-2.16-4.27c-2.12-4.13-4.31-8.21-6.57-12.25-3.01-5.38-6.15-10.69-9.42-15.91-.82-1.3-1.64-2.6-2.47-3.9-1.25-1.94-2.51-3.87-3.79-5.79s-2.58-3.82-3.89-5.71c-.88-1.27-1.76-2.52-2.65-3.77-1.78-2.51-3.59-4.99-5.43-7.45-.92-1.23-1.85-2.45-2.78-3.67-1.87-2.43-3.76-4.84-5.69-7.23-1.92-2.39-3.88-4.76-5.85-7.1-43.8-51.81-101.02-91.9-166.11-114.75h-.01c-2.99-1.06-6-2.07-9.03-3.05-14.93-4.82-30.26-8.75-45.92-11.7-21.43-4.05-43.47-6.29-65.96-6.55-1.65-.02-3.3-.03-4.96-.03h-613.95c-1.42,0-2.83,0-4.24.03-.38,0-.77,0-1.15.01h-.18c-1.02.01-2.04.03-3.06.06-.73.01-1.46.03-2.18.06-1.35.03-2.69.07-4.04.13-1.64.06-3.28.14-4.91.22-3.21.16-6.4.37-9.59.61-3.07.24-6.13.51-9.19.82-1.37.14-2.75.28-4.12.44-.84.09-1.68.19-2.52.3-1.09.12-2.18.25-3.27.39l-.93.12c-1.22.16-2.44.32-3.66.5-1.47.2-2.94.42-4.41.64-.66.1-1.32.2-1.98.31-1.51.23-3.02.48-4.53.74-1,.16-2,.34-3,.52-.64.11-1.27.22-1.9.34-.98.18-1.96.36-2.94.55-1.43.27-2.84.55-4.26.85-.59.11-1.19.23-1.78.36-1.24.25-2.47.52-3.7.79-.04.01-.07.01-.1.02-1.26.28-2.53.56-3.78.85-.95.22-1.9.44-2.85.67-.26.06-.53.12-.79.19-1.11.26-2.22.53-3.33.81-.62.15-1.25.31-1.88.48-.77.19-1.53.39-2.29.59-.72.18-1.44.37-2.15.57-.83.22-1.67.45-2.49.68-1.37.37-2.73.75-4.09,1.15-.98.28-1.96.56-2.93.86-.5.14-.99.28-1.48.44-.84.24-1.68.5-2.51.76-.75.23-1.5.46-2.24.7-.6.18-1.2.37-1.79.57-1.02.32-2.04.65-3.05.99-2.01.66-4.01,1.34-6,2.04-.76.26-1.51.52-2.26.79-1.4.5-2.79,1-4.18,1.51-1,.37-2,.75-3,1.13l-1.2.45c-1.38.53-2.75,1.06-4.13,1.61-1.07.42-2.13.85-3.2,1.29-2.07.83-4.14,1.7-6.19,2.57-1.3.55-2.59,1.11-3.87,1.68-5.57,2.45-11.06,5.03-16.48,7.73-1.39.69-2.77,1.39-4.14,2.1-2.57,1.31-5.11,2.66-7.64,4.03-.94.51-1.88,1.02-2.81,1.54-3.1,1.71-6.16,3.46-9.2,5.26-.83.48-1.66.98-2.48,1.48-1.12.66-2.23,1.34-3.33,2.02-.78.48-1.56.96-2.34,1.45-1.76,1.09-3.5,2.2-5.24,3.33-.85.54-1.7,1.09-2.54,1.65-.33.21-.65.43-.97.64-.88.58-1.76,1.17-2.64,1.77-1.07.71-2.12,1.43-3.18,2.17-.89.6-1.77,1.22-2.65,1.84-.4.28-.8.56-1.2.85-.69.47-1.37.96-2.05,1.45-.75.53-1.49,1.07-2.23,1.61-.36.26-.72.52-1.08.79-1.02.75-2.05,1.5-3.06,2.27-.08.05-.17.12-.25.18-.99.74-1.97,1.48-2.94,2.23-1.59,1.21-3.17,2.44-4.74,3.68-.78.61-1.56,1.23-2.33,1.85-.39.31-.77.62-1.16.93-.9.73-1.8,1.46-2.69,2.2-.27.22-.54.44-.81.67-1.08.89-2.15,1.79-3.22,2.7-.97.81-1.93,1.64-2.89,2.47-1.46,1.25-2.92,2.53-4.36,3.81-1.05.93-2.09,1.87-3.13,2.82-1.13,1.03-2.26,2.07-3.38,3.11-.92.86-1.84,1.72-2.75,2.59-2.42,2.29-4.82,4.62-7.18,6.99-2.17,2.16-4.31,4.36-6.43,6.58-3.41,3.58-6.75,7.22-10.02,10.93-.79.89-1.57,1.78-2.35,2.68-1.01,1.16-2,2.32-2.99,3.49-.82.97-1.63,1.94-2.44,2.91-.54.64-1.07,1.29-1.59,1.94-.61.73-1.2,1.46-1.8,2.2-.07.09-.13.17-.2.25-.9,1.12-1.8,2.25-2.68,3.38-.78.98-1.55,1.97-2.31,2.96-.49.63-.98,1.27-1.46,1.91-.54.7-1.07,1.39-1.59,2.09-1.26,1.68-2.51,3.37-3.73,5.07-.55.74-1.09,1.49-1.62,2.24-.27.37-.53.74-.78,1.1-.71.99-1.42,1.99-2.11,3-.13.18-.25.35-.36.52-.62.89-1.23,1.78-1.84,2.68-.4.57-.79,1.15-1.17,1.73-.57.83-1.12,1.67-1.67,2.51-.18.26-.35.51-.51.77-.6.89-1.18,1.79-1.76,2.69-.31.49-.63.98-.94,1.46-.57.89-1.13,1.78-1.69,2.67-.68,1.08-1.35,2.16-2.01,3.24-.46.74-.91,1.48-1.35,2.22-.68,1.12-1.35,2.24-2.01,3.36-.59.99-1.18,1.99-1.76,3-.58,1-1.15,1.99-1.71,2.99-.54.94-1.07,1.89-1.59,2.84-.08.13-.15.25-.22.38-.56,1.02-1.13,2.04-1.68,3.07-.63,1.16-1.25,2.32-1.87,3.49-.72,1.35-1.43,2.71-2.12,4.08-.02.02-.03.04-.03.05-.46.88-.91,1.76-1.34,2.65-.47.91-.92,1.82-1.37,2.73-.59,1.19-1.18,2.39-1.75,3.59-.74,1.52-1.46,3.05-2.16,4.58-.56,1.19-1.11,2.38-1.65,3.58-5.62,12.42-10.59,25.18-14.87,38.25-.44,1.34-.87,2.68-1.29,4.03-.32,1-.63,2-.93,3.01-.23.71-.45,1.42-.66,2.14-.55,1.85-1.09,3.7-1.61,5.56-.37,1.26-.72,2.52-1.06,3.78-.01.04-.02.09-.03.13-.41,1.49-.81,2.98-1.19,4.48-.35,1.34-.69,2.68-1.02,4.03-.32,1.29-.64,2.59-.94,3.9-.19.78-.37,1.57-.55,2.36-.26,1.11-.51,2.22-.74,3.34-.04.14-.07.29-.1.44-.29,1.3-.57,2.61-.84,3.92-.07.33-.14.66-.2.99-.26,1.23-.5,2.46-.73,3.69-.23,1.14-.45,2.28-.65,3.42-.21,1.11-.41,2.22-.6,3.34-.23,1.26-.44,2.52-.65,3.79-.16.97-.32,1.95-.47,2.92-.11.7-.22,1.39-.32,2.09-.12.78-.24,1.55-.34,2.33-.11.72-.22,1.44-.31,2.17-.14.99-.28,1.97-.4,2.96-.08.56-.15,1.11-.22,1.67-.18,1.41-.35,2.82-.51,4.23h0c-.14,1.15-.26,2.29-.38,3.44-.08.7-.15,1.41-.22,2.11-.06.58-.12,1.16-.17,1.74-.1,1.08-.2,2.16-.29,3.24-.13,1.43-.25,2.86-.35,4.29-.1,1.23-.19,2.46-.26,3.7-.03.32-.05.65-.07.97-.07,1.07-.13,2.14-.18,3.22-.13,2.13-.23,4.26-.31,6.4-.06,1.62-.11,3.25-.15,4.87-.09,3.27-.13,6.56-.13,9.85v278.52c194.58,138.51,432.6,219.98,689.65,219.98h.33c174.1-.05,339.47-37.47,488.52-104.69,70.89-31.96,138.09-70.66,200.78-115.29v.18h0Z"/>
    <path class="cls-3" d="m1837.13,1796.5v278.52c-62.69,44.63-129.89,83.33-200.78,115.29-149.05,67.22-314.42,104.64-488.52,104.69h-.33c-257.05,0-495.07-81.47-689.65-219.98v-278.52c0-3.29.04-6.58.13-9.85.04-1.62.09-3.25.15-4.87.08-2.14.18-4.27.31-6.4.05-1.08.11-2.15.18-3.22.02-.32.04-.65.07-.97.07-1.24.16-2.47.26-3.7.1-1.43.22-2.86.35-4.29.09-1.08.19-2.16.29-3.24.05-.58.11-1.16.17-1.74.07-.7.14-1.41.22-2.11.12-1.15.24-2.29.38-3.43h0c.16-1.42.33-2.83.51-4.24.07-.56.14-1.11.22-1.67.12-.99.26-1.97.4-2.96.09-.73.2-1.45.31-2.17.1-.78.22-1.55.34-2.33.1-.7.21-1.39.32-2.09.15-.97.31-1.95.47-2.92.21-1.27.42-2.53.65-3.79.19-1.12.39-2.23.6-3.34.2-1.14.42-2.28.65-3.42.23-1.23.47-2.46.73-3.69.06-.33.13-.66.2-.99.27-1.31.55-2.62.84-3.92.03-.15.06-.3.1-.44.23-1.12.48-2.23.74-3.34.18-.79.36-1.58.55-2.36.3-1.31.62-2.61.94-3.9.33-1.35.67-2.69,1.02-4.03.38-1.5.78-2.99,1.19-4.48,0-.04.02-.09.03-.13.34-1.26.69-2.52,1.06-3.78.52-1.86,1.06-3.71,1.61-5.56.21-.72.43-1.43.66-2.14.3-1.01.61-2.01.93-3.01.42-1.35.85-2.69,1.29-4.03,4.28-13.07,9.25-25.83,14.87-38.25.54-1.2,1.09-2.39,1.65-3.58.7-1.53,1.42-3.06,2.16-4.58.57-1.2,1.16-2.4,1.75-3.59.45-.91.9-1.82,1.37-2.73.43-.89.88-1.77,1.34-2.65,0-.01.01-.03.03-.05.69-1.37,1.4-2.73,2.12-4.08.62-1.17,1.24-2.33,1.87-3.49.55-1.03,1.12-2.05,1.68-3.07.07-.13.14-.25.22-.38.52-.95,1.05-1.9,1.59-2.84.56-1,1.13-1.99,1.71-2.99.58-1.01,1.17-2.01,1.76-3,.66-1.12,1.33-2.24,2.01-3.36.44-.74.89-1.48,1.35-2.22.66-1.08,1.33-2.16,2.01-3.24.56-.89,1.12-1.78,1.69-2.67.31-.48.63-.97.94-1.46.58-.9,1.16-1.8,1.76-2.69.16-.26.33-.51.51-.77.55-.84,1.1-1.68,1.67-2.51.38-.58.77-1.16,1.17-1.73.61-.9,1.22-1.79,1.84-2.68.11-.17.23-.34.36-.52.69-1.01,1.4-2.01,2.11-3,.25-.36.51-.73.78-1.1.53-.75,1.07-1.5,1.62-2.24,1.22-1.7,2.47-3.39,3.73-5.07.52-.7,1.05-1.39,1.59-2.09.48-.64.97-1.28,1.46-1.91.76-.99,1.53-1.98,2.31-2.96.88-1.13,1.78-2.26,2.68-3.38.07-.08.13-.16.2-.25.6-.74,1.19-1.47,1.8-2.2.52-.65,1.05-1.3,1.59-1.94.81-.97,1.62-1.94,2.44-2.91.99-1.17,1.98-2.33,2.99-3.49.78-.9,1.56-1.79,2.35-2.68,3.27-3.71,6.61-7.35,10.02-10.93,2.12-2.22,4.26-4.42,6.43-6.58,2.36-2.37,4.76-4.7,7.18-6.99.91-.87,1.83-1.73,2.75-2.59,1.12-1.04,2.25-2.08,3.38-3.11,1.04-.95,2.08-1.89,3.13-2.82,1.44-1.28,2.9-2.56,4.36-3.81.96-.83,1.92-1.66,2.89-2.47,1.07-.91,2.14-1.81,3.22-2.7.27-.23.54-.45.81-.67.89-.74,1.79-1.47,2.69-2.2.39-.31.77-.62,1.16-.93.77-.62,1.55-1.24,2.33-1.85,1.57-1.24,3.15-2.47,4.74-3.68.97-.75,1.95-1.49,2.94-2.23.08-.06.17-.13.25-.18,1.01-.77,2.04-1.52,3.06-2.27.36-.27.72-.53,1.08-.79.74-.54,1.48-1.08,2.23-1.61.68-.49,1.36-.98,2.05-1.45.4-.29.8-.57,1.2-.85.88-.62,1.76-1.24,2.65-1.84,1.06-.74,2.11-1.46,3.18-2.17.88-.6,1.76-1.19,2.64-1.77.32-.21.64-.43.97-.64.84-.56,1.69-1.11,2.54-1.65,1.74-1.13,3.48-2.24,5.24-3.33.78-.49,1.56-.97,2.34-1.45,1.1-.68,2.21-1.36,3.33-2.02.82-.5,1.65-1,2.48-1.48,3.04-1.8,6.1-3.55,9.2-5.26.93-.52,1.87-1.03,2.81-1.54,2.53-1.37,5.07-2.72,7.64-4.03,1.37-.71,2.75-1.41,4.14-2.1,5.42-2.7,10.91-5.28,16.48-7.73,1.28-.57,2.57-1.13,3.87-1.68,2.05-.87,4.12-1.74,6.19-2.57,1.07-.44,2.13-.87,3.2-1.29,1.38-.55,2.75-1.08,4.13-1.61.4-.15.8-.3,1.2-.45,1-.38,2-.76,3-1.13,1.39-.51,2.78-1.01,4.18-1.51.75-.27,1.5-.53,2.26-.79,1.99-.7,3.99-1.38,6-2.04,1.01-.34,2.03-.67,3.05-.99.59-.2,1.19-.39,1.79-.57.74-.24,1.49-.47,2.24-.7.83-.26,1.67-.52,2.51-.76.49-.16.98-.3,1.48-.44.97-.3,1.95-.58,2.93-.86,1.36-.4,2.72-.78,4.09-1.15.82-.23,1.66-.46,2.49-.68.71-.2,1.43-.39,2.15-.57.76-.2,1.52-.4,2.29-.59.63-.17,1.26-.33,1.88-.48,1.11-.28,2.22-.55,3.33-.81.26-.07.53-.13.79-.19.95-.23,1.9-.45,2.85-.67,1.25-.29,2.52-.57,3.78-.85.03-.01.06-.01.1-.02,1.23-.27,2.46-.54,3.7-.79.59-.13,1.19-.25,1.78-.36,1.42-.3,2.83-.58,4.26-.85.98-.19,1.96-.37,2.94-.55.63-.12,1.26-.23,1.9-.34,1-.18,2-.36,3-.52,1.51-.26,3.02-.51,4.53-.74.66-.11,1.32-.21,1.98-.31,1.47-.22,2.94-.44,4.41-.64,1.22-.18,2.44-.34,3.66-.5.31-.04.62-.08.93-.12,1.09-.14,2.18-.27,3.27-.39.84-.11,1.68-.21,2.52-.3,1.37-.16,2.75-.3,4.12-.44,3.06-.31,6.12-.58,9.19-.82,3.19-.24,6.38-.45,9.59-.61,1.63-.08,3.27-.16,4.91-.22,1.84-.07,3.67-.13,5.52-.17,1.25-.04,2.5-.06,3.76-.08.44-.01.89-.01,1.33-.01,1.41-.02,2.82-.03,4.24-.03h88.71l218,169.1,3.28-2.14h.01l256.53-166.96h47.42c1.66,0,3.31.01,4.96.03,22.49.26,44.53,2.5,65.96,6.55,15.66,2.95,30.99,6.88,45.92,11.7,3.03.98,6.04,1.99,9.03,3.05h.01c65.09,22.85,122.31,62.94,166.11,114.75,1.97,2.34,3.93,4.71,5.85,7.1,1.92,2.39,3.82,4.8,5.69,7.23.93,1.22,1.86,2.44,2.78,3.67,1.83,2.46,3.64,4.94,5.43,7.45.89,1.25,1.77,2.5,2.65,3.77,1.31,1.89,2.61,3.79,3.89,5.71,1.28,1.92,2.54,3.85,3.79,5.79.83,1.3,1.65,2.6,2.47,3.9,3.26,5.22,6.4,10.53,9.42,15.91,2.26,4.04,4.45,8.12,6.57,12.25,5.82,11.34,11.09,23.01,15.79,34.97.78,2,1.54,4,2.29,6.01.75,2.01,1.48,4.03,2.2,6.05.39,1.1.78,2.21,1.16,3.32.76,2.22,1.5,4.45,2.22,6.68,3.24,10.06,6.08,20.3,8.5,30.7.53,2.31,1.05,4.63,1.54,6.96.49,2.32.97,4.66,1.42,7,.84,4.39,1.61,8.8,2.31,13.24.69,4.45,1.31,8.91,1.85,13.4.35,2.99.68,6,.97,9.01.29,3.01.54,6.04.76,9.07.11,1.52.21,3.03.3,4.56.45,7.6.68,15.27.68,22.98Z"/>
    <path class="cls-3" d="m1837.13,1796.5v278.52c-62.69,44.63-129.89,83.33-200.78,115.29-149.05,67.22-314.42,104.64-488.52,104.69h-.33c-257.05,0-495.07-81.47-689.65-219.98v-278.52c0-3.29.04-6.58.13-9.85.04-1.62.09-3.25.15-4.87.08-2.14.18-4.27.31-6.4.05-1.08.11-2.15.18-3.22.02-.32.04-.65.07-.97.07-1.24.16-2.47.26-3.7.1-1.43.22-2.86.35-4.29.09-1.08.19-2.16.29-3.24.05-.58.11-1.16.17-1.74.07-.7.14-1.41.22-2.11.12-1.15.24-2.29.38-3.43h0c.16-1.42.33-2.83.51-4.24.07-.56.14-1.11.22-1.67.12-.99.26-1.97.4-2.96.09-.73.2-1.45.31-2.17.1-.78.22-1.55.34-2.33.1-.7.21-1.39.32-2.09.15-.97.31-1.95.47-2.92.21-1.27.42-2.53.65-3.79.19-1.12.39-2.23.6-3.34.2-1.14.42-2.28.65-3.42.23-1.23.47-2.46.73-3.69.06-.33.13-.66.2-.99.27-1.31.55-2.62.84-3.92.03-.15.06-.3.1-.44.23-1.12.48-2.23.74-3.34.18-.79.36-1.58.55-2.36.3-1.31.62-2.61.94-3.9.33-1.35.67-2.69,1.02-4.03.38-1.5.78-2.99,1.19-4.48,0-.04.02-.09.03-.13.34-1.26.69-2.52,1.06-3.78.52-1.86,1.06-3.71,1.61-5.56.21-.72.43-1.43.66-2.14.3-1.01.61-2.01.93-3.01.42-1.35.85-2.69,1.29-4.03,4.28-13.07,9.25-25.83,14.87-38.25.54-1.2,1.09-2.39,1.65-3.58.7-1.53,1.42-3.06,2.16-4.58.57-1.2,1.16-2.4,1.75-3.59.45-.91.9-1.82,1.37-2.73.43-.89.88-1.77,1.34-2.65,0-.01.01-.03.03-.05.69-1.37,1.4-2.73,2.12-4.08.62-1.17,1.24-2.33,1.87-3.49.55-1.03,1.12-2.05,1.68-3.07.07-.13.14-.25.22-.38.52-.95,1.05-1.9,1.59-2.84.56-1,1.13-1.99,1.71-2.99.58-1.01,1.17-2.01,1.76-3,.66-1.12,1.33-2.24,2.01-3.36.44-.74.89-1.48,1.35-2.22.66-1.08,1.33-2.16,2.01-3.24.56-.89,1.12-1.78,1.69-2.67.31-.48.63-.97.94-1.46.58-.9,1.16-1.8,1.76-2.69.16-.26.33-.51.51-.77.55-.84,1.1-1.68,1.67-2.51.38-.58.77-1.16,1.17-1.73.61-.9,1.22-1.79,1.84-2.68.11-.17.23-.34.36-.52.69-1.01,1.4-2.01,2.11-3,.25-.36.51-.73.78-1.1.53-.75,1.07-1.5,1.62-2.24,1.22-1.7,2.47-3.39,3.73-5.07.52-.7,1.05-1.39,1.59-2.09.48-.64.97-1.28,1.46-1.91.76-.99,1.53-1.98,2.31-2.96.88-1.13,1.78-2.26,2.68-3.38.07-.08.13-.16.2-.25.6-.74,1.19-1.47,1.8-2.2.52-.65,1.05-1.3,1.59-1.94.81-.97,1.62-1.94,2.44-2.91.99-1.17,1.98-2.33,2.99-3.49.78-.9,1.56-1.79,2.35-2.68,3.27-3.71,6.61-7.35,10.02-10.93,2.12-2.22,4.26-4.42,6.43-6.58,2.36-2.37,4.76-4.7,7.18-6.99.91-.87,1.83-1.73,2.75-2.59,1.12-1.04,2.25-2.08,3.38-3.11,1.04-.95,2.08-1.89,3.13-2.82,1.44-1.28,2.9-2.56,4.36-3.81.96-.83,1.92-1.66,2.89-2.47,1.07-.91,2.14-1.81,3.22-2.7.27-.23.54-.45.81-.67.89-.74,1.79-1.47,2.69-2.2.39-.31.77-.62,1.16-.93.77-.62,1.55-1.24,2.33-1.85,1.57-1.24,3.15-2.47,4.74-3.68.97-.75,1.95-1.49,2.94-2.23.08-.06.17-.13.25-.18,1.01-.77,2.04-1.52,3.06-2.27.36-.27.72-.53,1.08-.79.74-.54,1.48-1.08,2.23-1.61.68-.49,1.36-.98,2.05-1.45.4-.29.8-.57,1.2-.85.88-.62,1.76-1.24,2.65-1.84,1.06-.74,2.11-1.46,3.18-2.17.88-.6,1.76-1.19,2.64-1.77.32-.21.64-.43.97-.64.84-.56,1.69-1.11,2.54-1.65,1.74-1.13,3.48-2.24,5.24-3.33.78-.49,1.56-.97,2.34-1.45,1.1-.68,2.21-1.36,3.33-2.02.82-.5,1.65-1,2.48-1.48,3.04-1.8,6.1-3.55,9.2-5.26.93-.52,1.87-1.03,2.81-1.54,2.53-1.37,5.07-2.72,7.64-4.03,1.37-.71,2.75-1.41,4.14-2.1,5.42-2.7,10.91-5.28,16.48-7.73,1.28-.57,2.57-1.13,3.87-1.68,2.05-.87,4.12-1.74,6.19-2.57,1.07-.44,2.13-.87,3.2-1.29,1.38-.55,2.75-1.08,4.13-1.61.4-.15.8-.3,1.2-.45,1-.38,2-.76,3-1.13,1.39-.51,2.78-1.01,4.18-1.51.75-.27,1.5-.53,2.26-.79,1.99-.7,3.99-1.38,6-2.04,1.01-.34,2.03-.67,3.05-.99.59-.2,1.19-.39,1.79-.57.74-.24,1.49-.47,2.24-.7.83-.26,1.67-.52,2.51-.76.49-.16.98-.3,1.48-.44.97-.3,1.95-.58,2.93-.86,1.36-.4,2.72-.78,4.09-1.15.82-.23,1.66-.46,2.49-.68.71-.2,1.43-.39,2.15-.57.76-.2,1.52-.4,2.29-.59.63-.17,1.26-.33,1.88-.48,1.11-.28,2.22-.55,3.33-.81.26-.07.53-.13.79-.19.95-.23,1.9-.45,2.85-.67,1.25-.29,2.52-.57,3.78-.85.03-.01.06-.01.1-.02,1.23-.27,2.46-.54,3.7-.79.59-.13,1.19-.25,1.78-.36,1.42-.3,2.83-.58,4.26-.85.98-.19,1.96-.37,2.94-.55.63-.12,1.26-.23,1.9-.34,1-.18,2-.36,3-.52,1.51-.26,3.02-.51,4.53-.74.66-.11,1.32-.21,1.98-.31,1.47-.22,2.94-.44,4.41-.64,1.22-.18,2.44-.34,3.66-.5.31-.04.62-.08.93-.12,1.09-.14,2.18-.27,3.27-.39.84-.11,1.68-.21,2.52-.3,1.37-.16,2.75-.3,4.12-.44,3.06-.31,6.12-.58,9.19-.82,3.19-.24,6.38-.45,9.59-.61,1.63-.08,3.27-.16,4.91-.22,1.84-.07,3.67-.13,5.52-.17,1.25-.04,2.5-.06,3.76-.08.44-.01.89-.01,1.33-.01,1.41-.02,2.82-.03,4.24-.03h88.71l218,169.1,3.28-2.14h.01l256.53-166.96h47.42c1.66,0,3.31.01,4.96.03,22.49.26,44.53,2.5,65.96,6.55,15.66,2.95,30.99,6.88,45.92,11.7,3.03.98,6.04,1.99,9.03,3.05h.01c65.09,22.85,122.31,62.94,166.11,114.75,1.97,2.34,3.93,4.71,5.85,7.1,1.92,2.39,3.82,4.8,5.69,7.23.93,1.22,1.86,2.44,2.78,3.67,1.83,2.46,3.64,4.94,5.43,7.45.89,1.25,1.77,2.5,2.65,3.77,1.31,1.89,2.61,3.79,3.89,5.71,1.28,1.92,2.54,3.85,3.79,5.79.83,1.3,1.65,2.6,2.47,3.9,3.26,5.22,6.4,10.53,9.42,15.91,2.26,4.04,4.45,8.12,6.57,12.25,5.82,11.34,11.09,23.01,15.79,34.97.78,2,1.54,4,2.29,6.01.75,2.01,1.48,4.03,2.2,6.05.39,1.1.78,2.21,1.16,3.32.76,2.22,1.5,4.45,2.22,6.68,3.24,10.06,6.08,20.3,8.5,30.7.53,2.31,1.05,4.63,1.54,6.96.49,2.32.97,4.66,1.42,7,.84,4.39,1.61,8.8,2.31,13.24.69,4.45,1.31,8.91,1.85,13.4.35,2.99.68,6,.97,9.01.29,3.01.54,6.04.76,9.07.11,1.52.21,3.03.3,4.56.45,7.6.68,15.27.68,22.98Z"/>
    <polyline class="cls-8" points="1148.01 1582.5 1148.01 1582.71 1148.01 1582.86 1147.87 2167 1147.84 2295"/>
    <circle class="cls-4" cx="1218.51" cy="1755" r="25"/>
    <circle class="cls-4" cx="1218.51" cy="2010" r="25"/>
    <circle class="cls-4" cx="1218.51" cy="2265" r="25"/>
    <path class="cls-4" d="m1147.38,1582.79l-113.37,84.71-213.1-253.3c6.54-.34,13.13-.51,19.76-.51h88.71l218,169.1Z"/>
    <path class="cls-4" d="m1147.91,1582.79l113.37,84.71,213.1-253.3c-6.54-.34-13.13-.51-19.76-.51h-88.71l-218,169.1Z"/>
    <path class="cls-6" d="m1591.04,1464.87c-.1-26.46-21.58-47.87-48.06-47.87s-47.95,21.42-48.06,47.87h0v630.13h0c.03,26.52,21.54,48,48.06,48s48.03-21.48,48.06-48h0v-630.13h0Z"/>
    <path class="cls-9" d="m1636.35,2190.31c-17.64-12.09-34.23-27.09-48.7-43.99-4.35-5.08-8.5-10.33-12.44-15.73-8.35-11.43-15.71-23.5-21.82-35.96-1.23-2.51-2.41-5.03-3.53-7.57-2.79-6.28-5.26-12.65-7.36-19.06"/>
    <g>
      <path class="cls-7" d="m1512.51,1454.67c.51,3.71,3.05,17.96,18.67,29.42,16.89,12.4,36.98,12.64,41.33,12.61"/>
      <path class="cls-7" d="m1572.51,1498.01c-.51,3.71-3.05,17.96-18.67,29.42-16.89,12.4-36.98,12.64-41.33,12.61"/>
      <path class="cls-7" d="m1512.51,1540.57c.51,3.71,3.05,17.96,18.67,29.42,16.89,12.4,36.98,12.64,41.33,12.61"/>
      <path class="cls-7" d="m1572.51,1583.92c-.51,3.71-3.05,17.96-18.67,29.42-16.89,12.4-36.98,12.64-41.33,12.61"/>
      <path class="cls-7" d="m1512.51,1625.69c.51,3.71,3.05,17.96,18.67,29.42,16.89,12.4,36.98,12.64,41.33,12.61"/>
      <path class="cls-7" d="m1572.51,1669.04c-.51,3.71-3.05,17.96-18.67,29.42-16.89,12.4-36.98,12.64-41.33,12.61"/>
      <path class="cls-7" d="m1512.51,1711.6c.51,3.71,3.05,17.96,18.67,29.42,16.89,12.4,36.98,12.64,41.33,12.61"/>
      <path class="cls-7" d="m1572.51,1754.94c-.51,3.71-3.05,17.96-18.67,29.42-16.89,12.4-36.98,12.64-41.33,12.61"/>
      <path class="cls-7" d="m1512.51,1796.71c.51,3.71,3.05,17.96,18.67,29.42,16.89,12.4,36.98,12.64,41.33,12.61"/>
      <path class="cls-7" d="m1572.51,1840.06c-.51,3.71-3.05,17.96-18.67,29.42-16.89,12.4-36.98,12.64-41.33,12.61"/>
      <path class="cls-7" d="m1512.51,1882.62c.51,3.71,3.05,17.96,18.67,29.42,16.89,12.4,36.98,12.64,41.33,12.61"/>
      <path class="cls-7" d="m1572.51,1925.97c-.51,3.71-3.05,17.96-18.67,29.42-16.89,12.4-36.98,12.64-41.33,12.61"/>
      <path class="cls-7" d="m1572.51,1454.67c-.51,3.71-3.05,17.96-18.67,29.42-16.89,12.4-36.98,12.64-41.33,12.61"/>
      <path class="cls-7" d="m1512.51,1498.01c.51,3.71,3.05,17.96,18.67,29.42,16.89,12.4,36.98,12.64,41.33,12.61"/>
      <path class="cls-7" d="m1572.51,1540.57c-.51,3.71-3.05,17.96-18.67,29.42-16.89,12.4-36.98,12.64-41.33,12.61"/>
      <path class="cls-7" d="m1512.51,1583.92c.51,3.71,3.05,17.96,18.67,29.42,16.89,12.4,36.98,12.64,41.33,12.61"/>
      <path class="cls-7" d="m1572.51,1625.69c-.51,3.71-3.05,17.96-18.67,29.42-16.89,12.4-36.98,12.64-41.33,12.61"/>
      <path class="cls-7" d="m1512.51,1669.04c.51,3.71,3.05,17.96,18.67,29.42,16.89,12.4,36.98,12.64,41.33,12.61"/>
      <path class="cls-7" d="m1572.51,1711.6c-.51,3.71-3.05,17.96-18.67,29.42-16.89,12.4-36.98,12.64-41.33,12.61"/>
      <path class="cls-7" d="m1512.51,1754.94c.51,3.71,3.05,17.96,18.67,29.42,16.89,12.4,36.98,12.64,41.33,12.61"/>
      <path class="cls-7" d="m1572.51,1796.71c-.51,3.71-3.05,17.96-18.67,29.42-16.89,12.4-36.98,12.64-41.33,12.61"/>
      <path class="cls-7" d="m1512.51,1840.06c.51,3.71,3.05,17.96,18.67,29.42,16.89,12.4,36.98,12.64,41.33,12.61"/>
      <path class="cls-7" d="m1572.51,1882.62c-.51,3.71-3.05,17.96-18.67,29.42-16.89,12.4-36.98,12.64-41.33,12.61"/>
      <path class="cls-7" d="m1512.51,1925.97c.51,3.71,3.05,17.96,18.67,29.42,16.89,12.4,36.98,12.64,41.33,12.61"/>
      <path class="cls-7" d="m1572.51,1969.06c-.51,3.71-3.05,17.96-18.67,29.42-16.89,12.4-36.98,12.64-41.33,12.61"/>
      <path class="cls-7" d="m1512.51,2011.62c.51,3.71,3.05,17.96,18.67,29.42,16.89,12.4,36.98,12.64,41.33,12.61"/>
      <path class="cls-7" d="m1572.51,2054.97c-.51,3.71-3.05,17.96-18.67,29.42-16.89,12.4-36.98,12.64-41.33,12.61"/>
      <path class="cls-7" d="m1512.51,1969.06c.51,3.71,3.05,17.96,18.67,29.42,16.89,12.4,36.98,12.64,41.33,12.61"/>
      <path class="cls-7" d="m1572.51,2011.62c-.51,3.71-3.05,17.96-18.67,29.42-16.89,12.4-36.98,12.64-41.33,12.61"/>
      <path class="cls-7" d="m1512.51,2054.97c.51,3.71,3.05,17.96,18.67,29.42,16.89,12.4,36.98,12.64,41.33,12.61"/>
    </g>
    <path class="cls-1" d="m1575.74,953.19c0,7.35-.19,14.66-.56,21.91-181.67-80.92-281.53-313.14-371.87-427.1-79.93,115.56-275,315-483.54,427.41-.06.02-.12.04-.19.05-.39-7.38-.58-14.8-.58-22.27,0-3.68.05-7.36.15-11.02.09-3.64.23-7.29.42-10.9.09-1.82.2-3.62.31-5.42.11-1.74.24-3.49.36-5.22,16.76-220.78,202.51-395.69,427.14-395.69h.02c.4,0,.78,0,1.18.01h.01c227.15-29.28,411.63,143.43,425.94,395.73.1,1.74.25,3.47.36,5.21.57,9,.86,18.1.86,27.3Z"/>
    <path class="cls-1" d="m878.87,1303c-25.44,17.78-150.25,108.72-165.17,261.13-14.02,143.3,74.6,284.77,226.79,363.87,7.31-76.23,13.18-155.11,17.26-236.52,5.54-110.7,7.32-217.15,6.16-318.92"/>
  </g>
</svg>