<?xml version="1.0" encoding="UTF-8"?>
<svg id="Layer_2" data-name="Layer 2" xmlns="http://www.w3.org/2000/svg" viewBox="0 0 2295 2295">
  <defs>
    <style>
      .cls-1 {
        fill: #e2af81;
      }

      .cls-1, .cls-2, .cls-3, .cls-4, .cls-5, .cls-6, .cls-7 {
        stroke-width: 0px;
      }

      .cls-1, .cls-3, .cls-6 {
        fill-rule: evenodd;
      }

      .cls-2 {
        fill: #f5c9d9;
      }

      .cls-3 {
        fill: #4c5127;
      }

      .cls-8 {
        stroke: #68212a;
        stroke-width: 9px;
      }

      .cls-8, .cls-9, .cls-10 {
        fill: none;
        stroke-miterlimit: 10;
      }

      .cls-8, .cls-10 {
        stroke-linecap: round;
      }

      .cls-4 {
        fill: #3d3f1f;
      }

      .cls-9 {
        stroke: #3d3f1f;
        stroke-width: 5px;
      }

      .cls-5, .cls-6 {
        fill: #492f22;
      }

      .cls-10 {
        stroke: #561a1e;
        stroke-width: 14px;
      }

      .cls-7 {
        fill: #561a1e;
      }
    </style>
  </defs>
  <g id="Layer_1-2" data-name="Layer 1">
    <g>
      <circle class="cls-2" cx="1147.5" cy="1147.5" r="1147.5"/>
      <g>
        <g>
          <ellipse class="cls-5" cx="748.51" cy="1176.5" rx="131" ry="194.5"/>
          <ellipse class="cls-5" cx="771.51" cy="1486.5" rx="131" ry="194.5"/>
          <ellipse class="cls-5" cx="702.51" cy="1703.5" rx="131" ry="194.5"/>
          <ellipse class="cls-5" cx="748.51" cy="1838.5" rx="131" ry="194.5"/>
          <path class="cls-6" d="m808.5,2088.5c0,57.05-16.54,108.36-42.89,143.93-13.14-4.45-26.18-9.12-39.11-14.02-23.61-8.92-46.87-18.58-69.74-28.95-36.55-16.55-72.11-34.9-106.57-54.93-2.41-14.75-3.69-30.17-3.69-46.03,0-80.54,32.97-149.64,79.96-179.19,15.25-9.58,31.98-15,49.54-15.29.5-.02,1-.02,1.5-.02,9.08,0,17.94,1.37,26.5,3.98h.03c7.77,2.37,15.27,5.77,22.47,10.09,33.37,19.99,59.93,59.81,73.04,109.62.49,1.81.95,3.64,1.38,5.48,4.91,20.42,7.58,42.41,7.58,65.33Z"/>
          <path class="cls-6" d="m917.5,2216.5c0,19.19-1.87,37.72-5.36,55.23-50.05-10.03-98.97-23.2-146.53-39.3-13.14-4.45-26.18-9.12-39.11-14.02-23.61-8.92-46.87-18.58-69.74-28.95,5.96-63.7,32.71-117.52,69.74-145.9,5.38-4.13,10.98-7.72,16.77-10.71,13.53-7.03,28.08-10.85,43.23-10.85,1.76,0,3.5.05,5.24.15,3.09.18,6.15.52,9.18,1.02,65.57,10.66,116.58,93.15,116.58,193.33Z"/>
          <path class="cls-6" d="m1589.18,2210.36c-17.03,6.82-34.26,13.25-51.68,19.29-49.08,17.01-99.63,30.9-151.39,41.43,7.05-21.06,16.59-39.96,28.05-55.83,23.41-32.42,54.82-52.25,89.34-52.25,11.76,0,23.16,2.3,34,6.62,11.48,4.56,22.34,11.39,32.34,20.13,6.87,6,13.34,12.91,19.34,20.61Z"/>
          <ellipse class="cls-5" cx="1480.51" cy="2047.5" rx="131" ry="194.5"/>
          <ellipse class="cls-5" cx="1549.51" cy="1830.5" rx="131" ry="194.5"/>
          <ellipse class="cls-5" cx="1503.51" cy="1695.5" rx="131" ry="194.5"/>
          <ellipse class="cls-5" cx="1574.51" cy="1445.5" rx="131" ry="194.5"/>
          <ellipse class="cls-5" cx="1465.51" cy="1317.5" rx="131" ry="194.5"/>
          <ellipse class="cls-5" cx="1549.51" cy="1122.5" rx="131" ry="194.5"/>
          <circle class="cls-5" cx="1143.51" cy="972" r="503"/>
          <path class="cls-6" d="m1537.5,1111v1118.65c-49.08,17.01-99.63,30.9-151.39,41.43-76.99,15.67-156.68,23.9-238.28,23.92h-.33c-80.57,0-159.28-8-235.36-23.27-50.05-10.03-98.97-23.2-146.53-39.3-13.14-4.45-26.18-9.12-39.11-14.02v-1107.41h811Z"/>
        </g>
        <path class="cls-1" d="m1559.2,952.59c0,7.08-.18,14.12-.54,21.11-11.03,216.7-191.01,390.61-411.17,390.61s-399.9-173.73-411.16-390.26c-.37-7.11-.56-14.26-.56-21.46,0-227.27,185.31-412.59,411.72-412.59h.02c.38,0,.75,0,1.13.01h.01c226.74.63,410.55,185.69,410.55,412.58Z"/>
        <path class="cls-1" d="m1837.15,1793.5v281.69s-.01-.17-.01-.17c-61.91,44.07-128.21,82.37-198.13,114.09-16.41,7.46-33.02,14.55-49.82,21.25-17.03,6.82-34.26,13.25-51.68,19.29-49.08,17.01-99.63,30.9-151.39,41.43-76.99,15.67-156.68,23.9-238.28,23.92h-.33c-80.57,0-159.28-8-235.36-23.27-50.05-10.03-98.97-23.2-146.53-39.3-13.14-4.45-26.18-9.12-39.11-14.02-23.61-8.92-46.87-18.58-69.74-28.95-36.55-16.55-72.11-34.9-106.57-54.93-31.74-18.44-62.55-38.31-92.34-59.51v-281.52c0-3.29.04-6.58.13-9.85.04-1.62.09-3.25.15-4.87.08-2.14.18-4.27.31-6.4.05-1.08.11-2.15.18-3.22.02-.32.04-.65.07-.97.07-1.24.16-2.47.26-3.7.1-1.43.22-2.86.35-4.29.09-1.08.19-2.16.29-3.24.05-.58.11-1.16.17-1.74.07-.7.14-1.41.22-2.11.12-1.15.24-2.29.38-3.43h0c.16-1.42.33-2.83.51-4.24.07-.56.14-1.11.22-1.67.12-.99.26-1.97.4-2.96.09-.73.2-1.45.31-2.17.1-.78.22-1.55.34-2.33.1-.7.21-1.39.32-2.09.15-.97.31-1.95.47-2.92.21-1.27.42-2.53.65-3.79.19-1.12.39-2.23.6-3.34.2-1.14.42-2.28.65-3.42.23-1.23.47-2.46.73-3.69.06-.33.13-.66.2-.99.27-1.31.55-2.62.84-3.92.03-.15.06-.3.1-.44.23-1.12.48-2.23.74-3.34.18-.79.36-1.58.55-2.36.3-1.31.62-2.61.94-3.9.33-1.35.67-2.69,1.02-4.03.38-1.5.78-2.99,1.19-4.48.01-.04.02-.09.03-.13.34-1.26.69-2.52,1.06-3.78.52-1.86,1.06-3.71,1.61-5.56.21-.72.43-1.43.66-2.14.3-1.01.61-2.01.93-3.01.42-1.35.85-2.69,1.29-4.03,4.28-13.07,9.25-25.83,14.87-38.25.54-1.2,1.09-2.39,1.65-3.58.7-1.53,1.42-3.06,2.16-4.58.57-1.2,1.16-2.4,1.75-3.59.45-.91.9-1.82,1.37-2.73.43-.89.88-1.77,1.34-2.65,0-.01.01-.03.03-.05.69-1.37,1.4-2.73,2.12-4.08.62-1.17,1.24-2.33,1.87-3.49.55-1.03,1.12-2.05,1.68-3.07.07-.13.14-.25.22-.38.52-.95,1.05-1.9,1.59-2.84.56-1,1.13-1.99,1.71-2.99.58-1.01,1.17-2.01,1.76-3,.66-1.12,1.33-2.24,2.01-3.36.44-.74.89-1.48,1.35-2.22.66-1.08,1.33-2.16,2.01-3.24.56-.89,1.12-1.78,1.69-2.67.31-.48.63-.97.94-1.46.58-.9,1.16-1.8,1.76-2.69.16-.26.33-.51.51-.77.55-.84,1.1-1.68,1.67-2.51.38-.58.77-1.16,1.17-1.73.61-.9,1.22-1.79,1.84-2.68.11-.17.23-.34.36-.52.69-1.01,1.4-2.01,2.11-3,.25-.36.51-.73.78-1.1.53-.75,1.07-1.5,1.62-2.24,1.22-1.7,2.47-3.39,3.73-5.07.52-.7,1.05-1.39,1.59-2.09.48-.64.97-1.28,1.46-1.91.76-.99,1.53-1.98,2.31-2.96.88-1.13,1.78-2.26,2.68-3.38.07-.08.13-.16.2-.25.6-.74,1.19-1.47,1.8-2.2.52-.65,1.05-1.3,1.59-1.94.81-.97,1.62-1.94,2.44-2.91.99-1.17,1.98-2.33,2.99-3.49.78-.9,1.56-1.79,2.35-2.68,3.27-3.71,6.61-7.35,10.02-10.93,2.12-2.22,4.26-4.42,6.43-6.58,2.36-2.37,4.76-4.7,7.18-6.99.91-.87,1.83-1.73,2.75-2.59,1.12-1.04,2.25-2.08,3.38-3.11,1.04-.95,2.08-1.89,3.13-2.82,1.44-1.28,2.9-2.56,4.36-3.81.96-.83,1.92-1.66,2.89-2.47,1.07-.91,2.14-1.81,3.22-2.7.27-.23.54-.45.81-.67.89-.74,1.79-1.47,2.69-2.2.39-.31.77-.62,1.16-.93.77-.62,1.55-1.24,2.33-1.85,1.57-1.24,3.15-2.47,4.74-3.68.97-.75,1.95-1.49,2.94-2.23.08-.06.17-.13.25-.18,1.01-.77,2.04-1.52,3.06-2.27.36-.27.72-.53,1.08-.79.74-.54,1.48-1.08,2.23-1.61.68-.49,1.36-.98,2.05-1.45.4-.29.8-.57,1.2-.85.88-.62,1.76-1.24,2.65-1.84,1.06-.74,2.11-1.46,3.18-2.17.88-.6,1.76-1.19,2.64-1.77.32-.21.64-.43.97-.64.84-.56,1.69-1.11,2.54-1.65,1.74-1.13,3.48-2.24,5.24-3.33.74-.47,1.48-.93,2.23-1.38,1.14-.71,2.29-1.4,3.44-2.09.82-.5,1.65-1,2.48-1.48,3.04-1.8,6.1-3.55,9.2-5.26.93-.52,1.87-1.03,2.81-1.54,2.53-1.37,5.07-2.72,7.64-4.03,1.37-.71,2.75-1.41,4.14-2.1,5.42-2.7,10.91-5.28,16.48-7.73,1.28-.57,2.57-1.13,3.87-1.68,2.05-.87,4.12-1.74,6.19-2.57,1.07-.44,2.13-.87,3.2-1.29,1.38-.55,2.75-1.08,4.13-1.61.4-.15.8-.3,1.2-.45,1-.38,2-.76,3-1.13,1.39-.51,2.78-1.01,4.18-1.51.75-.27,1.5-.53,2.26-.79,1.99-.7,3.99-1.38,6-2.04,1.01-.34,2.03-.67,3.05-.99.59-.2,1.19-.39,1.79-.57.1-.03.19-.06.29-.09h0c.65-.21,1.3-.41,1.95-.61.83-.26,1.67-.52,2.51-.76.49-.16.98-.3,1.48-.44.97-.3,1.95-.58,2.93-.86,1.36-.4,2.72-.78,4.09-1.15.82-.23,1.66-.46,2.49-.68.71-.2,1.43-.39,2.15-.57.76-.2,1.52-.4,2.29-.59.63-.17,1.26-.33,1.88-.48,1.11-.28,2.22-.55,3.33-.81.26-.07.53-.13.79-.19.95-.23,1.9-.45,2.85-.67,1.25-.29,2.52-.57,3.78-.85.03-.01.06-.01.1-.02,1.23-.27,2.46-.54,3.7-.79.59-.13,1.19-.25,1.78-.36,1.42-.3,2.83-.58,4.26-.85.98-.19,1.96-.37,2.94-.55.63-.12,1.26-.23,1.9-.34,1-.18,2-.36,3-.52,1.31-.23,2.62-.44,3.93-.64.86-.15,1.72-.28,2.58-.41,1.47-.22,2.94-.44,4.41-.64,1.22-.18,2.44-.34,3.66-.5.31-.04.62-.08.93-.12,1.09-.14,2.18-.27,3.27-.39.84-.11,1.68-.21,2.52-.3,1.37-.16,2.75-.3,4.12-.44,3.06-.31,6.12-.58,9.19-.82,3.19-.24,6.38-.45,9.59-.61,1.63-.08,3.27-.16,4.91-.22.87-.03,1.74-.06,2.61-.09.44-.02.88-.03,1.32-.04.16-.01.33-.01.5-.01.25-.01.49-.02.75-.02,1.42-.04,2.85-.07,4.28-.09.38-.01.77-.01,1.15-.01,1.41-.02,2.82-.03,4.24-.03h613.95c1.66,0,3.31.01,4.96.03,22.49.26,44.53,2.5,65.96,6.55,4.01.75,8,1.57,11.97,2.47,10.43,2.31,20.7,5.06,30.8,8.22,1.46.46,2.92.93,4.38,1.4.02.01.05.02.07.03,2.59.85,5.17,1.72,7.73,2.63h.01c44.09,15.47,84.56,38.86,119.7,68.45,16.74,14.08,32.27,29.58,46.41,46.3,1.97,2.34,3.93,4.71,5.85,7.1,1.93,2.39,3.82,4.8,5.69,7.23.93,1.22,1.86,2.44,2.78,3.67,1.84,2.46,3.65,4.94,5.43,7.45.89,1.25,1.77,2.5,2.65,3.77,1.31,1.89,2.61,3.79,3.89,5.71,1.28,1.92,2.54,3.85,3.79,5.79.83,1.3,1.65,2.6,2.47,3.9,3.27,5.22,6.41,10.53,9.42,15.91,2.26,4.04,4.45,8.12,6.57,12.25,1.45,2.83,2.88,5.69,4.26,8.57.69,1.43,1.38,2.88,2.05,4.32.68,1.45,1.35,2.9,2,4.36.66,1.46,1.31,2.92,1.95,4.39.64,1.47,1.28,2.94,1.9,4.41,1.24,2.96,2.45,5.93,3.63,8.92.78,2,1.54,4,2.29,6.01s1.48,4.03,2.2,6.05c.39,1.1.78,2.21,1.16,3.32.76,2.22,1.5,4.45,2.22,6.68,3.24,10.06,6.08,20.3,8.5,30.7.53,2.31,1.05,4.63,1.54,6.96.49,2.32.97,4.66,1.42,7,.84,4.39,1.61,8.8,2.31,13.24.35,2.22.68,4.45.98,6.68.31,2.24.6,4.48.87,6.72.35,2.99.68,6,.97,9.01.29,3.01.54,6.04.76,9.07.11,1.52.21,3.03.3,4.56.11,1.9.21,3.8.3,5.71.04.96.08,1.91.11,2.87.04.95.07,1.91.1,2.87.06,1.91.1,3.83.13,5.76.04,1.92.05,3.84.05,5.77Z"/>
        <path class="cls-3" d="m1837.13,1793.5v281.52c-61.91,44.07-128.21,82.37-198.13,114.09-16.41,7.46-33.02,14.55-49.82,21.25-17.03,6.82-34.26,13.25-51.68,19.29-49.08,17.01-99.63,30.9-151.39,41.43-76.99,15.67-156.68,23.9-238.28,23.92h-.33c-80.57,0-159.28-8-235.36-23.27-50.05-10.03-98.97-23.2-146.53-39.3-13.14-4.45-26.18-9.12-39.11-14.02-23.61-8.92-46.87-18.58-69.74-28.95-36.55-16.55-72.11-34.9-106.57-54.93-31.74-18.44-62.55-38.31-92.34-59.51v-281.52c0-3.29.04-6.58.13-9.85.04-1.62.09-3.25.15-4.87.08-2.14.18-4.27.31-6.4.05-1.08.11-2.15.18-3.22.02-.32.04-.65.07-.97.07-1.24.16-2.47.26-3.7.1-1.43.22-2.86.35-4.29.09-1.08.19-2.16.29-3.24.05-.58.11-1.16.17-1.74.07-.7.14-1.41.22-2.11.12-1.15.24-2.29.38-3.43h0c.16-1.42.33-2.83.51-4.24.07-.56.14-1.11.22-1.67.12-.99.26-1.97.4-2.96.09-.73.2-1.45.31-2.17.1-.78.22-1.55.34-2.33.1-.7.21-1.39.32-2.09.15-.97.31-1.95.47-2.92.21-1.27.42-2.53.65-3.79.19-1.12.39-2.23.6-3.34.2-1.14.42-2.28.65-3.42.23-1.23.47-2.46.73-3.69.06-.33.13-.66.2-.99.27-1.31.55-2.62.84-3.92.03-.15.06-.3.1-.44.23-1.12.48-2.23.74-3.34.18-.79.36-1.58.55-2.36.3-1.31.62-2.61.94-3.9.33-1.35.67-2.69,1.02-4.03.38-1.5.78-2.99,1.19-4.48.01-.04.02-.09.03-.13.34-1.26.69-2.52,1.06-3.78.52-1.86,1.06-3.71,1.61-5.56.21-.72.43-1.43.66-2.14.3-1.01.61-2.01.93-3.01.42-1.35.85-2.69,1.29-4.03,4.28-13.07,9.25-25.83,14.87-38.25.54-1.2,1.09-2.39,1.65-3.58.7-1.53,1.42-3.06,2.16-4.58.57-1.2,1.16-2.4,1.75-3.59.45-.91.9-1.82,1.37-2.73.43-.89.88-1.77,1.34-2.65,0-.01.01-.03.03-.05.69-1.37,1.4-2.73,2.12-4.08.62-1.17,1.24-2.33,1.87-3.49.55-1.03,1.12-2.05,1.68-3.07.07-.13.14-.25.22-.38.52-.95,1.05-1.9,1.59-2.84.56-1,1.13-1.99,1.71-2.99.58-1.01,1.17-2.01,1.76-3,.66-1.12,1.33-2.24,2.01-3.36.44-.74.89-1.48,1.35-2.22.66-1.08,1.33-2.16,2.01-3.24.56-.89,1.12-1.78,1.69-2.67.31-.48.63-.97.94-1.46.58-.9,1.16-1.8,1.76-2.69.16-.26.33-.51.51-.77.55-.84,1.1-1.68,1.67-2.51.38-.58.77-1.16,1.17-1.73.61-.9,1.22-1.79,1.84-2.68.11-.17.23-.34.36-.52.69-1.01,1.4-2.01,2.11-3,.25-.36.51-.73.78-1.1.53-.75,1.07-1.5,1.62-2.24,1.22-1.7,2.47-3.39,3.73-5.07.52-.7,1.05-1.39,1.59-2.09.48-.64.97-1.28,1.46-1.91.76-.99,1.53-1.98,2.31-2.96.88-1.13,1.78-2.26,2.68-3.38.07-.08.13-.16.2-.25.6-.74,1.19-1.47,1.8-2.2.52-.65,1.05-1.3,1.59-1.94.81-.97,1.62-1.94,2.44-2.91.99-1.17,1.98-2.33,2.99-3.49.78-.9,1.56-1.79,2.35-2.68,3.27-3.71,6.61-7.35,10.02-10.93,2.12-2.22,4.26-4.42,6.43-6.58,2.36-2.37,4.76-4.7,7.18-6.99.91-.87,1.83-1.73,2.75-2.59,1.12-1.04,2.25-2.08,3.38-3.11,1.04-.95,2.08-1.89,3.13-2.82,1.44-1.28,2.9-2.56,4.36-3.81.96-.83,1.92-1.66,2.89-2.47,1.07-.91,2.14-1.81,3.22-2.7.27-.23.54-.45.81-.67.89-.74,1.79-1.47,2.69-2.2.39-.31.77-.62,1.16-.93.77-.62,1.55-1.24,2.33-1.85,1.57-1.24,3.15-2.47,4.74-3.68.97-.75,1.95-1.49,2.94-2.23.08-.06.17-.13.25-.18,1.01-.77,2.04-1.52,3.06-2.27.36-.27.72-.53,1.08-.79.74-.54,1.48-1.08,2.23-1.61.68-.49,1.36-.98,2.05-1.45.4-.29.8-.57,1.2-.85.88-.62,1.76-1.24,2.65-1.84,1.06-.74,2.11-1.46,3.18-2.17.88-.6,1.76-1.19,2.64-1.77.32-.21.64-.43.97-.64.84-.56,1.69-1.11,2.54-1.65,1.74-1.13,3.48-2.24,5.24-3.33.74-.47,1.48-.93,2.23-1.38,1.14-.71,2.29-1.4,3.44-2.09.82-.5,1.65-1,2.48-1.48,3.04-1.8,6.1-3.55,9.2-5.26.93-.52,1.87-1.03,2.81-1.54,2.53-1.37,5.07-2.72,7.64-4.03,1.37-.71,2.75-1.41,4.14-2.1,5.42-2.7,10.91-5.28,16.48-7.73,1.28-.57,2.57-1.13,3.87-1.68,2.05-.87,4.12-1.74,6.19-2.57,1.07-.44,2.13-.87,3.2-1.29,1.38-.55,2.75-1.08,4.13-1.61.4-.15.8-.3,1.2-.45,1-.38,2-.76,3-1.13,1.39-.51,2.78-1.01,4.18-1.51.75-.27,1.5-.53,2.26-.79,1.99-.7,3.99-1.38,6-2.04,1.01-.34,2.03-.67,3.05-.99.59-.2,1.19-.39,1.79-.57.1-.03.19-.06.29-.09.65-.21,1.3-.41,1.95-.61.83-.26,1.67-.52,2.51-.76.49-.16.98-.3,1.48-.44.97-.3,1.95-.58,2.93-.86,1.36-.4,2.72-.78,4.09-1.15.82-.23,1.66-.46,2.49-.68.71-.2,1.43-.39,2.15-.57.76-.2,1.52-.4,2.29-.59.63-.17,1.26-.33,1.88-.48,1.11-.28,2.22-.55,3.33-.81.26-.07.53-.13.79-.19.95-.23,1.9-.45,2.85-.67,1.25-.29,2.52-.57,3.78-.85.03-.01.06-.01.1-.02,1.23-.27,2.46-.54,3.7-.79.59-.13,1.19-.25,1.78-.36,1.42-.3,2.83-.58,4.26-.85.98-.19,1.96-.37,2.94-.55.63-.12,1.26-.23,1.9-.34,1-.18,2-.36,3-.52,1.31-.23,2.62-.44,3.93-.64.86-.15,1.72-.28,2.58-.41,1.47-.22,2.94-.44,4.41-.64,1.22-.18,2.44-.34,3.66-.5.31-.04.62-.08.93-.12,1.09-.14,2.18-.27,3.27-.39.84-.11,1.68-.21,2.52-.3,1.37-.16,2.75-.3,4.12-.44,3.06-.31,6.12-.58,9.19-.82,3.19-.24,6.38-.45,9.59-.61,1.63-.08,3.27-.16,4.91-.22.87-.03,1.74-.06,2.61-.09.44-.02.88-.03,1.32-.04.16-.01.33-.01.5-.01.25-.01.49-.02.75-.02,1.42-.04,2.85-.07,4.28-.09.38-.01.77-.01,1.15-.01,1.41-.02,2.82-.03,4.24-.03h88.71l45.61,35.38,172.39,133.72,3.28-2.14h0l212.67-138.41,43.86-28.55h47.42c1.66,0,3.31.01,4.96.03,22.49.26,44.53,2.5,65.96,6.55,4.01.75,8,1.57,11.97,2.47,10.43,2.31,20.7,5.06,30.8,8.22,1.46.46,2.92.93,4.37,1.41.03,0,.06,0,.08.02,2.59.85,5.17,1.72,7.73,2.63h.01c44.09,15.47,84.56,38.86,119.7,68.45,16.74,14.08,32.27,29.58,46.41,46.3,1.97,2.34,3.93,4.71,5.85,7.1,1.92,2.39,3.82,4.8,5.69,7.23.93,1.22,1.86,2.44,2.78,3.67,1.83,2.46,3.64,4.94,5.43,7.45.89,1.25,1.77,2.5,2.65,3.77,1.31,1.89,2.61,3.79,3.89,5.71,1.28,1.92,2.54,3.85,3.79,5.79.83,1.3,1.65,2.6,2.47,3.9,3.26,5.22,6.4,10.53,9.42,15.91,2.26,4.04,4.45,8.12,6.57,12.25,1.45,2.83,2.88,5.69,4.26,8.57.69,1.43,1.38,2.88,2.05,4.32.68,1.45,1.35,2.9,2,4.36.66,1.46,1.31,2.92,1.95,4.39.64,1.47,1.28,2.94,1.9,4.41,1.24,2.96,2.45,5.93,3.63,8.92.78,2,1.54,4,2.29,6.01s1.48,4.03,2.2,6.05c.39,1.1.78,2.21,1.16,3.32.76,2.22,1.5,4.45,2.22,6.68,3.24,10.06,6.08,20.3,8.5,30.7.53,2.31,1.05,4.63,1.54,6.96.49,2.32.97,4.66,1.42,7,.84,4.39,1.61,8.8,2.31,13.24.34,2.22.67,4.45.98,6.68.31,2.24.6,4.48.87,6.72.35,2.99.68,6,.97,9.01.29,3.01.54,6.04.76,9.07.11,1.52.21,3.03.3,4.56.11,1.9.21,3.8.3,5.71.04.96.08,1.91.11,2.87.04.95.07,1.91.1,2.87.06,1.91.1,3.83.13,5.76.03,1.92.04,3.84.04,5.77Z"/>
        <polyline class="cls-9" points="1147.83 2295 1148 1579.86 1148 1579.71 1148 1579.5"/>
        <circle class="cls-4" cx="1218.51" cy="1752" r="25"/>
        <circle class="cls-4" cx="1218.51" cy="2007" r="25"/>
        <circle class="cls-4" cx="1218.51" cy="2262" r="25"/>
        <path class="cls-4" d="m1147.38,1579.79l-113.37,84.71-213.1-253.3c6.54-.34,13.13-.51,19.76-.51h88.71l218,169.1Z"/>
        <path class="cls-4" d="m1147.91,1579.79l113.37,84.71,213.1-253.3c-6.54-.34-13.13-.51-19.76-.51h-88.71l-218,169.1Z"/>
        <path class="cls-7" d="m1591.04,1461.87c-.1-26.46-21.58-47.87-48.06-47.87s-47.95,21.42-48.06,47.87h0v630.13h0c.03,26.52,21.54,48,48.06,48s48.03-21.48,48.06-48h0v-630.13h0Z"/>
        <path class="cls-10" d="m1542.5,2065c2.1,6.41,4.57,12.78,7.36,19.06,1.12,2.54,2.3,5.06,3.53,7.57,6.11,12.45,13.47,24.52,21.82,35.95,5.34,7.33,11.09,14.39,17.19,21.12,14.04,15.53,29.87,29.29,46.6,40.41"/>
        <g>
          <path class="cls-8" d="m1512.51,1451.67c.51,3.71,3.05,17.96,18.67,29.42,16.89,12.4,36.98,12.64,41.33,12.61"/>
          <path class="cls-8" d="m1572.51,1495.01c-.51,3.71-3.05,17.96-18.67,29.42-16.89,12.4-36.98,12.64-41.33,12.61"/>
          <path class="cls-8" d="m1512.51,1537.57c.51,3.71,3.05,17.96,18.67,29.42,16.89,12.4,36.98,12.64,41.33,12.61"/>
          <path class="cls-8" d="m1572.51,1580.92c-.51,3.71-3.05,17.96-18.67,29.42-16.89,12.4-36.98,12.64-41.33,12.61"/>
          <path class="cls-8" d="m1512.51,1622.69c.51,3.71,3.05,17.96,18.67,29.42,16.89,12.4,36.98,12.64,41.33,12.61"/>
          <path class="cls-8" d="m1572.51,1666.04c-.51,3.71-3.05,17.96-18.67,29.42-16.89,12.4-36.98,12.64-41.33,12.61"/>
          <path class="cls-8" d="m1512.51,1708.6c.51,3.71,3.05,17.96,18.67,29.42,16.89,12.4,36.98,12.64,41.33,12.61"/>
          <path class="cls-8" d="m1572.51,1751.94c-.51,3.71-3.05,17.96-18.67,29.42-16.89,12.4-36.98,12.64-41.33,12.61"/>
          <path class="cls-8" d="m1512.51,1793.71c.51,3.71,3.05,17.96,18.67,29.42,16.89,12.4,36.98,12.64,41.33,12.61"/>
          <path class="cls-8" d="m1572.51,1837.06c-.51,3.71-3.05,17.96-18.67,29.42-16.89,12.4-36.98,12.64-41.33,12.61"/>
          <path class="cls-8" d="m1512.51,1879.62c.51,3.71,3.05,17.96,18.67,29.42,16.89,12.4,36.98,12.64,41.33,12.61"/>
          <path class="cls-8" d="m1572.51,1922.97c-.51,3.71-3.05,17.96-18.67,29.42-16.89,12.4-36.98,12.64-41.33,12.61"/>
          <path class="cls-8" d="m1572.51,1451.67c-.51,3.71-3.05,17.96-18.67,29.42-16.89,12.4-36.98,12.64-41.33,12.61"/>
          <path class="cls-8" d="m1512.51,1495.01c.51,3.71,3.05,17.96,18.67,29.42,16.89,12.4,36.98,12.64,41.33,12.61"/>
          <path class="cls-8" d="m1572.51,1537.57c-.51,3.71-3.05,17.96-18.67,29.42-16.89,12.4-36.98,12.64-41.33,12.61"/>
          <path class="cls-8" d="m1512.51,1580.92c.51,3.71,3.05,17.96,18.67,29.42,16.89,12.4,36.98,12.64,41.33,12.61"/>
          <path class="cls-8" d="m1572.51,1622.69c-.51,3.71-3.05,17.96-18.67,29.42-16.89,12.4-36.98,12.64-41.33,12.61"/>
          <path class="cls-8" d="m1512.51,1666.04c.51,3.71,3.05,17.96,18.67,29.42,16.89,12.4,36.98,12.64,41.33,12.61"/>
          <path class="cls-8" d="m1572.51,1708.6c-.51,3.71-3.05,17.96-18.67,29.42-16.89,12.4-36.98,12.64-41.33,12.61"/>
          <path class="cls-8" d="m1512.51,1751.94c.51,3.71,3.05,17.96,18.67,29.42,16.89,12.4,36.98,12.64,41.33,12.61"/>
          <path class="cls-8" d="m1572.51,1793.71c-.51,3.71-3.05,17.96-18.67,29.42-16.89,12.4-36.98,12.64-41.33,12.61"/>
          <path class="cls-8" d="m1512.51,1837.06c.51,3.71,3.05,17.96,18.67,29.42,16.89,12.4,36.98,12.64,41.33,12.61"/>
          <path class="cls-8" d="m1572.51,1879.62c-.51,3.71-3.05,17.96-18.67,29.42-16.89,12.4-36.98,12.64-41.33,12.61"/>
          <path class="cls-8" d="m1512.51,1922.97c.51,3.71,3.05,17.96,18.67,29.42,16.89,12.4,36.98,12.64,41.33,12.61"/>
          <path class="cls-8" d="m1572.51,1966.06c-.51,3.71-3.05,17.96-18.67,29.42-16.89,12.4-36.98,12.64-41.33,12.61"/>
          <path class="cls-8" d="m1512.51,2008.62c.51,3.71,3.05,17.96,18.67,29.42,16.89,12.4,36.98,12.64,41.33,12.61"/>
          <path class="cls-8" d="m1572.51,2051.97c-.51,3.71-3.05,17.96-18.67,29.42-16.89,12.4-36.98,12.64-41.33,12.61"/>
          <path class="cls-8" d="m1512.51,1966.06c.51,3.71,3.05,17.96,18.67,29.42,16.89,12.4,36.98,12.64,41.33,12.61"/>
          <path class="cls-8" d="m1572.51,2008.62c-.51,3.71-3.05,17.96-18.67,29.42-16.89,12.4-36.98,12.64-41.33,12.61"/>
          <path class="cls-8" d="m1512.51,2051.97c.51,3.71,3.05,17.96,18.67,29.42,16.89,12.4,36.98,12.64,41.33,12.61"/>
        </g>
        <path class="cls-6" d="m1565.95,938.11c-173.64-96.98-218.14-226.08-317.09-329.64-24.91,23.8-234.7,4.09-275.83,42.11-139.69,129.13-274.59,290.29-274.51,287.41.1-3.7-.17-9.17.02-12.84.1-1.85.2-3.68.32-5.51.12-1.77.24-3.54.37-5.31,16.99-224.37,205.3-402.11,433.03-402.11h.02c.4,0,.79,0,1.19.01h.01c228.06.64,414.94,178.16,431.8,402.15.14,1.76.25,3.52.37,5.3.58,9.15.69,11.05.31,18.42Z"/>
        <ellipse class="cls-5" cx="979.23" cy="655.75" rx="121.6" ry="79.91" transform="translate(-196.68 577.47) rotate(-30)"/>
        <ellipse class="cls-5" cx="853.28" cy="781.15" rx="133.51" ry="87.73" transform="translate(-303.54 787.32) rotate(-42.78)"/>
        <ellipse class="cls-5" cx="755.95" cy="925" rx="83.7" ry="55" transform="translate(-432.66 805.47) rotate(-45)"/>
        <ellipse class="cls-5" cx="1476.18" cy="805.17" rx="84.7" ry="174.92" transform="translate(-161.65 1185.85) rotate(-41.69)"/>
        <ellipse class="cls-5" cx="1314.14" cy="663.82" rx="79.23" ry="120.47" transform="translate(-48.58 1221.15) rotate(-49.04)"/>
      </g>
    </g>
  </g>
</svg>