<?xml version="1.0" encoding="UTF-8"?>
<svg id="Layer_2" data-name="Layer 2" xmlns="http://www.w3.org/2000/svg" viewBox="0 0 2295 2295">
  <defs>
    <style>
      .cls-1 {
        fill: #dbb485;
      }

      .cls-1, .cls-2, .cls-3, .cls-4, .cls-5, .cls-6, .cls-7 {
        stroke-width: 0px;
      }

      .cls-1, .cls-3, .cls-5 {
        fill-rule: evenodd;
      }

      .cls-2 {
        fill: #f5c9d9;
      }

      .cls-3 {
        fill: #4c5127;
      }

      .cls-4 {
        fill: #3d3f1f;
      }

      .cls-8 {
        stroke: #561a1e;
        stroke-width: 5.56px;
      }

      .cls-8, .cls-9 {
        stroke-linecap: round;
      }

      .cls-8, .cls-9, .cls-10, .cls-11 {
        fill: none;
        stroke-miterlimit: 10;
      }

      .cls-9 {
        stroke: #68212a;
        stroke-width: 3.57px;
      }

      .cls-5, .cls-6 {
        fill: #5c3400;
      }

      .cls-10 {
        stroke: #000;
        stroke-width: 4.44px;
      }

      .cls-11 {
        stroke: #3d3f1f;
        stroke-width: 1.99px;
      }

      .cls-7 {
        fill: #561a1e;
      }
    </style>
  </defs>
  <g id="Layer_1-2" data-name="Layer 1">
    <g>
      <circle class="cls-2" cx="1147.5" cy="1147.5" r="1147.5"/>
      <g>
        <path class="cls-6" d="m1294.88,599.17c0,50.86-25.11,95.86-63.62,123.27h0c-7.86,5.6-16.29,10.46-25.17,14.49-.04.02-.08.04-.12.05-1.99.9-4,1.76-6.03,2.58-.06.02-.11.05-.17.07-2.16.87-4.35,1.68-6.56,2.45-6.23,2.16-12.65,3.92-19.23,5.26-9.78,1.99-19.9,3.04-30.27,3.04h-.04c-10.23,0-20.23-1.02-29.9-2.96-6.36-1.27-12.57-2.95-18.61-4.99-1.67-.57-3.33-1.16-4.97-1.78-.85-.32-1.7-.65-2.54-.99-2.13-.85-4.24-1.75-6.32-2.69-4.64-2.1-9.16-4.43-13.54-6.98-4.03-2.34-7.94-4.87-11.73-7.56,0,0,0,0,0,0-38.5-27.41-63.62-72.41-63.62-123.27,0-83.51,67.7-151.22,151.22-151.22s151.22,67.7,151.22,151.22Z"/>
        <g>
          <path class="cls-1" d="m1557.07,962.5c0,7.04-.18,14.05-.54,21-10.97,215.58-190.02,388.59-409.05,388.59s-397.84-172.83-409.04-388.25c-.37-7.07-.56-14.19-.56-21.35,0-226.1,184.35-410.46,409.59-410.46h.02c.38,0,.75,0,1.12,0h.01c225.57.63,408.43,184.73,408.43,410.45Z"/>
          <path class="cls-1" d="m1833.58,2076.33v-.18s0-277.08,0-277.08c0-1.92,0-3.83-.05-5.74-.02-1.91-.07-3.82-.13-5.73-.02-.96-.05-1.9-.1-2.86-.03-.96-.07-1.9-.11-2.86-.09-1.9-.19-3.79-.3-5.68-.09-1.52-.19-3.02-.3-4.54-.22-3.01-.47-6.03-.76-9.02-.29-2.99-.62-5.99-.96-8.96-.27-2.23-.56-4.46-.87-6.69-.3-2.22-.63-4.44-.97-6.65-.7-4.42-1.46-8.8-2.3-13.17-.45-2.33-.93-4.66-1.41-6.96-.49-2.32-1-4.63-1.53-6.92-2.41-10.35-5.23-20.53-8.46-30.54-.72-2.22-1.45-4.44-2.21-6.65-.38-1.1-.77-2.21-1.15-3.3-.72-2.01-1.44-4.02-2.19-6.02s-1.5-3.99-2.28-5.98c-1.17-2.97-2.38-5.93-3.61-8.87-.62-1.47-1.24-2.93-1.89-4.39-1.9-4.38-3.89-8.71-5.97-13-.69-1.43-1.38-2.86-2.09-4.28s-1.42-2.84-2.15-4.25c-2.11-4.11-4.29-8.17-6.54-12.19-2.99-5.35-6.12-10.63-9.37-15.83-.82-1.29-1.63-2.59-2.46-3.88-1.24-1.93-2.5-3.85-3.77-5.76s-2.57-3.8-3.87-5.68c-.88-1.26-1.75-2.51-2.64-3.75-1.77-2.5-3.57-4.96-5.4-7.41-.92-1.22-1.84-2.44-2.77-3.65-1.86-2.42-3.74-4.82-5.66-7.19-1.91-2.38-3.86-4.74-5.82-7.06-43.57-51.54-100.5-91.43-165.25-114.16h0c-2.97-1.05-5.97-2.06-8.98-3.03-14.85-4.8-30.1-8.7-45.68-11.64-21.32-4.03-43.25-6.26-65.62-6.52-1.64-.02-3.28-.03-4.93-.03h-610.78c-1.41,0-2.82,0-4.22.03-.38,0-.77,0-1.14,0h-.18c-1.01,0-2.03.03-3.04.06-.73,0-1.45.03-2.17.06-1.34.03-2.68.07-4.02.13-1.63.06-3.26.14-4.88.22-3.19.16-6.37.37-9.54.61-3.05.24-6.1.51-9.14.82-1.36.14-2.74.28-4.1.44-.84.09-1.67.19-2.51.3-1.08.12-2.17.25-3.25.39l-.93.12c-1.21.16-2.43.32-3.64.5-1.46.2-2.92.42-4.39.64-.66.1-1.31.2-1.97.31-1.5.23-3,.48-4.51.74-.99.16-1.99.34-2.98.52-.64.11-1.26.22-1.89.34-.97.18-1.95.36-2.92.55-1.42.27-2.83.55-4.24.85-.59.11-1.18.23-1.77.36-1.23.25-2.46.52-3.68.79-.04,0-.07,0-.1.02-1.25.28-2.52.56-3.76.85-.95.22-1.89.44-2.84.67-.26.06-.53.12-.79.19-1.1.26-2.21.53-3.31.81-.62.15-1.24.31-1.87.48-.77.19-1.52.39-2.28.59-.72.18-1.43.37-2.14.57-.83.22-1.66.45-2.48.68-1.36.37-2.72.75-4.07,1.14-.97.28-1.95.56-2.91.86-.5.14-.98.28-1.47.44-.84.24-1.67.5-2.5.76-.75.23-1.49.46-2.23.7-.6.18-1.19.37-1.78.57-1.01.32-2.03.65-3.03.98-2,.66-3.99,1.33-5.97,2.03-.76.26-1.5.52-2.25.79-1.39.5-2.78.99-4.16,1.5-.99.37-1.99.75-2.98,1.12l-1.19.45c-1.37.53-2.74,1.05-4.11,1.6-1.06.42-2.12.85-3.18,1.28-2.06.83-4.12,1.69-6.16,2.56-1.29.55-2.58,1.1-3.85,1.67-5.54,2.44-11,5-16.39,7.69-1.38.69-2.76,1.38-4.12,2.09-2.56,1.3-5.08,2.65-7.6,4.01-.94.51-1.87,1.01-2.8,1.53-3.08,1.7-6.13,3.44-9.15,5.23-.83.48-1.65.97-2.47,1.47-1.11.66-2.22,1.33-3.31,2.01-.78.48-1.55.96-2.33,1.44-1.75,1.08-3.48,2.19-5.21,3.31-.85.54-1.69,1.08-2.53,1.64-.33.21-.65.43-.96.64-.88.58-1.75,1.16-2.63,1.76-1.06.71-2.11,1.42-3.16,2.16-.89.6-1.76,1.21-2.64,1.83-.4.28-.8.56-1.19.85-.69.47-1.36.96-2.04,1.44-.75.53-1.48,1.06-2.22,1.6-.36.26-.72.52-1.07.79-1.01.75-2.04,1.49-3.04,2.26-.08.05-.17.12-.25.18-.98.74-1.96,1.47-2.92,2.22-1.58,1.2-3.15,2.43-4.72,3.66-.78.61-1.55,1.22-2.32,1.84-.39.31-.77.62-1.15.93-.9.73-1.79,1.45-2.68,2.19-.27.22-.54.44-.81.67-1.07.89-2.14,1.78-3.2,2.69-.96.81-1.92,1.63-2.88,2.46-1.45,1.24-2.9,2.52-4.34,3.79-1.04.93-2.08,1.86-3.11,2.81-1.12,1.02-2.25,2.06-3.36,3.09-.92.86-1.83,1.71-2.74,2.58-2.41,2.28-4.8,4.6-7.14,6.95-2.16,2.15-4.29,4.34-6.4,6.55-3.39,3.56-6.72,7.18-9.97,10.87-.79.89-1.56,1.77-2.34,2.67-1,1.15-1.99,2.31-2.97,3.47-.82.96-1.62,1.93-2.43,2.89-.54.64-1.06,1.28-1.58,1.93-.61.73-1.19,1.45-1.79,2.19-.07.09-.13.17-.2.25-.9,1.11-1.79,2.24-2.67,3.36-.78.97-1.54,1.96-2.3,2.94-.49.63-.97,1.26-1.45,1.9-.54.7-1.06,1.38-1.58,2.08-1.25,1.67-2.5,3.35-3.71,5.04-.55.74-1.08,1.48-1.61,2.23-.27.37-.53.74-.78,1.09-.71.98-1.41,1.98-2.1,2.98-.13.18-.25.35-.36.52-.62.89-1.22,1.77-1.83,2.67-.4.57-.79,1.14-1.16,1.72-.57.83-1.11,1.66-1.66,2.5-.18.26-.35.51-.51.77-.6.89-1.17,1.78-1.75,2.68-.31.49-.63.97-.94,1.45-.57.89-1.12,1.77-1.68,2.66-.68,1.07-1.34,2.15-2,3.22-.46.74-.91,1.47-1.34,2.21-.68,1.11-1.34,2.23-2,3.34-.59.98-1.17,1.98-1.75,2.98-.58.99-1.14,1.98-1.7,2.97-.54.94-1.06,1.88-1.58,2.83-.08.13-.15.25-.22.38-.56,1.01-1.12,2.03-1.67,3.05-.63,1.15-1.24,2.31-1.86,3.47-.72,1.34-1.42,2.7-2.11,4.06-.02.02-.03.04-.03.05-.46.88-.91,1.75-1.33,2.64-.47.91-.92,1.81-1.36,2.72-.59,1.18-1.17,2.38-1.74,3.57-.74,1.51-1.45,3.03-2.15,4.56-.56,1.18-1.1,2.37-1.64,3.56-5.59,12.36-10.54,25.05-14.79,38.05-.44,1.33-.87,2.67-1.28,4.01-.32.99-.63,1.99-.93,2.99-.23.71-.45,1.41-.66,2.13-.55,1.84-1.08,3.68-1.6,5.53-.37,1.25-.72,2.51-1.05,3.76,0,.04-.02.09-.03.13-.41,1.48-.81,2.96-1.18,4.46-.35,1.33-.69,2.67-1.01,4.01-.32,1.28-.64,2.58-.94,3.88-.19.78-.37,1.56-.55,2.35-.26,1.1-.51,2.21-.74,3.32-.04.14-.07.29-.1.44-.29,1.29-.57,2.6-.84,3.9-.07.33-.14.66-.2.98-.26,1.22-.5,2.45-.73,3.67-.23,1.13-.45,2.27-.65,3.4-.21,1.1-.41,2.21-.6,3.32-.23,1.25-.44,2.51-.65,3.77-.16.96-.32,1.94-.47,2.9-.11.7-.22,1.38-.32,2.08-.12.78-.24,1.54-.34,2.32-.11.72-.22,1.43-.31,2.16-.14.98-.28,1.96-.4,2.94-.08.56-.15,1.1-.22,1.66-.18,1.4-.35,2.81-.51,4.21h0c-.14,1.14-.26,2.28-.38,3.42-.08.7-.15,1.4-.22,2.1-.06.58-.12,1.15-.17,1.73-.1,1.07-.2,2.15-.29,3.22-.13,1.42-.25,2.85-.35,4.27-.1,1.22-.19,2.45-.26,3.68-.03.32-.05.65-.07.96-.07,1.06-.13,2.13-.18,3.2-.13,2.12-.23,4.24-.31,6.37-.06,1.61-.11,3.23-.15,4.84-.09,3.25-.13,6.53-.13,9.8v277.08c193.58,137.8,430.37,218.84,686.09,218.84h.33c173.2-.05,337.72-37.28,486-104.15,70.52-31.8,137.38-70.3,199.74-114.69v.18h0Z"/>
          <path class="cls-3" d="m1833.58,1799.07v277.08c-62.37,44.4-129.22,82.9-199.74,114.69-148.28,66.87-312.8,104.1-486,104.15h-.33c-255.72,0-492.51-81.05-686.09-218.84v-277.08c0-3.27.04-6.55.13-9.8.04-1.61.09-3.23.15-4.84.08-2.13.18-4.25.31-6.37.05-1.07.11-2.14.18-3.2.02-.32.04-.65.07-.96.07-1.23.16-2.46.26-3.68.1-1.42.22-2.85.35-4.27.09-1.07.19-2.15.29-3.22.05-.58.11-1.15.17-1.73.07-.7.14-1.4.22-2.1.12-1.14.24-2.28.38-3.41h0c.16-1.41.33-2.82.51-4.22.07-.56.14-1.1.22-1.66.12-.98.26-1.96.4-2.94.09-.73.2-1.44.31-2.16.1-.78.22-1.54.34-2.32.1-.7.21-1.38.32-2.08.15-.96.31-1.94.47-2.9.21-1.26.42-2.52.65-3.77.19-1.11.39-2.22.6-3.32.2-1.13.42-2.27.65-3.4.23-1.22.47-2.45.73-3.67.06-.33.13-.66.2-.98.27-1.3.55-2.61.84-3.9.03-.15.06-.3.1-.44.23-1.11.48-2.22.74-3.32.18-.79.36-1.57.55-2.35.3-1.3.62-2.6.94-3.88.33-1.34.67-2.68,1.01-4.01.38-1.49.78-2.97,1.18-4.46,0-.04.02-.09.03-.13.34-1.25.69-2.51,1.05-3.76.52-1.85,1.05-3.69,1.6-5.53.21-.72.43-1.42.66-2.13.3-1,.61-2,.93-2.99.42-1.34.85-2.68,1.28-4.01,4.26-13,9.2-25.7,14.79-38.05.54-1.19,1.08-2.38,1.64-3.56.7-1.52,1.41-3.04,2.15-4.56.57-1.19,1.15-2.39,1.74-3.57.45-.91.9-1.81,1.36-2.72.43-.89.88-1.76,1.33-2.64,0,0,.01-.03.03-.05.69-1.36,1.39-2.72,2.11-4.06.62-1.16,1.23-2.32,1.86-3.47.55-1.02,1.11-2.04,1.67-3.05.07-.13.14-.25.22-.38.52-.95,1.04-1.89,1.58-2.83.56-.99,1.12-1.98,1.7-2.97.58-1,1.16-2,1.75-2.98.66-1.11,1.32-2.23,2-3.34.44-.74.89-1.47,1.34-2.21.66-1.07,1.32-2.15,2-3.22.56-.89,1.11-1.77,1.68-2.66.31-.48.63-.96.94-1.45.58-.9,1.15-1.79,1.75-2.68.16-.26.33-.51.51-.77.55-.84,1.09-1.67,1.66-2.5.38-.58.77-1.15,1.16-1.72.61-.9,1.21-1.78,1.83-2.67.11-.17.23-.34.36-.52.69-1,1.39-2,2.1-2.98.25-.36.51-.73.78-1.09.53-.75,1.06-1.49,1.61-2.23,1.21-1.69,2.46-3.37,3.71-5.04.52-.7,1.04-1.38,1.58-2.08.48-.64.97-1.27,1.45-1.9.76-.98,1.52-1.97,2.3-2.94.88-1.12,1.77-2.25,2.67-3.36.07-.08.13-.16.2-.25.6-.74,1.18-1.46,1.79-2.19.52-.65,1.04-1.29,1.58-1.93.81-.96,1.61-1.93,2.43-2.89.99-1.16,1.97-2.32,2.97-3.47.78-.9,1.55-1.78,2.34-2.67,3.25-3.69,6.58-7.31,9.97-10.87,2.11-2.21,4.24-4.4,6.4-6.55,2.35-2.36,4.74-4.68,7.14-6.95.9-.87,1.82-1.72,2.74-2.58,1.11-1.03,2.24-2.07,3.36-3.09,1.03-.95,2.07-1.88,3.11-2.81,1.43-1.27,2.88-2.55,4.34-3.79.96-.83,1.91-1.65,2.88-2.46,1.06-.91,2.13-1.8,3.2-2.69.27-.23.54-.45.81-.67.89-.74,1.78-1.46,2.68-2.19.39-.31.77-.62,1.15-.93.77-.62,1.54-1.23,2.32-1.84,1.56-1.23,3.13-2.46,4.72-3.66.96-.75,1.94-1.48,2.92-2.22.08-.06.17-.13.25-.18,1-.77,2.03-1.51,3.04-2.26.36-.27.72-.53,1.07-.79.74-.54,1.47-1.07,2.22-1.6.68-.49,1.35-.97,2.04-1.44.4-.29.8-.57,1.19-.85.88-.62,1.75-1.23,2.64-1.83,1.05-.74,2.1-1.45,3.16-2.16.88-.6,1.75-1.18,2.63-1.76.32-.21.64-.43.97-.64.84-.56,1.68-1.1,2.53-1.64,1.73-1.12,3.46-2.23,5.21-3.31.78-.49,1.55-.96,2.33-1.44,1.09-.68,2.2-1.35,3.31-2.01.82-.5,1.64-.99,2.47-1.47,3.02-1.79,6.07-3.53,9.15-5.23.93-.52,1.86-1.02,2.8-1.53,2.52-1.36,5.04-2.71,7.6-4.01,1.36-.71,2.74-1.4,4.12-2.09,5.39-2.69,10.85-5.25,16.39-7.69,1.27-.57,2.56-1.12,3.85-1.67,2.04-.87,4.1-1.73,6.16-2.56,1.06-.44,2.12-.87,3.18-1.28,1.37-.55,2.74-1.07,4.11-1.6.4-.15.8-.3,1.19-.45.99-.38,1.99-.76,2.98-1.12,1.38-.51,2.77-1,4.16-1.5.75-.27,1.49-.53,2.25-.79,1.98-.7,3.97-1.37,5.97-2.03,1-.34,2.02-.67,3.03-.98.59-.2,1.18-.39,1.78-.57.74-.24,1.48-.47,2.23-.7.83-.26,1.66-.52,2.5-.76.49-.16.97-.3,1.47-.44.97-.3,1.94-.58,2.92-.86,1.35-.4,2.71-.78,4.07-1.14.82-.23,1.65-.46,2.48-.68.71-.2,1.42-.39,2.14-.57.76-.2,1.51-.4,2.28-.59.63-.17,1.25-.33,1.87-.48,1.1-.28,2.21-.55,3.31-.81.26-.07.53-.13.79-.19.94-.23,1.89-.45,2.84-.67,1.24-.29,2.51-.57,3.76-.85.03,0,.06,0,.1-.02,1.22-.27,2.45-.54,3.68-.79.59-.13,1.18-.25,1.77-.36,1.41-.3,2.82-.58,4.24-.85.97-.19,1.95-.37,2.92-.55.63-.12,1.25-.23,1.89-.34.99-.18,1.99-.36,2.98-.52,1.5-.26,3-.51,4.51-.74.66-.11,1.31-.21,1.97-.31,1.46-.22,2.92-.44,4.39-.64,1.21-.18,2.43-.34,3.64-.5.31-.04.62-.08.92-.12,1.08-.14,2.17-.27,3.25-.39.84-.11,1.67-.21,2.51-.3,1.36-.16,2.74-.3,4.1-.44,3.04-.31,6.09-.58,9.14-.82,3.17-.24,6.35-.45,9.54-.61,1.62-.08,3.25-.16,4.88-.22,1.83-.07,3.65-.13,5.49-.17,1.24-.04,2.49-.06,3.74-.08.44,0,.89,0,1.32,0,1.4-.02,2.81-.03,4.22-.03h88.25l216.87,168.23,3.26-2.13h.01l255.21-166.1h47.18c1.65,0,3.29,0,4.93.03,22.37.26,44.3,2.49,65.62,6.52,15.58,2.93,30.83,6.84,45.68,11.64,3.01.97,6.01,1.98,8.98,3.03h.01c64.75,22.73,121.68,62.62,165.25,114.16,1.96,2.33,3.91,4.69,5.82,7.06,1.91,2.38,3.8,4.78,5.66,7.19.92,1.21,1.85,2.43,2.77,3.65,1.82,2.45,3.62,4.91,5.4,7.41.89,1.24,1.76,2.49,2.64,3.75,1.3,1.88,2.6,3.77,3.87,5.68,1.27,1.91,2.53,3.83,3.77,5.76.83,1.29,1.64,2.59,2.46,3.88,3.24,5.19,6.37,10.48,9.37,15.83,2.25,4.02,4.43,8.08,6.54,12.19,5.79,11.28,11.03,22.89,15.71,34.79.78,1.99,1.53,3.98,2.28,5.98.75,2,1.47,4.01,2.19,6.02.39,1.09.78,2.2,1.15,3.3.76,2.21,1.49,4.43,2.21,6.65,3.22,10.01,6.05,20.2,8.46,30.54.53,2.3,1.04,4.61,1.53,6.92.49,2.31.97,4.64,1.41,6.96.84,4.37,1.6,8.75,2.3,13.17.69,4.43,1.3,8.86,1.84,13.33.35,2.97.68,5.97.97,8.96.29,2.99.54,6.01.76,9.02.11,1.51.21,3.01.3,4.54.45,7.56.68,15.19.68,22.86Z"/>
          <polyline class="cls-11" points="1148 1586.18 1148 1586.39 1148 1586.54 1147.86 2167.66 1147.83 2295"/>
          <circle class="cls-4" cx="1218.14" cy="1757.79" r="24.87"/>
          <circle class="cls-4" cx="1218.14" cy="2011.47" r="24.87"/>
          <circle class="cls-4" cx="1218.14" cy="2265.15" r="24.87"/>
          <path class="cls-4" d="m1147.38,1586.47l-112.78,84.27-212-251.99c6.51-.34,13.06-.51,19.66-.51h88.25l216.87,168.23Z"/>
          <path class="cls-4" d="m1147.91,1586.47l112.78,84.27,212-251.99c-6.51-.34-13.06-.51-19.66-.51h-88.25l-216.87,168.23Z"/>
          <path class="cls-7" d="m1588.75,1469.16c-.1-26.32-21.46-47.63-47.81-47.63s-47.71,21.31-47.81,47.63h0v626.88h0c.03,26.38,21.43,47.75,47.81,47.75s47.78-21.37,47.81-47.75h0v-626.88h0Z"/>
          <path class="cls-8" d="m1633.83,2190.85c-17.55-12.03-34.05-26.95-48.45-43.76-4.33-5.05-8.46-10.28-12.38-15.65-8.31-11.37-15.63-23.38-21.71-35.77-1.22-2.5-2.4-5-3.51-7.53-2.78-6.25-5.23-12.58-7.32-18.96"/>
          <g>
            <path class="cls-9" d="m1510.63,1459c.51,3.69,3.03,17.87,18.57,29.27,16.81,12.33,36.79,12.57,41.12,12.54"/>
            <path class="cls-9" d="m1570.32,1502.13c-.51,3.69-3.03,17.87-18.57,29.27-16.81,12.33-36.79,12.57-41.12,12.54"/>
            <path class="cls-9" d="m1510.63,1544.47c.51,3.69,3.03,17.87,18.57,29.27,16.81,12.33,36.79,12.57,41.12,12.54"/>
            <path class="cls-9" d="m1570.32,1587.59c-.51,3.69-3.03,17.87-18.57,29.27-16.81,12.33-36.79,12.57-41.12,12.54"/>
            <path class="cls-9" d="m1510.63,1629.14c.51,3.69,3.03,17.87,18.57,29.27,16.81,12.33,36.79,12.57,41.12,12.54"/>
            <path class="cls-9" d="m1570.32,1672.27c-.51,3.69-3.03,17.87-18.57,29.27-16.81,12.33-36.79,12.57-41.12,12.54"/>
            <path class="cls-9" d="m1510.63,1714.61c.51,3.69,3.03,17.87,18.57,29.27,16.81,12.33,36.79,12.57,41.12,12.54"/>
            <path class="cls-9" d="m1570.32,1757.73c-.51,3.69-3.03,17.87-18.57,29.27-16.81,12.33-36.79,12.57-41.12,12.54"/>
            <path class="cls-9" d="m1510.63,1799.28c.51,3.69,3.03,17.87,18.57,29.27,16.81,12.33,36.79,12.57,41.12,12.54"/>
            <path class="cls-9" d="m1570.32,1842.41c-.51,3.69-3.03,17.87-18.57,29.27-16.81,12.33-36.79,12.57-41.12,12.54"/>
            <path class="cls-9" d="m1510.63,1884.75c.51,3.69,3.03,17.87,18.57,29.27,16.81,12.33,36.79,12.57,41.12,12.54"/>
            <path class="cls-9" d="m1570.32,1927.87c-.51,3.69-3.03,17.87-18.57,29.27-16.81,12.33-36.79,12.57-41.12,12.54"/>
            <path class="cls-9" d="m1570.32,1459c-.51,3.69-3.03,17.87-18.57,29.27-16.81,12.33-36.79,12.57-41.12,12.54"/>
            <path class="cls-9" d="m1510.63,1502.13c.51,3.69,3.03,17.87,18.57,29.27,16.81,12.33,36.79,12.57,41.12,12.54"/>
            <path class="cls-9" d="m1570.32,1544.47c-.51,3.69-3.03,17.87-18.57,29.27-16.81,12.33-36.79,12.57-41.12,12.54"/>
            <path class="cls-9" d="m1510.63,1587.59c.51,3.69,3.03,17.87,18.57,29.27,16.81,12.33,36.79,12.57,41.12,12.54"/>
            <path class="cls-9" d="m1570.32,1629.14c-.51,3.69-3.03,17.87-18.57,29.27-16.81,12.33-36.79,12.57-41.12,12.54"/>
            <path class="cls-9" d="m1510.63,1672.27c.51,3.69,3.03,17.87,18.57,29.27,16.81,12.33,36.79,12.57,41.12,12.54"/>
            <path class="cls-9" d="m1570.32,1714.61c-.51,3.69-3.03,17.87-18.57,29.27-16.81,12.33-36.79,12.57-41.12,12.54"/>
            <path class="cls-9" d="m1510.63,1757.73c.51,3.69,3.03,17.87,18.57,29.27,16.81,12.33,36.79,12.57,41.12,12.54"/>
            <path class="cls-9" d="m1570.32,1799.28c-.51,3.69-3.03,17.87-18.57,29.27-16.81,12.33-36.79,12.57-41.12,12.54"/>
            <path class="cls-9" d="m1510.63,1842.41c.51,3.69,3.03,17.87,18.57,29.27,16.81,12.33,36.79,12.57,41.12,12.54"/>
            <path class="cls-9" d="m1570.32,1884.75c-.51,3.69-3.03,17.87-18.57,29.27-16.81,12.33-36.79,12.57-41.12,12.54"/>
            <path class="cls-9" d="m1510.63,1927.87c.51,3.69,3.03,17.87,18.57,29.27,16.81,12.33,36.79,12.57,41.12,12.54"/>
            <path class="cls-9" d="m1570.32,1970.74c-.51,3.69-3.03,17.87-18.57,29.27-16.81,12.33-36.79,12.57-41.12,12.54"/>
            <path class="cls-9" d="m1510.63,2013.08c.51,3.69,3.03,17.87,18.57,29.27,16.81,12.33,36.79,12.57,41.12,12.54"/>
            <path class="cls-9" d="m1570.32,2056.2c-.51,3.69-3.03,17.87-18.57,29.27-16.81,12.33-36.79,12.57-41.12,12.54"/>
            <path class="cls-9" d="m1510.63,1970.74c.51,3.69,3.03,17.87,18.57,29.27,16.81,12.33,36.79,12.57,41.12,12.54"/>
            <path class="cls-9" d="m1570.32,2013.08c-.51,3.69-3.03,17.87-18.57,29.27-16.81,12.33-36.79,12.57-41.12,12.54"/>
            <path class="cls-9" d="m1510.63,2056.2c.51,3.69,3.03,17.87,18.57,29.27,16.81,12.33,36.79,12.57,41.12,12.54"/>
          </g>
        </g>
        <path class="cls-5" d="m1554.52,911.17c0,7.06-.18,14.07-.54,21.04-191.41-56.91-347.2-154.61-423.63-265.4-76.57,110.97-203.93,209.38-395.83,265.7-.06.02-.12.04-.18.05-.37-7.09-.56-14.21-.56-21.39,0-3.54.05-7.07.14-10.59.09-3.5.22-7,.4-10.47.09-1.74.19-3.48.3-5.2.11-1.67.23-3.35.35-5.01,16.06-212.02,193.99-379.98,409.19-379.98h.02c.38,0,.75,0,1.13,0h.01c215.5.61,392.1,168.35,408.03,380.02.13,1.66.24,3.33.35,5,.55,8.64.83,17.38.83,26.21Z"/>
        <path class="cls-5" d="m851.93,708.92c25.71,51.9,48.37,131.49,41.46,248.8-4.33,73.58-14.64,248.76-115.23,384.24-24.97,33.63-49.27,56.43-66.52,70.8"/>
        <path class="cls-5" d="m1438.36,703.99c-24.11,49.74-45.07,126-37.52,238.3,4.73,70.44,16.01,238.14,113.08,367.65,24.1,32.15,47.47,53.93,64.05,67.65"/>
        <g>
          <path class="cls-10" d="m930.91,874.98c-17.9-.17-110.61-1.03-152.42,66.33-41.13,66.26-13.59,167.28,57.55,214.42,58.38,38.69,137.17,35.18,192.86-4.63,62.57-44.72,94.43-134.15,59.1-200.54-39.64-74.5-140.17-75.43-157.09-75.59Z"/>
          <path class="cls-10" d="m1355.53,878.06c-17.9-.17-110.61-1.03-152.42,66.33-41.13,66.26-13.59,167.28,57.55,214.42,58.38,38.69,137.17,35.18,192.86-4.63,62.57-44.72,94.43-134.15,59.1-200.54-39.64-74.5-140.17-75.43-157.09-75.59Z"/>
          <path class="cls-10" d="m1098.89,981.42c12.44-13.88,32.67-20,49.77-18.51,18.13,1.58,36.73,14.32,38.88,16.97"/>
        </g>
      </g>
    </g>
  </g>
</svg>