<svg xmlns="http://www.w3.org/2000/svg" viewBox="0 0 2537 2537"><defs><style>.cls-1{fill:#efa5c0;opacity:0.6;}.cls-2,.cls-3{fill:#4c2a19;}.cls-2,.cls-4,.cls-5{fill-rule:evenodd;}.cls-4{fill:#cca576;}.cls-5{fill:#4c5127;}.cls-10,.cls-6,.cls-9{fill:none;stroke-miterlimit:10;}.cls-6{stroke:#3d3f1f;stroke-width:5px;}.cls-7{fill:#3d3f1f;}.cls-8{fill:#561a1e;}.cls-9{stroke:#561a1e;stroke-width:14px;}.cls-10,.cls-9{stroke-linecap:round;}.cls-10{stroke:#68212a;stroke-width:9px;}</style></defs><g id="Layer_2" data-name="Layer 2"><g id="Layer_1-2" data-name="Layer 1"><circle class="cls-1" cx="1268.5" cy="1268.5" r="1268.5"/><path class="cls-2" d="M1782.52,1374.45c-.2,119.84-26.17,145.93-46.64,254.55-100.4-53.42-183.55-4.11-234.94,2-88.28,10.49-144.14,11.52-232,12-89.89.49-141.47-42.48-232-45-73.16-2-226.82,20.36-265,41-.21-1.64-53-109-41-267,4.47-58.79,76-176,72-241,0,0,108.58-402,450.58-402,382,0,457.1,376.89,457,376.73C1755.52,1177.6,1782.67,1285.42,1782.52,1374.45Z"/><circle class="cls-3" cx="1265.82" cy="803.98" r="17"/><path class="cls-4" d="M1680.2,1195.5q0,10.62-.54,21.11c-11,216.7-191,390.61-411.17,390.61-219.21,0-399.9-173.73-411.16-390.26q-.55-10.67-.56-21.46c0-227.27,185.31-412.59,411.72-412.59h1.16C1496.39,783.55,1680.2,968.61,1680.2,1195.5Z"/><path class="cls-4" d="M1958.14,2036.41V2317a1189,1189,0,0,1-198.94,114.46C1609.67,2499.22,1443.66,2537,1268.84,2537h-.34c-257,0-495.06-81.47-689.64-220V2036.41c0-3.29,0-6.58.13-9.85,0-1.62.09-3.25.15-4.87.09-2.22.19-4.43.32-6.64,0-1,.1-2,.17-2.92l.09-1.43c.07-1.08.15-2.16.23-3.23.11-1.46.23-2.91.36-4.36.09-1.08.19-2.16.29-3.24,0-.57.11-1.15.17-1.72l.24-2.32q.15-1.5.33-3c0-.31.07-.62.11-.92.13-1.18.28-2.37.43-3.55.07-.56.14-1.12.22-1.68.12-1,.26-2,.4-3,.09-.72.2-1.45.31-2.17s.22-1.56.34-2.33.21-1.39.32-2.09c.15-1,.31-2,.47-2.92.2-1.22.4-2.44.62-3.65s.44-2.49.68-3.73.42-2.28.64-3.41.45-2.28.68-3.42c.07-.35.14-.71.22-1.06.24-1.18.49-2.35.75-3.53.08-.39.16-.77.25-1.15.19-.89.39-1.79.61-2.68s.46-2,.7-3a6.23,6.23,0,0,1,.15-.62c.24-1,.5-2.1.76-3.15s.55-2.2.83-3.3c.06-.25.13-.5.2-.75.28-1.12.58-2.24.88-3.35.13-.49.26-1,.4-1.47.26-1,.53-2,.82-2.92.7-2.54,1.45-5.06,2.22-7.58s1.62-5.25,2.48-7.85c.47-1.44,1-2.88,1.45-4.31s1-2.86,1.49-4.29q.9-2.54,1.83-5c.43-1.16.87-2.31,1.31-3.46q4-10.57,8.69-20.85c.54-1.19,1.09-2.39,1.65-3.58q1.05-2.29,2.16-4.58c.65-1.35,1.3-2.7,2-4s1.34-2.68,2-4c.57-1.12,1.14-2.23,1.72-3.34.16-.3.31-.6.47-.89.6-1.14,1.2-2.27,1.81-3.4l.23-.43c.66-1.22,1.32-2.42,2-3.63l.16-.29c.71-1.27,1.42-2.55,2.15-3.81s1.44-2.52,2.18-3.77a1,1,0,0,1,.1-.17q1.11-1.9,2.25-3.79c.73-1.21,1.46-2.41,2.2-3.61.09-.16.19-.31.29-.46.58-1,1.17-1.89,1.77-2.83.26-.43.53-.85.79-1.26l2-3.12.13-.2,2.14-3.26.5-.74,2.09-3.09.51-.75c.57-.83,1.14-1.66,1.72-2.48l1.08-1.53q.91-1.3,1.86-2.61l.32-.46c.79-1.09,1.58-2.18,2.38-3.26l.19-.26c.77-1,1.54-2.08,2.33-3.12l.61-.81c.72-1,1.45-1.91,2.19-2.86l.35-.46c.82-1.07,1.66-2.13,2.5-3.19s1.85-2.33,2.78-3.48,1.88-2.31,2.83-3.45c1.25-1.5,2.5-3,3.78-4.48.65-.77,1.32-1.55,2-2.31q1.46-1.68,2.94-3.35,8.88-10,18.44-19.34c1.06-1,2.12-2.07,3.2-3.1l2.47-2.34q3.63-3.42,7.36-6.75,1.65-1.47,3.32-2.92l2.61-2.25c1.41-1.22,2.83-2.41,4.25-3.6l2.81-2.32.83-.68,3.18-2.54,0,0c1.16-.92,2.32-1.84,3.49-2.74s2-1.58,3.08-2.37l1-.74,2.65-2,.7-.52,3.24-2.36.11-.09q1.79-1.29,3.59-2.55,3.64-2.58,7.36-5.06l3.6-2.39.31-.2c1.19-.77,2.38-1.54,3.58-2.3s2.52-1.59,3.78-2.38,2.54-1.57,3.82-2.34,2.56-1.54,3.84-2.29q3.86-2.3,7.78-4.46l3-1.63q4.42-2.42,8.92-4.72,6-3.09,12.11-5.94c1.36-.64,2.72-1.27,4.09-1.89q6.15-2.81,12.42-5.38l4.19-1.7,4.21-1.65,4.24-1.6c1.06-.4,2.13-.79,3.19-1.17,1.6-.58,3.2-1.15,4.82-1.7s3.22-1.11,4.84-1.64l4.33-1.4,4.35-1.35c1.45-.44,2.91-.88,4.37-1.3q4.38-1.29,8.81-2.45l4.44-1.15q4.44-1.12,8.93-2.14l4.35-1,.29-.06c1.45-.31,2.91-.61,4.36-.9s3-.6,4.54-.89l4.55-.83q6.84-1.21,13.76-2.16l4.62-.61c2.3-.29,4.6-.55,6.9-.8H921c1.74-.19,3.48-.36,5.23-.52l2.38-.22c1.29-.11,2.57-.22,3.86-.31l.28,0c1.11-.09,2.22-.17,3.34-.24l2-.13,3.86-.22c3.37-.17,6.74-.3,10.14-.39,3.2-.08,6.4-.13,9.62-.13h614.42l2,0c1.09,0,2.17,0,3.25,0h.46l1.18,0a1.7,1.7,0,0,1,.39,0h.89c.84,0,1.68,0,2.51.07h.24l1.4,0,1,0h.54l.51,0q3,.12,6.06.27c.83,0,1.67.09,2.5.15l3,.19q1.5.09,3,.21l2.46.2,1,.09c1.44.13,2.88.25,4.31.39h.15l.53,0c.78.07,1.55.16,2.33.24h.08l.32,0,2.34.26,1,.11,2.37.27.41.05.66.09,1.07.14,3.11.4c1,.13,2.08.27,3.11.42l.15,0,1.56.25,3.68.56q5.49.86,10.94,1.89h0l3.52.68c1.43.28,2.86.58,4.28.88s2.85.6,4.27.92l4.24,1c1.42.33,2.82.67,4.23,1l4.21,1.07c1.4.36,2.8.73,4.19,1.11l4.17,1.16q4.17,1.17,8.29,2.46l4.12,1.3,2.73.89q3.36,1.11,6.69,2.28h0q18,6.32,35.12,14.34,12.84,6,25.17,12.93,5.78,3.24,11.42,6.68l3.75,2.31c1.49.93,3,1.88,4.46,2.83l3.32,2.16q3.32,2.17,6.58,4.42l3.25,2.26q2.88,2,5.71,4.1h0c1.89,1.38,3.77,2.77,5.63,4.2h0l3.13,2.41c1,.81,2.08,1.62,3.11,2.44s2.06,1.64,3.09,2.47,2,1.66,3.06,2.5l2.84,2.36c1.07.9,2.14,1.81,3.2,2.73.86.73,1.71,1.47,2.56,2.22,1.13,1,2.26,2,3.38,3q8,7.14,15.53,14.72C1915.11,1835.36,1958.14,1931.06,1958.14,2036.41Z"/><path class="cls-5" d="M1958.14,2036.41V2317a1189,1189,0,0,1-198.94,114.46C1609.67,2499.22,1443.66,2537,1268.84,2537h-.34c-257,0-495.06-81.47-689.64-220V2036.41c0-3.29,0-6.58.13-9.85,0-1.62.09-3.25.15-4.87.09-2.22.19-4.43.32-6.64,0-1,.1-2,.17-2.92l.09-1.43c.07-1.08.15-2.16.23-3.23.11-1.46.23-2.91.36-4.36.09-1.08.19-2.16.29-3.24,0-.57.11-1.15.17-1.72l.24-2.32q.15-1.5.33-3c0-.31.07-.62.11-.92.13-1.18.28-2.37.43-3.55.07-.56.14-1.12.22-1.68.12-1,.26-2,.4-3,.09-.72.2-1.45.31-2.17s.22-1.56.34-2.33.21-1.39.32-2.09c.15-1,.31-2,.47-2.92.2-1.22.4-2.44.62-3.65s.44-2.49.68-3.73.42-2.28.64-3.41.45-2.28.68-3.42c.07-.35.14-.71.22-1.06.24-1.18.49-2.35.75-3.53.08-.39.16-.77.25-1.15.19-.89.39-1.79.61-2.68s.46-2,.7-3a6.23,6.23,0,0,1,.15-.62c.24-1,.5-2.1.76-3.15s.55-2.2.83-3.3c.06-.25.13-.5.2-.75.28-1.12.58-2.24.88-3.35.13-.49.26-1,.4-1.47.26-1,.53-2,.82-2.92.7-2.54,1.45-5.06,2.22-7.58s1.62-5.25,2.48-7.85c.47-1.44,1-2.88,1.45-4.31s1-2.86,1.49-4.29q.9-2.54,1.83-5c.43-1.16.87-2.31,1.31-3.46q4-10.57,8.69-20.85c.54-1.19,1.09-2.39,1.65-3.58q1.05-2.29,2.16-4.58c.65-1.35,1.3-2.7,2-4s1.34-2.68,2-4c.57-1.12,1.14-2.23,1.72-3.34.16-.3.31-.6.47-.89.6-1.14,1.2-2.27,1.81-3.4l.23-.43c.66-1.22,1.32-2.42,2-3.63l.16-.29c.71-1.27,1.42-2.55,2.15-3.81s1.44-2.52,2.18-3.77a1,1,0,0,1,.1-.17q1.11-1.9,2.25-3.79c.73-1.21,1.46-2.41,2.2-3.61.09-.16.19-.31.29-.46.58-1,1.17-1.89,1.77-2.83.26-.43.53-.85.79-1.26l2-3.12.13-.2,2.14-3.26.5-.74,2.09-3.09.51-.75c.57-.83,1.14-1.66,1.72-2.48l1.08-1.53q.91-1.3,1.86-2.61l.32-.46c.79-1.09,1.58-2.18,2.38-3.26l.19-.26c.77-1,1.54-2.08,2.33-3.12l.61-.81c.72-1,1.45-1.91,2.19-2.86l.35-.46c.82-1.07,1.66-2.13,2.5-3.19s1.85-2.33,2.78-3.48,1.88-2.31,2.83-3.45c1.25-1.5,2.5-3,3.78-4.48.65-.77,1.32-1.55,2-2.31q1.46-1.68,2.94-3.35,8.88-10,18.44-19.34c1.06-1,2.12-2.07,3.2-3.1l2.47-2.34q3.63-3.42,7.36-6.75,1.65-1.47,3.32-2.92l2.61-2.25c1.41-1.22,2.83-2.41,4.25-3.6l2.81-2.32.83-.68,3.18-2.54,0,0c1.16-.92,2.32-1.84,3.49-2.74s2-1.58,3.08-2.37l1-.74,2.65-2,.7-.52,3.24-2.36.11-.09q1.79-1.29,3.59-2.55,3.64-2.58,7.36-5.06l3.6-2.39.31-.2c1.19-.77,2.38-1.54,3.58-2.3s2.52-1.59,3.78-2.38,2.54-1.57,3.82-2.34,2.56-1.54,3.84-2.29q3.87-2.28,7.78-4.46l3-1.63q4.42-2.42,8.92-4.72,6-3.07,12.11-5.94c1.36-.64,2.72-1.27,4.09-1.89q6.15-2.79,12.42-5.38l4.19-1.7,4.21-1.65,4.24-1.6c1.06-.4,2.13-.79,3.19-1.17,1.6-.58,3.2-1.15,4.82-1.7s3.22-1.11,4.84-1.64l4.33-1.4,4.35-1.35c1.45-.44,2.91-.88,4.37-1.3q4.38-1.27,8.81-2.45l4.44-1.15q4.44-1.12,8.93-2.14l4.35-1,.29-.06c1.45-.31,2.91-.61,4.36-.9s3-.6,4.54-.89l4.55-.83q6.84-1.2,13.76-2.16l4.62-.61c2.3-.29,4.6-.55,6.9-.8h.06c1.8-.19,3.6-.37,5.41-.53l2.38-.22c1.29-.11,2.57-.22,3.86-.31l.28,0c1.11-.09,2.22-.17,3.34-.24l2-.13,3.86-.22c3.37-.17,6.74-.3,10.14-.39q4.79-.12,9.62-.12h88.71l218,169.1,3.28-2.14h0l256.53-167H1578c1.09,0,2.17,0,3.25,0l1.27,0a2.29,2.29,0,0,1,.37,0,1.7,1.7,0,0,1,.39,0h.89c.84,0,1.68,0,2.51.07h.24l1.4,0,1,0h.54l.51,0q3,.12,6.06.27c.83,0,1.67.09,2.5.15l3,.19q1.5.09,3,.21l2.46.2,1,.09c1.44.13,2.88.25,4.31.39h.15l.53,0c.78.07,1.55.16,2.33.24h.08l.32,0,2.34.26,1,.11,2.37.27.41.05.66.09c1.4.17,2.79.34,4.18.54,1,.13,2.08.27,3.11.42l.15,0c1.75.26,3.5.52,5.24.81q5.49.86,10.94,1.89h0l3.52.68c1.43.28,2.86.58,4.28.88s2.85.6,4.27.92l4.24,1c1.42.33,2.82.67,4.23,1l4.21,1.07c1.4.36,2.8.73,4.19,1.11l4.17,1.16q4.17,1.18,8.29,2.46l4.12,1.3,2.73.89q3.36,1.11,6.69,2.28h0q18,6.32,35.12,14.34,12.84,6,25.17,12.93,5.78,3.25,11.42,6.68l3.75,2.31c1.49.93,3,1.88,4.46,2.83l3.32,2.16c2.21,1.45,4.4,2.93,6.58,4.42l3.25,2.26q2.88,2,5.71,4.1h0c1.89,1.39,3.77,2.78,5.63,4.2h0l3.13,2.41c1,.81,2.08,1.62,3.11,2.44s2.06,1.64,3.09,2.47,2,1.66,3.06,2.5l2.84,2.36c1.07.9,2.14,1.81,3.2,2.73.86.73,1.71,1.47,2.56,2.22,1.13,1,2.26,2,3.38,3q8,7.14,15.53,14.72C1915.11,1835.36,1958.14,1931.06,1958.14,2036.41Z"/><polyline class="cls-6" points="1268.84 2537 1269.01 1822.77 1269.01 1822.62 1269.01 1822.41"/><circle class="cls-7" cx="1339.51" cy="1994.91" r="25"/><circle class="cls-7" cx="1339.51" cy="2249.91" r="25"/><circle class="cls-7" cx="1339.51" cy="2504.91" r="25"/><path class="cls-7" d="M1268.38,1822.7,1155,1907.41l-213.1-253.3q9.81-.51,19.76-.51h88.71Z"/><path class="cls-7" d="M1268.91,1822.7l113.37,84.71,213.1-253.3q-9.81-.51-19.76-.51h-88.71Z"/><path class="cls-8" d="M1712,1704.78a48.06,48.06,0,0,0-96.11,0h0v630.13h0a48.06,48.06,0,0,0,96.12,0h0V1704.78Z"/><path class="cls-9" d="M1663.52,2307.91a198.79,198.79,0,0,0,7.36,19.05q1.68,3.81,3.53,7.57a242,242,0,0,0,21.81,36,256,256,0,0,0,63,61"/><path class="cls-10" d="M1633.51,1694.57c.52,3.71,3,18,18.67,29.43,16.89,12.39,37,12.63,41.33,12.61"/><path class="cls-10" d="M1693.51,1737.92c-.51,3.71-3,18-18.66,29.42-16.9,12.4-37,12.64-41.34,12.61"/><path class="cls-10" d="M1633.51,1780.48c.52,3.71,3,18,18.67,29.42,16.89,12.4,37,12.64,41.33,12.61"/><path class="cls-10" d="M1693.51,1823.82c-.51,3.72-3,18-18.66,29.43-16.9,12.4-37,12.64-41.34,12.61"/><path class="cls-10" d="M1633.51,1865.59c.52,3.72,3,18,18.67,29.43,16.89,12.4,37,12.64,41.33,12.61"/><path class="cls-10" d="M1693.51,1908.94c-.51,3.71-3,18-18.66,29.43-16.9,12.39-37,12.63-41.34,12.61"/><path class="cls-10" d="M1633.51,1951.5c.52,3.71,3,18,18.67,29.42,16.89,12.4,37,12.64,41.33,12.61"/><path class="cls-10" d="M1693.51,1994.85c-.51,3.71-3,18-18.66,29.42-16.9,12.4-37,12.64-41.34,12.61"/><path class="cls-10" d="M1633.51,2036.62c.52,3.71,3,18,18.67,29.42,16.89,12.4,37,12.64,41.33,12.61"/><path class="cls-10" d="M1693.51,2080c-.51,3.71-3,18-18.66,29.42-16.9,12.4-37,12.64-41.34,12.61"/><path class="cls-10" d="M1633.51,2122.52c.52,3.72,3,18,18.67,29.43,16.89,12.39,37,12.64,41.33,12.61"/><path class="cls-10" d="M1693.51,2165.87c-.51,3.71-3,18-18.66,29.42-16.9,12.4-37,12.64-41.34,12.61"/><path class="cls-10" d="M1693.51,1694.57c-.51,3.71-3,18-18.66,29.43-16.9,12.39-37,12.63-41.34,12.61"/><path class="cls-10" d="M1633.51,1737.92c.52,3.71,3,18,18.67,29.42,16.89,12.4,37,12.64,41.33,12.61"/><path class="cls-10" d="M1693.51,1780.48c-.51,3.71-3,18-18.66,29.42-16.9,12.4-37,12.64-41.34,12.61"/><path class="cls-10" d="M1633.51,1823.82c.52,3.72,3,18,18.67,29.43,16.89,12.4,37,12.64,41.33,12.61"/><path class="cls-10" d="M1693.51,1865.59c-.51,3.72-3,18-18.66,29.43-16.9,12.4-37,12.64-41.34,12.61"/><path class="cls-10" d="M1633.51,1908.94c.52,3.71,3,18,18.67,29.43,16.89,12.39,37,12.63,41.33,12.61"/><path class="cls-10" d="M1693.51,1951.5c-.51,3.71-3,18-18.66,29.42-16.9,12.4-37,12.64-41.34,12.61"/><path class="cls-10" d="M1633.51,1994.85c.52,3.71,3,18,18.67,29.42,16.89,12.4,37,12.64,41.33,12.61"/><path class="cls-10" d="M1693.51,2036.62c-.51,3.71-3,18-18.66,29.42-16.9,12.4-37,12.64-41.34,12.61"/><path class="cls-10" d="M1633.51,2080c.52,3.71,3,18,18.67,29.42,16.89,12.4,37,12.64,41.33,12.61"/><path class="cls-10" d="M1693.51,2122.52c-.51,3.72-3,18-18.66,29.43-16.9,12.39-37,12.64-41.34,12.61"/><path class="cls-10" d="M1633.51,2165.87c.52,3.71,3,18,18.67,29.42,16.89,12.4,37,12.64,41.33,12.61"/><path class="cls-10" d="M1693.51,2209c-.51,3.71-3,18-18.66,29.42-16.9,12.4-37,12.64-41.34,12.61"/><path class="cls-10" d="M1633.51,2251.52c.52,3.72,3,18,18.67,29.43,16.89,12.39,37,12.64,41.33,12.61"/><path class="cls-10" d="M1693.51,2294.87c-.51,3.71-3,18-18.66,29.42-16.9,12.4-37,12.64-41.34,12.61"/><path class="cls-10" d="M1633.51,2209c.52,3.71,3,18,18.67,29.42,16.89,12.4,37,12.64,41.33,12.61"/><path class="cls-10" d="M1693.51,2251.52c-.51,3.72-3,18-18.66,29.43-16.9,12.39-37,12.64-41.34,12.61"/><path class="cls-10" d="M1633.51,2294.87c.52,3.71,3,18,18.67,29.42,16.89,12.4,37,12.64,41.33,12.61"/><path class="cls-2" d="M1680.88,1190c-174.94-81.65-355.94-264.45-412-400.34,50.65,122.77-243.22,258.8-412,397.2-.06,0-.84.8-.75-2.89s.22-7.35.4-11c.09-1.83.19-3.65.3-5.47s.23-3.51.35-5.26C873.32,939.47,1052.18,763,1268.49,763h1.16c216.63.64,394.14,176.88,410.16,399.28.13,1.75.24,3.5.35,5.26C1680.71,1176.63,1681.24,1182.68,1680.88,1190Z"/><path class="cls-2" d="M1243.94,783c23.77,72.18,66.59,161.34,145,241,49.18,50,166.28,168.92,292,142,31.21-6.68,55.17-20.69,71-32"/><path class="cls-2" d="M1303.94,790c-25.87,70.7-72.49,158-157.84,236.07-53.54,48.94-181,165.47-317.87,139.09a219.5,219.5,0,0,1-77.29-31.34"/></g></g></svg>