<?xml version="1.0" encoding="UTF-8"?>
<svg id="Layer_2" data-name="Layer 2" xmlns="http://www.w3.org/2000/svg" viewBox="0 0 2295 2295">
  <defs>
    <style>
      .cls-1, .cls-2, .cls-3, .cls-4, .cls-5, .cls-6, .cls-7 {
        stroke-width: 0px;
      }

      .cls-1, .cls-5 {
        fill: #4c2a19;
      }

      .cls-2 {
        fill: #f5c9d9;
      }

      .cls-3 {
        fill: #4c5127;
      }

      .cls-3, .cls-5, .cls-6 {
        fill-rule: evenodd;
      }

      .cls-8 {
        stroke: #68212a;
        stroke-width: 9px;
      }

      .cls-8, .cls-9, .cls-10 {
        fill: none;
        stroke-miterlimit: 10;
      }

      .cls-8, .cls-10 {
        stroke-linecap: round;
      }

      .cls-4 {
        fill: #3d3f1f;
      }

      .cls-9 {
        stroke: #3d3f1f;
        stroke-width: 5px;
      }

      .cls-6 {
        fill: #cca576;
      }

      .cls-10 {
        stroke: #561a1e;
        stroke-width: 14px;
      }

      .cls-7 {
        fill: #561a1e;
      }
    </style>
  </defs>
  <g id="Layer_1-2" data-name="Layer 1">
    <g>
      <circle class="cls-2" cx="1147.5" cy="1147.5" r="1147.5"/>
      <g>
        <path class="cls-5" d="m1661.52,1132.45c-.2,119.84-26.17,145.93-46.64,254.55-100.39-53.42-183.55-4.11-234.94,2-88.28,10.49-144.14,11.52-232,12-89.89.49-141.47-42.48-232-45-73.16-2.04-226.82,20.36-265,41-.21-1.64-53-109-41-267,4.47-58.79,76-176,72-241,0,0,108.58-401.99,450.58-401.99,382,0,457.1,376.89,457,376.73,45,71.87,72.15,179.68,72,268.71Z"/>
        <circle class="cls-1" cx="1144.82" cy="561.98" r="17"/>
        <path class="cls-6" d="m1559.2,953.5c0,7.08-.18,14.12-.54,21.11-11.03,216.7-191.01,390.61-411.17,390.61s-399.9-173.73-411.16-390.26c-.37-7.11-.56-14.26-.56-21.46,0-227.27,185.31-412.59,411.72-412.59h.02c.38,0,.75,0,1.13.01h.01c226.74.63,410.55,185.69,410.55,412.58Z"/>
        <path class="cls-6" d="m1837.14,1794.41v280.61c-62.15,44.24-128.73,82.66-198.94,114.46-149.53,67.74-315.54,105.47-490.36,105.52h-.34c-257.04,0-495.06-81.47-689.64-219.98v-280.61c0-3.29.04-6.58.13-9.85.04-1.62.09-3.25.15-4.87.09-2.22.19-4.43.32-6.64.05-.97.1-1.95.17-2.92.03-.48.06-.96.09-1.43.07-1.08.15-2.16.23-3.23.11-1.46.23-2.91.36-4.36.09-1.08.19-2.16.29-3.24.05-.57.11-1.15.17-1.72.08-.77.16-1.55.24-2.32.1-1,.21-2,.33-3,.03-.31.07-.62.11-.92.13-1.18.28-2.37.43-3.55.07-.56.14-1.12.22-1.68.12-.99.26-1.98.4-2.96.09-.72.2-1.45.31-2.17.1-.78.22-1.56.34-2.33.1-.7.21-1.39.32-2.09.15-.98.31-1.95.47-2.92.2-1.22.4-2.44.62-3.65.22-1.25.44-2.49.68-3.73.2-1.14.42-2.28.64-3.41.22-1.14.45-2.28.68-3.42.07-.35.14-.71.22-1.06.24-1.18.49-2.35.75-3.53.08-.39.16-.77.25-1.15.19-.89.39-1.79.61-2.68.22-1.02.46-2.02.7-3.03.04-.21.09-.42.15-.62.24-1.05.5-2.1.76-3.15.27-1.1.55-2.2.83-3.3.06-.25.13-.5.2-.75.28-1.12.58-2.24.88-3.35.13-.49.26-.98.4-1.47.26-.98.53-1.95.82-2.92.7-2.54,1.45-5.06,2.22-7.58.79-2.63,1.62-5.25,2.48-7.85.47-1.44.96-2.88,1.45-4.31.49-1.43.98-2.86,1.49-4.29.6-1.69,1.21-3.37,1.83-5.04.43-1.16.87-2.31,1.31-3.46,2.69-7.05,5.59-14,8.69-20.85.54-1.19,1.09-2.39,1.65-3.58.7-1.53,1.42-3.06,2.16-4.58.65-1.35,1.3-2.7,1.97-4.04.66-1.34,1.34-2.68,2.02-4.01.57-1.12,1.14-2.23,1.72-3.34.16-.3.31-.6.47-.89.6-1.14,1.2-2.27,1.81-3.4.08-.15.15-.29.23-.43.66-1.22,1.32-2.42,1.99-3.63.05-.1.1-.19.16-.29.71-1.27,1.42-2.55,2.15-3.81.72-1.26,1.44-2.52,2.18-3.77.03-.06.06-.12.1-.17.74-1.27,1.49-2.53,2.25-3.79.73-1.21,1.46-2.41,2.2-3.61.09-.16.19-.31.29-.46.58-.95,1.17-1.89,1.77-2.83.26-.43.53-.85.79-1.26.67-1.05,1.34-2.09,2.01-3.12.05-.07.09-.14.13-.2.71-1.09,1.43-2.18,2.14-3.26.17-.25.33-.49.5-.74.69-1.03,1.39-2.06,2.09-3.09.17-.25.34-.5.51-.75.57-.83,1.14-1.66,1.72-2.48l1.08-1.53c.61-.87,1.23-1.74,1.86-2.61.1-.15.21-.31.32-.46.79-1.09,1.58-2.18,2.38-3.26.06-.09.12-.17.19-.26.77-1.04,1.54-2.08,2.33-3.12.2-.27.4-.54.61-.81.72-.96,1.45-1.91,2.19-2.86.11-.15.23-.31.35-.46.82-1.07,1.66-2.13,2.5-3.19.92-1.17,1.85-2.33,2.78-3.48.94-1.16,1.88-2.31,2.83-3.45,1.25-1.5,2.5-3,3.78-4.48.65-.77,1.32-1.55,1.99-2.31.97-1.12,1.95-2.24,2.94-3.35,5.92-6.66,12.07-13.11,18.44-19.34,1.06-1.04,2.12-2.07,3.2-3.1.82-.78,1.64-1.56,2.47-2.34,2.42-2.28,4.88-4.53,7.36-6.75,1.1-.98,2.21-1.95,3.32-2.92.87-.76,1.74-1.51,2.61-2.25,1.41-1.22,2.83-2.41,4.25-3.6.94-.78,1.87-1.55,2.81-2.32.28-.22.56-.45.83-.68,1.06-.85,2.12-1.7,3.18-2.54.01,0,.03-.02.04-.03,1.16-.92,2.32-1.84,3.49-2.74,1.02-.8,2.05-1.58,3.08-2.37.32-.24.65-.49.98-.74.88-.66,1.76-1.32,2.65-1.98.23-.17.47-.35.7-.52,1.08-.79,2.16-1.58,3.24-2.36.04-.03.08-.06.11-.09,1.19-.86,2.39-1.71,3.59-2.55,2.43-1.72,4.88-3.41,7.36-5.06,1.2-.8,2.4-1.59,3.6-2.39.1-.06.2-.12.31-.2,1.19-.77,2.38-1.54,3.58-2.3,1.25-.8,2.52-1.59,3.78-2.38,1.27-.79,2.54-1.57,3.82-2.34,1.28-.77,2.56-1.54,3.84-2.29,2.57-1.53,5.17-3.01,7.78-4.46.98-.55,1.96-1.09,2.95-1.63,2.95-1.61,5.92-3.18,8.92-4.72,4-2.06,8.03-4.04,12.11-5.94,1.36-.64,2.72-1.27,4.09-1.89,4.1-1.87,8.24-3.66,12.42-5.38,1.39-.57,2.79-1.14,4.19-1.7,1.4-.55,2.81-1.1,4.21-1.65,1.41-.54,2.83-1.07,4.24-1.6,1.06-.4,2.13-.79,3.19-1.17,1.6-.58,3.2-1.15,4.82-1.7,1.6-.56,3.22-1.11,4.84-1.64,1.44-.47,2.88-.94,4.33-1.4,1.45-.46,2.9-.91,4.35-1.35,1.45-.44,2.91-.88,4.37-1.3,2.92-.86,5.86-1.68,8.81-2.45,1.48-.39,2.95-.77,4.44-1.15,2.96-.75,5.94-1.46,8.93-2.14,1.44-.32,2.89-.64,4.35-.96.1-.02.19-.04.29-.06,1.45-.31,2.91-.61,4.36-.9,1.51-.31,3.02-.6,4.54-.89,1.51-.28,3.03-.56,4.55-.83,4.56-.81,9.15-1.53,13.76-2.16,1.54-.21,3.08-.41,4.62-.61,2.3-.29,4.6-.55,6.9-.8.02,0,.04-.01.06-.01.06,0,.12-.01.18-.01,1.74-.19,3.48-.36,5.23-.52.79-.08,1.59-.15,2.38-.22,1.29-.11,2.57-.22,3.86-.31.09-.01.18-.02.28-.02,1.11-.09,2.22-.17,3.34-.24.66-.05,1.32-.09,1.98-.13,1.29-.08,2.57-.15,3.86-.22,3.37-.17,6.74-.3,10.14-.39,3.2-.08,6.4-.13,9.62-.13h614.42c.65,0,1.3.02,1.95.02,1.09,0,2.17.02,3.25.03.06,0,.13,0,.19,0,.09.01.18.01.27.01.39.01.78.02,1.18.02.13-.01.26-.01.39.01.01-.01.03-.01.04,0,.02-.01.04-.01.06,0,.1-.01.2-.01.3,0,.03,0,.07,0,.1.01.02-.01.04-.01.06,0,.11-.01.22-.01.33,0,.84.01,1.68.04,2.51.07.04-.01.08-.01.11,0h.13c.47.02.93.03,1.4.05.33,0,.66.01.99.03.18,0,.36,0,.54,0,.17.01.34.01.51.02,2.02.08,4.04.17,6.06.27.83.04,1.67.09,2.5.15,1,.06,2,.12,3,.19,1,.06,2,.13,3,.21.82.06,1.64.14,2.46.2.34.03.68.06,1.02.09,1.44.13,2.88.25,4.31.39.05,0,.1.01.15.01.18.02.35.03.53.05.78.07,1.55.16,2.33.24.03,0,.05.01.08.01.11.01.21.02.32.03.78.08,1.56.17,2.34.26.32.03.65.07.97.11.79.08,1.58.17,2.37.27.14.02.27.04.41.05l.66.09c.35.05.71.1,1.07.14,1.04.13,2.07.26,3.11.4,1.04.13,2.08.27,3.11.42.05.01.1.02.15.02.52.09,1.04.17,1.56.25,1.23.18,2.45.37,3.68.56,3.66.57,7.31,1.2,10.94,1.89h.02c1.18.22,2.35.45,3.52.68,1.43.28,2.86.58,4.28.88,1.43.3,2.85.6,4.27.92,1.42.32,2.83.64,4.24.97,1.42.33,2.82.67,4.23,1.02,1.41.35,2.81.71,4.21,1.07s2.8.73,4.19,1.11c1.4.38,2.79.77,4.17,1.16,2.78.78,5.54,1.6,8.29,2.46,1.38.43,2.75.86,4.12,1.3.91.29,1.82.59,2.73.89,2.24.74,4.47,1.5,6.69,2.28t.02.01c11.99,4.21,23.7,9,35.12,14.34,8.56,4.01,16.96,8.32,25.17,12.93,3.85,2.16,7.66,4.39,11.42,6.68,1.26.77,2.5,1.54,3.75,2.31,1.49.93,2.98,1.88,4.46,2.83,1.11.72,2.22,1.44,3.32,2.16,2.21,1.45,4.4,2.92,6.58,4.42,1.09.75,2.17,1.5,3.25,2.26,1.92,1.34,3.82,2.71,5.71,4.1h0c1.89,1.38,3.77,2.77,5.63,4.2h.01c1.05.8,2.09,1.6,3.13,2.41,1.04.81,2.08,1.62,3.11,2.44,1.03.81,2.06,1.64,3.09,2.47,1.02.82,2.04,1.66,3.06,2.5.95.78,1.89,1.57,2.84,2.36,1.07.9,2.14,1.81,3.2,2.73.86.73,1.71,1.47,2.56,2.22,1.13.99,2.26,1.98,3.38,2.99,5.31,4.76,10.49,9.67,15.53,14.72,69.27,69.36,112.3,165.06,112.3,270.41Z"/>
        <path class="cls-3" d="m1837.14,1794.41v280.61c-62.15,44.24-128.73,82.66-198.94,114.46-149.53,67.74-315.54,105.47-490.36,105.52h-.34c-257.04,0-495.06-81.47-689.64-219.98v-280.61c0-3.29.04-6.58.13-9.85.04-1.62.09-3.25.15-4.87.09-2.22.19-4.43.32-6.64.05-.97.1-1.95.17-2.92.03-.48.06-.96.09-1.43.07-1.08.15-2.16.23-3.23.11-1.46.23-2.91.36-4.36.09-1.08.19-2.16.29-3.24.05-.57.11-1.15.17-1.72.08-.77.16-1.55.24-2.32.1-1,.21-2,.33-3,.03-.31.07-.62.11-.92.13-1.18.28-2.37.43-3.55.07-.56.14-1.12.22-1.68.12-.99.26-1.98.4-2.96.09-.72.2-1.45.31-2.17.1-.78.22-1.56.34-2.33.1-.7.21-1.39.32-2.09.15-.98.31-1.95.47-2.92.2-1.22.4-2.44.62-3.65.22-1.25.44-2.49.68-3.73.2-1.14.42-2.28.64-3.41.22-1.14.45-2.28.68-3.42.07-.35.14-.71.22-1.06.24-1.18.49-2.35.75-3.53.08-.39.16-.77.25-1.15.19-.89.39-1.79.61-2.68.22-1.02.46-2.02.7-3.03.04-.21.09-.42.15-.62.24-1.05.5-2.1.76-3.15.27-1.1.55-2.2.83-3.3.06-.25.13-.5.2-.75.28-1.12.58-2.24.88-3.35.13-.49.26-.98.4-1.47.26-.98.53-1.95.82-2.92.7-2.54,1.45-5.06,2.22-7.58.79-2.63,1.62-5.25,2.48-7.85.47-1.44.96-2.88,1.45-4.31.49-1.43.98-2.86,1.49-4.29.6-1.69,1.21-3.37,1.83-5.04.43-1.16.87-2.31,1.31-3.46,2.69-7.05,5.59-14,8.69-20.85.54-1.19,1.09-2.39,1.65-3.58.7-1.53,1.42-3.06,2.16-4.58.65-1.35,1.3-2.7,1.97-4.04.66-1.34,1.34-2.68,2.02-4.01.57-1.12,1.14-2.23,1.72-3.34.16-.3.31-.6.47-.89.6-1.14,1.2-2.27,1.81-3.4.08-.15.15-.29.23-.43.66-1.22,1.32-2.42,1.99-3.63.05-.1.1-.19.16-.29.71-1.27,1.42-2.55,2.15-3.81.72-1.26,1.44-2.52,2.18-3.77.03-.06.06-.12.1-.17.74-1.27,1.49-2.53,2.25-3.79.73-1.21,1.46-2.41,2.2-3.61.09-.16.19-.31.29-.46.58-.95,1.17-1.89,1.77-2.83.26-.43.53-.85.79-1.26.67-1.05,1.34-2.09,2.01-3.12.05-.07.09-.14.13-.2.71-1.09,1.43-2.18,2.14-3.26.17-.25.33-.49.5-.74.69-1.03,1.39-2.06,2.09-3.09.17-.25.34-.5.51-.75.57-.83,1.14-1.66,1.72-2.48l1.08-1.53c.61-.87,1.23-1.74,1.86-2.61.1-.15.21-.31.32-.46.79-1.09,1.58-2.18,2.38-3.26.06-.09.12-.17.19-.26.77-1.04,1.54-2.08,2.33-3.12.2-.27.4-.54.61-.81.72-.96,1.45-1.91,2.19-2.86.11-.15.23-.31.35-.46.82-1.07,1.66-2.13,2.5-3.19.92-1.17,1.85-2.33,2.78-3.48.94-1.16,1.88-2.31,2.83-3.45,1.25-1.5,2.5-3,3.78-4.48.65-.77,1.32-1.55,1.99-2.31.97-1.12,1.95-2.24,2.94-3.35,5.92-6.66,12.07-13.11,18.44-19.34,1.06-1.04,2.12-2.07,3.2-3.1.82-.78,1.64-1.56,2.47-2.34,2.42-2.28,4.88-4.53,7.36-6.75,1.1-.98,2.21-1.95,3.32-2.92.87-.76,1.74-1.51,2.61-2.25,1.41-1.22,2.83-2.41,4.25-3.6.94-.78,1.87-1.55,2.81-2.32.28-.22.56-.45.83-.68,1.06-.85,2.12-1.7,3.18-2.54.01,0,.03-.02.04-.03,1.16-.92,2.32-1.84,3.49-2.74,1.02-.8,2.05-1.58,3.08-2.37.32-.24.65-.49.98-.74.88-.66,1.76-1.32,2.65-1.98.23-.17.47-.35.7-.52,1.08-.79,2.16-1.58,3.24-2.36.04-.03.08-.06.11-.09,1.19-.86,2.39-1.71,3.59-2.55,2.43-1.72,4.89-3.4,7.36-5.06,1.2-.8,2.4-1.59,3.6-2.39.1-.06.2-.12.31-.2,1.19-.77,2.38-1.54,3.58-2.3,1.25-.8,2.52-1.59,3.78-2.38,1.27-.79,2.54-1.57,3.82-2.34,1.28-.77,2.56-1.54,3.84-2.29,2.58-1.52,5.17-3,7.78-4.46.98-.55,1.96-1.09,2.95-1.63,2.95-1.61,5.92-3.18,8.92-4.72,4-2.05,8.04-4.03,12.11-5.94,1.36-.64,2.72-1.27,4.09-1.89,4.1-1.86,8.24-3.65,12.42-5.38,1.39-.57,2.79-1.14,4.19-1.7,1.4-.55,2.81-1.1,4.21-1.65,1.41-.54,2.83-1.07,4.24-1.6,1.06-.4,2.13-.79,3.19-1.17,1.6-.58,3.2-1.15,4.82-1.7,1.6-.56,3.22-1.11,4.84-1.64,1.44-.47,2.88-.94,4.33-1.4,1.45-.46,2.9-.91,4.35-1.35,1.45-.44,2.91-.88,4.37-1.3,2.92-.85,5.86-1.67,8.81-2.45,1.48-.39,2.95-.77,4.44-1.15,2.96-.75,5.94-1.46,8.93-2.14,1.44-.32,2.89-.64,4.35-.96.1-.02.19-.04.29-.06,1.45-.31,2.91-.61,4.36-.9,1.51-.31,3.02-.6,4.54-.89,1.51-.28,3.03-.56,4.55-.83,4.56-.8,9.14-1.52,13.76-2.16,1.54-.21,3.08-.41,4.62-.61,2.3-.29,4.6-.55,6.9-.8.02,0,.04-.01.06-.01,1.8-.19,3.6-.37,5.41-.53.79-.08,1.59-.15,2.38-.22,1.29-.11,2.57-.22,3.86-.31.09-.01.18-.02.28-.02,1.11-.09,2.22-.17,3.34-.24.66-.05,1.32-.09,1.98-.13,1.29-.08,2.57-.15,3.86-.22,3.37-.17,6.74-.3,10.14-.39,3.19-.08,6.4-.12,9.62-.12h88.71l218,169.1,3.28-2.14h.01l256.53-166.96h47.42c.81,0,1.62,0,2.42,0,1.09,0,2.17.02,3.25.03.42,0,.84.02,1.27.03.12-.01.25,0,.37.01.13-.01.26-.01.39.01.01-.01.03-.01.04,0,.02-.01.04-.01.06,0,.13,0,.27,0,.4.01.02-.01.04-.01.06,0,.11-.01.22-.01.33,0,.84.01,1.68.04,2.51.07.04-.01.08-.01.11,0h.13c.47.02.93.03,1.4.05.33,0,.66.01.99.03.18,0,.36,0,.54,0,.17.01.34.01.51.02,2.02.08,4.04.17,6.06.27.83.04,1.67.09,2.5.15,1,.06,2,.12,3,.19,1,.06,2,.13,3,.21.82.06,1.64.14,2.46.2.34.03.68.06,1.02.09,1.44.13,2.88.25,4.31.39.05,0,.1.01.15.01.18.02.35.03.53.05.78.07,1.55.16,2.33.24.03,0,.05.01.08.01.11.01.21.02.32.03.78.08,1.56.17,2.34.26.32.03.65.07.97.11.79.08,1.58.17,2.37.27.14.02.27.04.41.05l.66.09c1.4.17,2.79.34,4.18.54,1.04.13,2.08.27,3.11.42.05.01.1.02.15.02,1.75.26,3.5.52,5.24.81,3.66.57,7.31,1.2,10.94,1.89h.02c1.18.22,2.35.45,3.52.68,1.43.28,2.86.58,4.28.88,1.43.3,2.85.6,4.27.92,1.42.32,2.83.64,4.24.97,1.42.33,2.82.67,4.23,1.02,1.41.35,2.81.71,4.21,1.07s2.8.73,4.19,1.11c1.4.38,2.79.77,4.17,1.16,2.78.79,5.54,1.61,8.29,2.46,1.38.43,2.75.86,4.12,1.3.91.29,1.82.59,2.73.89,2.24.74,4.47,1.5,6.69,2.28t.02.01c11.99,4.21,23.7,9,35.12,14.34,8.56,4.01,16.96,8.32,25.17,12.93,3.85,2.17,7.66,4.4,11.42,6.68,1.26.77,2.5,1.54,3.75,2.31,1.49.93,2.98,1.88,4.46,2.83,1.11.72,2.22,1.44,3.32,2.16,2.21,1.45,4.4,2.93,6.58,4.42,1.09.75,2.17,1.5,3.25,2.26,1.92,1.35,3.82,2.72,5.71,4.1h0c1.89,1.39,3.77,2.78,5.63,4.2h.01c1.05.8,2.09,1.6,3.13,2.41,1.04.81,2.08,1.62,3.11,2.44,1.03.81,2.06,1.64,3.09,2.47,1.02.82,2.04,1.66,3.06,2.5.95.78,1.89,1.57,2.84,2.36,1.07.9,2.14,1.81,3.2,2.73.86.73,1.71,1.47,2.56,2.22,1.13.99,2.26,1.98,3.38,2.99,5.31,4.76,10.49,9.67,15.53,14.72,69.27,69.36,112.3,165.06,112.3,270.41Z"/>
        <polyline class="cls-9" points="1147.84 2295 1148.01 1580.77 1148.01 1580.62 1148.01 1580.41"/>
        <circle class="cls-4" cx="1218.51" cy="1752.91" r="25"/>
        <circle class="cls-4" cx="1218.51" cy="2007.91" r="25"/>
        <circle class="cls-4" cx="1218.51" cy="2262.91" r="25"/>
        <path class="cls-4" d="m1147.38,1580.7l-113.37,84.71-213.1-253.3c6.54-.34,13.13-.51,19.76-.51h88.71l218,169.1Z"/>
        <path class="cls-4" d="m1147.91,1580.7l113.37,84.71,213.1-253.3c-6.54-.34-13.13-.51-19.76-.51h-88.71l-218,169.1Z"/>
        <path class="cls-7" d="m1591.04,1462.78c-.1-26.46-21.58-47.87-48.06-47.87s-47.95,21.42-48.06,47.87h0v630.13h0c.03,26.52,21.54,48,48.06,48s48.03-21.48,48.06-48h0v-630.13h0Z"/>
        <path class="cls-10" d="m1542.52,2065.91c2.1,6.41,4.56,12.77,7.36,19.05,1.12,2.54,2.3,5.06,3.53,7.57,6.11,12.46,13.47,24.53,21.81,35.96,17.5,23.96,39.32,45.1,62.98,60.99"/>
        <g>
          <path class="cls-8" d="m1512.51,1452.57c.51,3.71,3.05,17.96,18.67,29.42,16.89,12.4,36.98,12.64,41.33,12.61"/>
          <path class="cls-8" d="m1572.51,1495.92c-.51,3.71-3.05,17.96-18.67,29.42-16.89,12.4-36.98,12.64-41.33,12.61"/>
          <path class="cls-8" d="m1512.51,1538.48c.51,3.71,3.05,17.96,18.67,29.42,16.89,12.4,36.98,12.64,41.33,12.61"/>
          <path class="cls-8" d="m1572.51,1581.82c-.51,3.71-3.05,17.96-18.67,29.42-16.89,12.4-36.98,12.64-41.33,12.61"/>
          <path class="cls-8" d="m1512.51,1623.59c.51,3.71,3.05,17.96,18.67,29.42,16.89,12.4,36.98,12.64,41.33,12.61"/>
          <path class="cls-8" d="m1572.51,1666.94c-.51,3.71-3.05,17.96-18.67,29.42-16.89,12.4-36.98,12.64-41.33,12.61"/>
          <path class="cls-8" d="m1512.51,1709.5c.51,3.71,3.05,17.96,18.67,29.42,16.89,12.4,36.98,12.64,41.33,12.61"/>
          <path class="cls-8" d="m1572.51,1752.85c-.51,3.71-3.05,17.96-18.67,29.42-16.89,12.4-36.98,12.64-41.33,12.61"/>
          <path class="cls-8" d="m1512.51,1794.62c.51,3.71,3.05,17.96,18.67,29.42,16.89,12.4,36.98,12.64,41.33,12.61"/>
          <path class="cls-8" d="m1572.51,1837.97c-.51,3.71-3.05,17.96-18.67,29.42-16.89,12.4-36.98,12.64-41.33,12.61"/>
          <path class="cls-8" d="m1512.51,1880.52c.51,3.71,3.05,17.96,18.67,29.42,16.89,12.4,36.98,12.64,41.33,12.61"/>
          <path class="cls-8" d="m1572.51,1923.87c-.51,3.71-3.05,17.96-18.67,29.42-16.89,12.4-36.98,12.64-41.33,12.61"/>
          <path class="cls-8" d="m1572.51,1452.57c-.51,3.71-3.05,17.96-18.67,29.42-16.89,12.4-36.98,12.64-41.33,12.61"/>
          <path class="cls-8" d="m1512.51,1495.92c.51,3.71,3.05,17.96,18.67,29.42,16.89,12.4,36.98,12.64,41.33,12.61"/>
          <path class="cls-8" d="m1572.51,1538.48c-.51,3.71-3.05,17.96-18.67,29.42-16.89,12.4-36.98,12.64-41.33,12.61"/>
          <path class="cls-8" d="m1512.51,1581.82c.51,3.71,3.05,17.96,18.67,29.42,16.89,12.4,36.98,12.64,41.33,12.61"/>
          <path class="cls-8" d="m1572.51,1623.59c-.51,3.71-3.05,17.96-18.67,29.42-16.89,12.4-36.98,12.64-41.33,12.61"/>
          <path class="cls-8" d="m1512.51,1666.94c.51,3.71,3.05,17.96,18.67,29.42,16.89,12.4,36.98,12.64,41.33,12.61"/>
          <path class="cls-8" d="m1572.51,1709.5c-.51,3.71-3.05,17.96-18.67,29.42-16.89,12.4-36.98,12.64-41.33,12.61"/>
          <path class="cls-8" d="m1512.51,1752.85c.51,3.71,3.05,17.96,18.67,29.42,16.89,12.4,36.98,12.64,41.33,12.61"/>
          <path class="cls-8" d="m1572.51,1794.62c-.51,3.71-3.05,17.96-18.67,29.42-16.89,12.4-36.98,12.64-41.33,12.61"/>
          <path class="cls-8" d="m1512.51,1837.97c.51,3.71,3.05,17.96,18.67,29.42,16.89,12.4,36.98,12.64,41.33,12.61"/>
          <path class="cls-8" d="m1572.51,1880.52c-.51,3.71-3.05,17.96-18.67,29.42-16.89,12.4-36.98,12.64-41.33,12.61"/>
          <path class="cls-8" d="m1512.51,1923.87c.51,3.71,3.05,17.96,18.67,29.42,16.89,12.4,36.98,12.64,41.33,12.61"/>
          <path class="cls-8" d="m1572.51,1966.97c-.51,3.71-3.05,17.96-18.67,29.42-16.89,12.4-36.98,12.64-41.33,12.61"/>
          <path class="cls-8" d="m1512.51,2009.52c.51,3.71,3.05,17.96,18.67,29.42,16.89,12.4,36.98,12.64,41.33,12.61"/>
          <path class="cls-8" d="m1572.51,2052.87c-.51,3.71-3.05,17.96-18.67,29.42-16.89,12.4-36.98,12.64-41.33,12.61"/>
          <path class="cls-8" d="m1512.51,1966.97c.51,3.71,3.05,17.96,18.67,29.42,16.89,12.4,36.98,12.64,41.33,12.61"/>
          <path class="cls-8" d="m1572.51,2009.52c-.51,3.71-3.05,17.96-18.67,29.42-16.89,12.4-36.98,12.64-41.33,12.61"/>
          <path class="cls-8" d="m1512.51,2052.87c.51,3.71,3.05,17.96,18.67,29.42,16.89,12.4,36.98,12.64,41.33,12.61"/>
        </g>
        <path class="cls-5" d="m1559.88,948c-174.93-81.65-355.94-264.45-412-400.34,50.65,122.77-243.22,258.79-412,397.2-.06.02-.84.8-.75-2.9.09-3.68.22-7.35.4-11,.09-1.83.19-3.65.3-5.47.11-1.76.23-3.52.35-5.27,16.14-222.76,195-399.24,411.31-399.24h.02c.38,0,.75,0,1.13.01h.01c216.62.64,394.13,176.88,410.15,399.28.13,1.75.24,3.5.35,5.26.55,9.08,1.08,15.13.72,22.45Z"/>
        <path class="cls-5" d="m1122.94,541c23.77,72.18,66.59,161.34,145,241,49.18,49.96,166.28,168.92,292,142,31.21-6.68,55.17-20.69,71-32"/>
        <path class="cls-5" d="m1182.94,548c-25.87,70.7-72.49,158.04-157.84,236.07-53.54,48.94-181,165.47-317.87,139.09-33.97-6.55-60.06-20.26-77.29-31.35"/>
      </g>
    </g>
  </g>
</svg>