<?xml version="1.0" encoding="UTF-8"?>
<svg id="Layer_2" data-name="Layer 2" xmlns="http://www.w3.org/2000/svg" viewBox="0 0 2295 2295">
  <defs>
    <style>
      .cls-1, .cls-2, .cls-3, .cls-4, .cls-5, .cls-6, .cls-7 {
        stroke-width: 0px;
      }

      .cls-1, .cls-6 {
        fill: #4c2a19;
      }

      .cls-2 {
        fill: #f5c9d9;
      }

      .cls-3 {
        fill: #4c5127;
      }

      .cls-3, .cls-5, .cls-6 {
        fill-rule: evenodd;
      }

      .cls-8 {
        stroke: #68212a;
        stroke-width: 9px;
      }

      .cls-8, .cls-9, .cls-10 {
        fill: none;
        stroke-miterlimit: 10;
      }

      .cls-8, .cls-10 {
        stroke-linecap: round;
      }

      .cls-4 {
        fill: #3d3f1f;
      }

      .cls-9 {
        stroke: #3d3f1f;
        stroke-width: 5px;
      }

      .cls-5 {
        fill: #f4b490;
      }

      .cls-10 {
        stroke: #561a1e;
        stroke-width: 14px;
      }

      .cls-7 {
        fill: #561a1e;
      }
    </style>
  </defs>
  <g id="Layer_1-2" data-name="Layer 1">
    <g>
      <circle class="cls-2" cx="1147.5" cy="1147.5" r="1147.5"/>
      <g>
        <path class="cls-6" d="m1042.25,1201.78s-286.49,261.44-248.74,380.22c37.74,118.78,699.84,220.38,710.79,83.58,10.95-136.8-245.53-476.52-245.53-476.52l-216.52,12.72Z"/>
        <ellipse class="cls-1" cx="1148.52" cy="929.43" rx="442.01" ry="435.35"/>
        <path class="cls-5" d="m1559.2,953.67c0,7.08-.18,14.12-.54,21.11-11.03,216.7-191.01,390.61-411.17,390.61s-399.9-173.73-411.16-390.26c-.37-7.11-.56-14.26-.56-21.46,0-227.27,185.31-412.59,411.72-412.59h.02c.38,0,.75,0,1.13.01h.01c226.74.63,410.55,185.69,410.55,412.58Z"/>
        <path class="cls-5" d="m1837.14,1794.58v280.44h-.01c-61.91,44.07-128.21,82.37-198.13,114.09-.32.15-.64.29-.96.43-15.66,7.11-31.5,13.87-47.51,20.28-.45.18-.9.36-1.35.54-17.03,6.82-34.26,13.25-51.68,19.29-49.08,17.01-99.63,30.9-151.39,41.43-76.99,15.67-156.68,23.9-238.28,23.92h-.33c-80.57,0-159.28-8-235.36-23.27-50.05-10.03-98.97-23.2-146.53-39.3-13.14-4.45-26.18-9.12-39.11-14.02-6.69-2.53-13.36-5.12-19.99-7.77-16.78-6.68-33.36-13.75-49.75-21.18-36.55-16.55-72.11-34.9-106.57-54.93-31.74-18.44-62.54-38.31-92.33-59.5v-280.45c0-3.29.04-6.58.13-9.85.04-1.62.09-3.25.15-4.87.08-2.14.18-4.27.31-6.4.05-1.08.11-2.15.18-3.22.02-.32.04-.65.07-.97.07-1.24.16-2.47.26-3.7.1-1.43.22-2.86.35-4.29.09-1.08.19-2.16.29-3.24.05-.58.11-1.16.17-1.74.07-.7.14-1.41.22-2.11.12-1.15.24-2.29.38-3.43h0c.16-1.42.33-2.83.51-4.24.07-.56.14-1.11.22-1.67.12-.99.26-1.97.4-2.96.09-.73.2-1.45.31-2.17.1-.78.22-1.55.34-2.33.1-.7.21-1.39.32-2.09.15-.97.31-1.95.47-2.92.21-1.27.42-2.53.65-3.79.19-1.12.39-2.23.6-3.34.2-1.14.42-2.28.65-3.42.23-1.23.47-2.46.73-3.69.06-.33.13-.66.2-.99.27-1.31.55-2.62.84-3.92.03-.15.06-.3.1-.44.23-1.12.48-2.23.74-3.34.18-.79.36-1.58.55-2.36.3-1.31.62-2.61.94-3.9.33-1.35.67-2.69,1.02-4.03.38-1.5.78-2.99,1.19-4.48.01-.04.02-.09.03-.13.34-1.26.69-2.52,1.06-3.78.52-1.86,1.06-3.71,1.61-5.56.21-.72.43-1.43.66-2.14.3-1.01.61-2.01.93-3.01.42-1.35.85-2.69,1.29-4.03,2.87-8.75,6.04-17.37,9.52-25.84.59-1.44,1.19-2.87,1.8-4.3,2.32-5.49,4.78-10.91,7.36-16.27.57-1.2,1.16-2.4,1.75-3.59.45-.91.9-1.82,1.37-2.73.43-.89.88-1.77,1.34-2.65,0,0,.01-.03.03-.05.69-1.36,1.4-2.72,2.12-4.08.68-1.28,1.37-2.57,2.06-3.84.97-1.79,1.96-3.57,2.96-5.34.48-.85.96-1.7,1.45-2.54.19-.35.4-.7.6-1.05.58-1,1.17-2,1.76-3,.2-.34.4-.69.62-1.04.56-.95,1.13-1.89,1.7-2.83.19-.32.38-.64.59-.97.7-1.15,1.41-2.29,2.12-3.43.8-1.28,1.61-2.56,2.43-3.83.03-.05.06-.1.1-.16.74-1.16,1.49-2.31,2.25-3.46.15-.23.3-.46.46-.69.55-.84,1.11-1.68,1.67-2.51.38-.58.77-1.16,1.17-1.73.61-.9,1.22-1.79,1.84-2.68.11-.17.23-.34.36-.52.7-1,1.4-2.01,2.11-3,.25-.36.51-.73.78-1.1.53-.75,1.07-1.5,1.62-2.24,1.13-1.57,2.29-3.14,3.46-4.7.85-1.14,1.71-2.28,2.58-3.41.11-.15.22-.3.34-.44.87-1.13,1.74-2.26,2.63-3.38.02-.03.04-.06.08-.1.88-1.13,1.78-2.26,2.68-3.38.07-.08.13-.16.2-.25.86-1.06,1.73-2.12,2.6-3.18.26-.32.52-.64.79-.96,1.79-2.15,3.6-4.29,5.43-6.4.78-.9,1.56-1.79,2.35-2.68,3.27-3.71,6.61-7.35,10.02-10.93,2.12-2.22,4.26-4.41,6.43-6.58,2.36-2.37,4.76-4.7,7.18-6.99.91-.87,1.83-1.73,2.75-2.59,1.12-1.04,2.25-2.08,3.38-3.11,1.04-.95,2.08-1.89,3.13-2.82,1.44-1.28,2.9-2.56,4.36-3.81.96-.83,1.92-1.66,2.89-2.47,1.07-.91,2.14-1.81,3.22-2.7.27-.23.54-.45.81-.67.89-.74,1.79-1.47,2.69-2.2.39-.31.77-.62,1.16-.93.77-.62,1.55-1.24,2.33-1.85,1.57-1.24,3.15-2.47,4.74-3.68.97-.75,1.95-1.49,2.94-2.23.08-.06.17-.13.25-.18,1.01-.77,2.03-1.52,3.06-2.27.36-.27.72-.53,1.08-.79.74-.54,1.48-1.08,2.23-1.61.68-.49,1.36-.98,2.05-1.45.4-.29.8-.57,1.2-.85.97-.69,1.94-1.36,2.92-2.03.1-.07.19-.14.29-.2,1.01-.7,2.02-1.39,3.04-2.07,1.06-.71,2.12-1.42,3.19-2.12.84-.56,1.69-1.11,2.54-1.65,1.74-1.13,3.48-2.24,5.24-3.33.77-.49,1.55-.97,2.34-1.45,1.1-.68,2.21-1.36,3.33-2.02.85-.52,1.71-1.03,2.56-1.53.3-.18.6-.35.9-.52,1.06-.63,2.13-1.25,3.2-1.86,1.66-.96,3.33-1.9,5.02-2.83.93-.52,1.87-1.03,2.81-1.54,9.2-4.99,18.63-9.62,28.26-13.86,1.28-.57,2.57-1.13,3.87-1.68,2.05-.87,4.12-1.74,6.19-2.57,1.06-.44,2.13-.87,3.2-1.29,1.96-.78,3.93-1.54,5.9-2.28.69-.26,1.39-.52,2.08-.78,1.05-.39,2.11-.77,3.16-1.15.35-.13.69-.25,1.04-.38,1.13-.4,2.26-.79,3.4-1.18.32-.12.65-.23.99-.35,1.31-.45,2.64-.9,3.96-1.33,1.26-.42,2.52-.83,3.79-1.23.31-.1.62-.2.93-.3,1.04-.33,2.08-.65,3.12-.97.51-.16,1.03-.32,1.55-.47.82-.25,1.64-.5,2.46-.73.67-.21,1.35-.41,2.02-.59.96-.29,1.93-.56,2.9-.83.38-.11.77-.22,1.16-.32,1.04-.3,2.1-.58,3.15-.86,1.29-.35,2.59-.69,3.89-1.02.8-.21,1.6-.41,2.41-.61,1.07-.27,2.15-.53,3.22-.78.12-.04.23-.06.35-.09,1.13-.27,2.26-.54,3.39-.79,1-.24,2-.46,3-.68.31-.07.62-.13.93-.2,1.03-.23,2.07-.45,3.1-.66.77-.17,1.54-.33,2.31-.48,1.35-.28,2.71-.54,4.07-.8.88-.18,1.77-.34,2.66-.5.77-.14,1.54-.28,2.32-.42.78-.14,1.56-.28,2.34-.41,1.32-.23,2.64-.44,3.97-.65,1.06-.18,2.13-.34,3.19-.5,4.73-.72,9.48-1.35,14.26-1.89,4.54-.52,9.1-.95,13.68-1.3,3.19-.24,6.39-.45,9.6-.61.04,0,.09,0,.13-.01,2.89-.15,5.78-.26,8.69-.34,3.63-.11,7.28-.16,10.94-.16h613.95c1.66,0,3.31.01,4.96.03,22.49.26,44.53,2.5,65.96,6.55,18.83,3.55,37.19,8.5,54.95,14.75h.01c3.37,1.18,6.71,2.4,10.03,3.67,50.77,19.46,96.46,49.5,134.3,87.4,7.58,7.58,14.84,15.48,21.77,23.68,1.44,1.7,2.86,3.41,4.25,5.14,1.52,1.84,3.01,3.69,4.47,5.56,2.84,3.62,5.62,7.29,8.34,11.01,2.72,3.72,5.37,7.49,7.95,11.31,7.75,11.46,14.89,23.36,21.39,35.65,1.45,2.73,2.86,5.48,4.24,8.25,6.2,12.46,11.75,25.3,16.6,38.48,1.07,2.93,2.11,5.88,3.12,8.84,5.03,14.8,9.18,30.01,12.37,45.55.64,3.11,1.25,6.23,1.81,9.37,3.94,21.94,6,44.53,6,67.57Z"/>
        <path class="cls-3" d="m1837.14,1794.58v280.44h-.01c-61.91,44.07-128.21,82.37-198.13,114.09-.32.15-.64.29-.96.43-15.66,7.11-31.5,13.87-47.51,20.28-.45.18-.9.36-1.35.54-17.03,6.82-34.26,13.25-51.68,19.29-49.08,17.01-99.63,30.9-151.39,41.43-76.99,15.67-156.68,23.9-238.28,23.92h-.33c-80.57,0-159.28-8-235.36-23.27-50.05-10.03-98.97-23.2-146.53-39.3-13.14-4.45-26.18-9.12-39.11-14.02-6.69-2.53-13.36-5.12-19.99-7.77-16.78-6.68-33.36-13.75-49.75-21.18-36.55-16.55-72.11-34.9-106.57-54.93-31.74-18.44-62.54-38.31-92.33-59.5v-280.45c0-3.29.04-6.58.13-9.85.04-1.62.09-3.25.15-4.87.08-2.14.18-4.27.31-6.4.05-1.08.11-2.15.18-3.22.02-.32.04-.65.07-.97.07-1.24.16-2.47.26-3.7.1-1.43.22-2.86.35-4.29.09-1.08.19-2.16.29-3.24.05-.58.11-1.16.17-1.74.07-.7.14-1.41.22-2.11.12-1.15.24-2.29.38-3.43h0c.16-1.42.33-2.83.51-4.24.07-.56.14-1.11.22-1.67.12-.99.26-1.97.4-2.96.09-.73.2-1.45.31-2.17.1-.78.22-1.55.34-2.33.1-.7.21-1.39.32-2.09.15-.97.31-1.95.47-2.92.21-1.27.42-2.53.65-3.79.19-1.12.39-2.23.6-3.34.2-1.14.42-2.28.65-3.42.23-1.23.47-2.46.73-3.69.06-.33.13-.66.2-.99.27-1.31.55-2.62.84-3.92.03-.15.06-.3.1-.44.23-1.12.48-2.23.74-3.34.18-.79.36-1.58.55-2.36.3-1.31.62-2.61.94-3.9.33-1.35.67-2.69,1.02-4.03.38-1.5.78-2.99,1.19-4.48.01-.04.02-.09.03-.13.34-1.26.69-2.52,1.06-3.78.52-1.86,1.06-3.71,1.61-5.56.21-.72.43-1.43.66-2.14.3-1.01.61-2.01.93-3.01.42-1.35.85-2.69,1.29-4.03,2.87-8.75,6.04-17.37,9.52-25.84.59-1.44,1.19-2.87,1.8-4.3,2.32-5.49,4.78-10.91,7.36-16.27.57-1.2,1.16-2.4,1.75-3.59.45-.91.9-1.82,1.37-2.73.43-.89.88-1.77,1.34-2.65,0,0,.01-.03.03-.05.69-1.36,1.4-2.72,2.12-4.08.68-1.28,1.37-2.57,2.06-3.84.97-1.79,1.96-3.57,2.96-5.34.48-.85.96-1.7,1.45-2.54.19-.35.4-.7.6-1.05.58-1,1.17-2,1.76-3,.2-.34.4-.69.62-1.04.56-.95,1.13-1.89,1.7-2.83.19-.32.38-.64.59-.97.7-1.15,1.41-2.29,2.12-3.43.8-1.28,1.61-2.56,2.43-3.83.03-.05.06-.1.1-.16.74-1.16,1.49-2.31,2.25-3.46.15-.23.3-.46.46-.69.55-.84,1.11-1.68,1.67-2.51.38-.58.77-1.16,1.17-1.73.61-.9,1.22-1.79,1.84-2.68.11-.17.23-.34.36-.52.7-1,1.4-2.01,2.11-3,.25-.36.51-.73.78-1.1.53-.75,1.07-1.5,1.62-2.24,1.13-1.57,2.29-3.14,3.46-4.7.85-1.14,1.71-2.28,2.58-3.41.11-.15.22-.3.34-.44.87-1.13,1.74-2.26,2.63-3.38.02-.03.04-.06.08-.1.88-1.13,1.78-2.26,2.68-3.38.07-.08.13-.16.2-.25.86-1.06,1.73-2.12,2.6-3.18.26-.32.52-.64.79-.96,1.78-2.15,3.59-4.29,5.43-6.4.78-.9,1.56-1.79,2.35-2.68,3.27-3.71,6.61-7.35,10.02-10.93,2.12-2.22,4.26-4.42,6.43-6.58,2.36-2.37,4.76-4.7,7.18-6.99.91-.87,1.83-1.73,2.75-2.59,1.12-1.04,2.25-2.08,3.38-3.11,1.04-.95,2.08-1.89,3.13-2.82,1.44-1.28,2.9-2.56,4.36-3.81.96-.83,1.92-1.66,2.89-2.47,1.07-.91,2.14-1.81,3.22-2.7.27-.23.54-.45.81-.67.89-.74,1.79-1.47,2.69-2.2.39-.31.77-.62,1.16-.93.77-.62,1.55-1.24,2.33-1.85,1.57-1.24,3.15-2.47,4.74-3.68.97-.75,1.95-1.49,2.94-2.23.08-.06.17-.13.25-.18,1.01-.77,2.03-1.52,3.06-2.27.36-.27.72-.53,1.08-.79.74-.54,1.48-1.08,2.23-1.61.68-.49,1.36-.98,2.05-1.45.4-.29.8-.57,1.2-.85.97-.69,1.94-1.36,2.92-2.03.1-.07.19-.14.29-.2,1.01-.7,2.02-1.39,3.04-2.07,1.06-.71,2.12-1.42,3.19-2.12.84-.56,1.69-1.11,2.54-1.65,1.74-1.13,3.48-2.24,5.24-3.33.77-.49,1.55-.97,2.34-1.45,1.1-.68,2.21-1.36,3.33-2.02.85-.52,1.71-1.03,2.56-1.53.3-.18.6-.35.9-.52,1.06-.63,2.13-1.25,3.2-1.86,1.66-.96,3.33-1.9,5.02-2.83.93-.52,1.87-1.03,2.81-1.54,9.2-4.99,18.63-9.62,28.26-13.86,1.28-.57,2.57-1.13,3.87-1.68,2.05-.87,4.12-1.74,6.19-2.57,1.06-.44,2.13-.87,3.2-1.29,1.96-.78,3.93-1.54,5.9-2.28.69-.26,1.39-.52,2.08-.78,1.05-.39,2.11-.77,3.16-1.15.35-.13.69-.25,1.04-.38,1.13-.4,2.26-.79,3.4-1.18.32-.12.65-.23.99-.35,1.31-.45,2.64-.9,3.96-1.33,1.26-.42,2.52-.83,3.79-1.23.31-.1.62-.2.93-.3,1.04-.33,2.08-.65,3.12-.97.51-.16,1.03-.32,1.55-.47.82-.25,1.64-.5,2.46-.73.67-.21,1.35-.41,2.02-.59.96-.29,1.93-.56,2.9-.83.38-.11.77-.22,1.16-.32,1.04-.3,2.1-.58,3.15-.86,1.29-.35,2.59-.69,3.89-1.02.8-.21,1.6-.41,2.41-.61,1.07-.27,2.15-.53,3.22-.78.12-.04.23-.06.35-.09,1.13-.27,2.26-.54,3.39-.79,1-.24,2-.46,3-.68.31-.07.62-.13.93-.2,1.03-.23,2.07-.45,3.1-.66.77-.17,1.54-.33,2.31-.48,1.35-.28,2.71-.54,4.07-.8.88-.18,1.77-.34,2.66-.5.77-.14,1.54-.28,2.32-.42.78-.14,1.56-.28,2.34-.41,1.32-.23,2.64-.44,3.97-.65,1.06-.18,2.13-.34,3.19-.5,4.73-.72,9.48-1.35,14.26-1.89,4.54-.51,9.1-.94,13.68-1.3,3.19-.24,6.39-.45,9.6-.61.04,0,.09,0,.13-.01,2.89-.15,5.78-.26,8.69-.34,3.63-.11,7.28-.16,10.94-.16h88.71l50.76,39.38,167.24,129.72,3.29-2.14,256.53-166.96h47.42c1.66,0,3.31.01,4.96.03,22.49.26,44.53,2.5,65.96,6.55,18.83,3.55,37.19,8.5,54.95,14.75h.01c3.37,1.18,6.71,2.4,10.03,3.67,50.77,19.46,96.46,49.5,134.3,87.4,7.58,7.59,14.84,15.49,21.77,23.68,1.44,1.7,2.86,3.41,4.25,5.14,1.51,1.84,3,3.69,4.47,5.56,2.84,3.62,5.62,7.29,8.34,11.01,2.71,3.72,5.36,7.49,7.95,11.31,7.75,11.46,14.89,23.36,21.39,35.65,1.45,2.73,2.86,5.48,4.24,8.25,6.2,12.46,11.75,25.3,16.6,38.48,1.07,2.93,2.11,5.87,3.12,8.84,5.03,14.8,9.18,30.01,12.37,45.55.64,3.11,1.25,6.23,1.81,9.37,3.94,21.94,6,44.53,6,67.57Z"/>
        <polyline class="cls-9" points="1148.01 1580.58 1148.01 1580.79 1148.01 1580.94 1147.83 2295"/>
        <circle class="cls-4" cx="1218.51" cy="1753.08" r="25"/>
        <circle class="cls-4" cx="1218.51" cy="2008.08" r="25"/>
        <circle class="cls-4" cx="1218.51" cy="2263.08" r="25"/>
        <path class="cls-4" d="m1147.38,1580.87l-113.37,84.71-213.1-253.3c6.54-.34,13.13-.51,19.76-.51h88.71l218,169.1Z"/>
        <path class="cls-4" d="m1147.91,1580.87l113.37,84.71,213.1-253.3c-6.54-.34-13.13-.51-19.76-.51h-88.71l-218,169.1Z"/>
        <path class="cls-7" d="m1591.04,1462.95c-.1-26.46-21.58-47.87-48.06-47.87s-47.95,21.42-48.06,47.87h0v630.13h0c.03,26.52,21.54,48,48.06,48s48.03-21.48,48.06-48h0v-630.13h0Z"/>
        <path class="cls-10" d="m1542.51,2066.08c2.1,6.41,4.57,12.78,7.36,19.06,1.12,2.54,2.3,5.06,3.53,7.57,6.11,12.45,13.47,24.52,21.82,35.95,4.79,6.57,9.91,12.92,15.31,19.01h0c14.24,16.1,30.39,30.36,47.5,41.87"/>
        <g>
          <path class="cls-8" d="m1512.51,1452.75c.51,3.71,3.05,17.96,18.67,29.42,16.89,12.4,36.98,12.64,41.33,12.61"/>
          <path class="cls-8" d="m1572.51,1496.1c-.51,3.71-3.05,17.96-18.67,29.42-16.89,12.4-36.98,12.64-41.33,12.61"/>
          <path class="cls-8" d="m1512.51,1538.65c.51,3.71,3.05,17.96,18.67,29.42,16.89,12.4,36.98,12.64,41.33,12.61"/>
          <path class="cls-8" d="m1572.51,1582c-.51,3.71-3.05,17.96-18.67,29.42-16.89,12.4-36.98,12.64-41.33,12.61"/>
          <path class="cls-8" d="m1512.51,1623.77c.51,3.71,3.05,17.96,18.67,29.42,16.89,12.4,36.98,12.64,41.33,12.61"/>
          <path class="cls-8" d="m1572.51,1667.12c-.51,3.71-3.05,17.96-18.67,29.42-16.89,12.4-36.98,12.64-41.33,12.61"/>
          <path class="cls-8" d="m1512.51,1709.68c.51,3.71,3.05,17.96,18.67,29.42,16.89,12.4,36.98,12.64,41.33,12.61"/>
          <path class="cls-8" d="m1572.51,1753.02c-.51,3.71-3.05,17.96-18.67,29.42-16.89,12.4-36.98,12.64-41.33,12.61"/>
          <path class="cls-8" d="m1512.51,1794.79c.51,3.71,3.05,17.96,18.67,29.42,16.89,12.4,36.98,12.64,41.33,12.61"/>
          <path class="cls-8" d="m1572.51,1838.14c-.51,3.71-3.05,17.96-18.67,29.42-16.89,12.4-36.98,12.64-41.33,12.61"/>
          <path class="cls-8" d="m1512.51,1880.7c.51,3.71,3.05,17.96,18.67,29.42,16.89,12.4,36.98,12.64,41.33,12.61"/>
          <path class="cls-8" d="m1572.51,1924.05c-.51,3.71-3.05,17.96-18.67,29.42-16.89,12.4-36.98,12.64-41.33,12.61"/>
          <path class="cls-8" d="m1572.51,1452.75c-.51,3.71-3.05,17.96-18.67,29.42-16.89,12.4-36.98,12.64-41.33,12.61"/>
          <path class="cls-8" d="m1512.51,1496.1c.51,3.71,3.05,17.96,18.67,29.42,16.89,12.4,36.98,12.64,41.33,12.61"/>
          <path class="cls-8" d="m1572.51,1538.65c-.51,3.71-3.05,17.96-18.67,29.42-16.89,12.4-36.98,12.64-41.33,12.61"/>
          <path class="cls-8" d="m1512.51,1582c.51,3.71,3.05,17.96,18.67,29.42,16.89,12.4,36.98,12.64,41.33,12.61"/>
          <path class="cls-8" d="m1572.51,1623.77c-.51,3.71-3.05,17.96-18.67,29.42-16.89,12.4-36.98,12.64-41.33,12.61"/>
          <path class="cls-8" d="m1512.51,1667.12c.51,3.71,3.05,17.96,18.67,29.42,16.89,12.4,36.98,12.64,41.33,12.61"/>
          <path class="cls-8" d="m1572.51,1709.68c-.51,3.71-3.05,17.96-18.67,29.42-16.89,12.4-36.98,12.64-41.33,12.61"/>
          <path class="cls-8" d="m1512.51,1753.02c.51,3.71,3.05,17.96,18.67,29.42,16.89,12.4,36.98,12.64,41.33,12.61"/>
          <path class="cls-8" d="m1572.51,1794.79c-.51,3.71-3.05,17.96-18.67,29.42-16.89,12.4-36.98,12.64-41.33,12.61"/>
          <path class="cls-8" d="m1512.51,1838.14c.51,3.71,3.05,17.96,18.67,29.42,16.89,12.4,36.98,12.64,41.33,12.61"/>
          <path class="cls-8" d="m1572.51,1880.7c-.51,3.71-3.05,17.96-18.67,29.42-16.89,12.4-36.98,12.64-41.33,12.61"/>
          <path class="cls-8" d="m1512.51,1924.05c.51,3.71,3.05,17.96,18.67,29.42,16.89,12.4,36.98,12.64,41.33,12.61"/>
          <path class="cls-8" d="m1572.51,1967.14c-.51,3.71-3.05,17.96-18.67,29.42-16.89,12.4-36.98,12.64-41.33,12.61"/>
          <path class="cls-8" d="m1512.51,2009.7c.51,3.71,3.05,17.96,18.67,29.42,16.89,12.4,36.98,12.64,41.33,12.61"/>
          <path class="cls-8" d="m1572.51,2053.05c-.51,3.71-3.05,17.96-18.67,29.42-16.89,12.4-36.98,12.64-41.33,12.61"/>
          <path class="cls-8" d="m1512.51,1967.14c.51,3.71,3.05,17.96,18.67,29.42,16.89,12.4,36.98,12.64,41.33,12.61"/>
          <path class="cls-8" d="m1572.51,2009.7c-.51,3.71-3.05,17.96-18.67,29.42-16.89,12.4-36.98,12.64-41.33,12.61"/>
          <path class="cls-8" d="m1512.51,2053.05c.51,3.71,3.05,17.96,18.67,29.42,16.89,12.4,36.98,12.64,41.33,12.61"/>
        </g>
        <path class="cls-6" d="m1568.25,952.6c0,7.24-.18,14.44-.55,21.59-196.43-58.41-338.03-304.35-416.46-418.05-78.58,113.88-227.56,360.56-424.49,418.35-.06.02-.12.04-.18.05-.38-7.27-.57-14.59-.57-21.95,0-3.63.05-7.25.14-10.86.09-3.59.23-7.18.41-10.74.09-1.79.19-3.57.31-5.34.11-1.72.24-3.44.36-5.15,16.48-217.57,199.08-389.94,419.92-389.94h.02c.39,0,.77,0,1.16.01h.01c221.15.62,402.38,172.76,418.73,389.98.13,1.71.25,3.42.36,5.13.56,8.87.85,17.84.85,26.9Z"/>
        <path class="cls-6" d="m1147.24,592.13s-138.85,260.48-279.36,336.56c-140.51,76.09-37.64,287.09-37.64,287.09-44.78-45.07-58-92-92-146l-19.88-49.72,17.53-127.88,123.59-202.64,127.41-85.58,160.36-43.4v31.56Z"/>
        <path class="cls-6" d="m1147.25,591.78s138.85,230.83,279.36,306.91c140.51,76.09,27.64,330.09,27.64,330.09,44.78-45.07,90.56-103.98,103.88-162l18-76.72-17.53-127.88-123.59-202.64-127.41-85.58-160.36-43.4v61.21Z"/>
      </g>
    </g>
  </g>
</svg>