<svg xmlns="http://www.w3.org/2000/svg" viewBox="0 0 2537 2537"><defs><style>.cls-1{fill:#efa5c0;opacity:0.6;}.cls-2,.cls-3{fill:#b2864b;}.cls-2,.cls-4,.cls-5{fill-rule:evenodd;}.cls-4{fill:#ce8f5f;}.cls-5{fill:#4c5127;}.cls-10,.cls-6,.cls-9{fill:none;stroke-miterlimit:10;}.cls-6{stroke:#3d3f1f;stroke-width:5px;}.cls-7{fill:#3d3f1f;}.cls-8{fill:#aa3747;}.cls-9{stroke:#aa3747;stroke-width:6px;}.cls-10{stroke:#bf4361;stroke-linecap:round;stroke-width:9px;}</style></defs><g id="Layer_2" data-name="Layer 2"><g id="Layer_1-2" data-name="Layer 1"><circle class="cls-1" cx="1268.5" cy="1268.5" r="1268.5"/><path class="cls-2" d="M1711.53,1232.06V2451.82l-1.35.54q-25.54,10.23-51.68,19.29a1181.55,1181.55,0,0,1-151.39,41.43A1195.28,1195.28,0,0,1,1268.83,2537h-.33a1195.16,1195.16,0,0,1-235.36-23.27,1180.06,1180.06,0,0,1-146.53-39.3q-19.71-6.67-39.11-14-10-3.79-20-7.77V1232.06Z"/><ellipse class="cls-3" cx="1269.52" cy="1233.29" rx="442.01" ry="497.21"/><path class="cls-4" d="M1680.2,1195.67q0,10.62-.54,21.11c-11,216.7-191,390.61-411.17,390.61-219.21,0-399.9-173.73-411.16-390.26q-.55-10.67-.56-21.46c0-227.27,185.31-412.59,411.72-412.59h1.16C1496.39,783.72,1680.2,968.78,1680.2,1195.67Z"/><path class="cls-4" d="M1958.14,2036.58V2317h0A1188.09,1188.09,0,0,1,1760,2431.11l-1,.43q-23.49,10.66-47.51,20.28l-1.35.54q-25.54,10.23-51.68,19.29a1181.55,1181.55,0,0,1-151.39,41.43A1195.28,1195.28,0,0,1,1268.83,2537h-.33a1195.16,1195.16,0,0,1-235.36-23.27,1180.06,1180.06,0,0,1-146.53-39.3q-19.71-6.67-39.11-14-10-3.79-20-7.77-25.17-10-49.75-21.18a1183.6,1183.6,0,0,1-106.57-54.93q-47.61-27.66-92.33-59.5V2036.58c0-3.29,0-6.58.13-9.85,0-1.62.09-3.25.15-4.87q.12-3.21.31-6.4c0-1.08.11-2.15.18-3.22,0-.32,0-.65.07-1,.07-1.24.16-2.47.26-3.7.1-1.43.22-2.86.35-4.29.09-1.08.19-2.16.29-3.24,0-.58.11-1.16.17-1.74s.14-1.41.22-2.11c.12-1.15.24-2.29.38-3.43h0q.24-2.12.51-4.23c.07-.56.14-1.11.22-1.67.12-1,.26-2,.4-3,.09-.73.2-1.45.31-2.17s.22-1.55.34-2.33.21-1.39.32-2.09c.15-1,.31-2,.47-2.92.21-1.27.42-2.53.65-3.79s.39-2.23.6-3.34.42-2.28.65-3.42.47-2.46.73-3.69c.06-.33.13-.66.2-1,.27-1.31.55-2.62.84-3.92,0-.15.06-.3.1-.44.23-1.12.48-2.23.74-3.34.18-.79.36-1.58.55-2.36.3-1.31.62-2.61.94-3.9s.67-2.69,1-4c.38-1.5.78-3,1.19-4.48l0-.13c.34-1.26.69-2.52,1.06-3.78q.78-2.79,1.61-5.56c.21-.72.43-1.43.66-2.14.3-1,.61-2,.93-3,.42-1.35.85-2.69,1.29-4q4.31-13.12,9.52-25.84.88-2.16,1.8-4.3,3.48-8.23,7.36-16.27c.57-1.2,1.16-2.4,1.75-3.59.45-.91.9-1.82,1.37-2.73s.88-1.77,1.34-2.65a.09.09,0,0,1,0-.05q1-2,2.12-4.08c.68-1.28,1.37-2.57,2.06-3.84q1.45-2.68,3-5.34c.48-.85,1-1.7,1.45-2.54.19-.35.4-.7.6-1,.58-1,1.17-2,1.76-3,.2-.34.4-.69.62-1,.56-1,1.13-1.89,1.7-2.83.19-.32.38-.64.59-1,.7-1.15,1.41-2.29,2.12-3.43s1.61-2.56,2.43-3.83l.1-.16c.74-1.16,1.49-2.31,2.25-3.46l.46-.69c.55-.84,1.11-1.68,1.67-2.51.38-.58.77-1.16,1.17-1.73.61-.9,1.22-1.79,1.84-2.68.11-.17.23-.34.36-.52.7-1,1.4-2,2.11-3,.25-.36.51-.73.78-1.1.53-.75,1.07-1.5,1.62-2.24,1.13-1.57,2.29-3.14,3.46-4.7.85-1.14,1.71-2.28,2.58-3.41.11-.15.22-.3.34-.44.87-1.13,1.74-2.26,2.63-3.38l.08-.1c.88-1.13,1.78-2.26,2.68-3.38l.2-.25,2.6-3.18.79-1c1.79-2.15,3.6-4.29,5.43-6.4.78-.9,1.56-1.79,2.35-2.68q4.91-5.57,10-10.93,3.18-3.33,6.43-6.58,3.54-3.56,7.18-7c.91-.87,1.83-1.73,2.75-2.59l3.38-3.11c1-1,2.08-1.89,3.13-2.82,1.44-1.28,2.9-2.56,4.36-3.81,1-.83,1.92-1.66,2.89-2.47s2.14-1.81,3.22-2.7l.81-.67c.89-.74,1.79-1.47,2.69-2.2l1.16-.93,2.33-1.85q2.36-1.86,4.74-3.68c1-.75,2-1.49,2.94-2.23l.25-.18c1-.77,2-1.52,3.06-2.27l1.08-.79c.74-.54,1.48-1.08,2.23-1.61s1.36-1,2-1.45l1.2-.85c1-.69,1.94-1.36,2.92-2l.29-.2c1-.7,2-1.39,3-2.07s2.12-1.42,3.19-2.12c.84-.56,1.69-1.11,2.54-1.65,1.74-1.13,3.48-2.24,5.24-3.33.77-.49,1.55-1,2.34-1.45,1.1-.68,2.21-1.36,3.33-2,.85-.52,1.71-1,2.56-1.53l.9-.52c1.06-.63,2.13-1.25,3.2-1.86q2.49-1.44,5-2.83c.93-.52,1.87-1,2.81-1.54q13.8-7.48,28.26-13.86,1.92-.86,3.87-1.68c2-.87,4.12-1.74,6.19-2.57,1.06-.44,2.13-.87,3.2-1.29q2.94-1.17,5.9-2.28l2.08-.78,3.16-1.15,1-.38,3.4-1.18,1-.35c1.31-.45,2.64-.9,4-1.33s2.52-.83,3.79-1.23l.93-.3,3.12-1,1.55-.47c.82-.25,1.64-.5,2.46-.73.67-.21,1.35-.41,2-.59,1-.29,1.93-.56,2.9-.83l1.16-.32c1-.3,2.1-.58,3.15-.86,1.29-.35,2.59-.69,3.89-1l2.41-.61c1.07-.27,2.15-.53,3.22-.78l.35-.09c1.13-.27,2.26-.54,3.39-.79s2-.46,3-.68l.93-.2c1-.23,2.07-.45,3.1-.66l2.31-.48c1.35-.28,2.71-.54,4.07-.8.88-.18,1.77-.34,2.66-.5l2.32-.42,2.34-.41c1.32-.23,2.64-.44,4-.65,1.06-.18,2.13-.34,3.19-.5q7.1-1.08,14.26-1.89,6.81-.78,13.68-1.3c3.19-.24,6.39-.45,9.6-.61H942c2.89-.15,5.78-.26,8.69-.34q5.44-.17,10.94-.16h613.95c1.66,0,3.31,0,5,0a378.53,378.53,0,0,1,66,6.55,374.53,374.53,0,0,1,55,14.75h0q5.05,1.77,10,3.67a384.45,384.45,0,0,1,134.3,87.4q11.37,11.37,21.77,23.68,2.16,2.55,4.25,5.14,2.28,2.76,4.47,5.56,4.26,5.43,8.34,11t7.95,11.31a384.66,384.66,0,0,1,21.39,35.65q2.18,4.1,4.24,8.25a384.23,384.23,0,0,1,16.6,38.48q1.61,4.39,3.12,8.84a377.39,377.39,0,0,1,12.37,45.55c.64,3.11,1.25,6.23,1.81,9.37A382.12,382.12,0,0,1,1958.14,2036.58Z"/><path class="cls-5" d="M1958.14,2036.58V2317h0A1188.09,1188.09,0,0,1,1760,2431.11l-1,.43q-23.49,10.66-47.51,20.28l-1.35.54q-25.54,10.23-51.68,19.29a1181.55,1181.55,0,0,1-151.39,41.43A1195.28,1195.28,0,0,1,1268.83,2537h-.33a1195.16,1195.16,0,0,1-235.36-23.27,1180.06,1180.06,0,0,1-146.53-39.3q-19.71-6.67-39.11-14-10-3.79-20-7.77-25.17-10-49.75-21.18a1183.6,1183.6,0,0,1-106.57-54.93q-47.61-27.66-92.33-59.5V2036.58c0-3.29,0-6.58.13-9.85,0-1.62.09-3.25.15-4.87q.12-3.21.31-6.4c0-1.08.11-2.15.18-3.22,0-.32,0-.65.07-1,.07-1.24.16-2.47.26-3.7.1-1.43.22-2.86.35-4.29.09-1.08.19-2.16.29-3.24,0-.58.11-1.16.17-1.74s.14-1.41.22-2.11c.12-1.15.24-2.29.38-3.43h0q.24-2.12.51-4.23c.07-.56.14-1.11.22-1.67.12-1,.26-2,.4-3,.09-.73.2-1.45.31-2.17s.22-1.55.34-2.33.21-1.39.32-2.09c.15-1,.31-2,.47-2.92.21-1.27.42-2.53.65-3.79s.39-2.23.6-3.34.42-2.28.65-3.42.47-2.46.73-3.69c.06-.33.13-.66.2-1,.27-1.31.55-2.62.84-3.92,0-.15.06-.3.1-.44.23-1.12.48-2.23.74-3.34.18-.79.36-1.58.55-2.36.3-1.31.62-2.61.94-3.9s.67-2.69,1-4c.38-1.5.78-3,1.19-4.48l0-.13c.34-1.26.69-2.52,1.06-3.78q.78-2.79,1.61-5.56c.21-.72.43-1.43.66-2.14.3-1,.61-2,.93-3,.42-1.35.85-2.69,1.29-4q4.31-13.12,9.52-25.84.88-2.16,1.8-4.3,3.48-8.23,7.36-16.27c.57-1.2,1.16-2.4,1.75-3.59.45-.91.9-1.82,1.37-2.73s.88-1.77,1.34-2.65a.09.09,0,0,1,0-.05q1-2,2.12-4.08c.68-1.28,1.37-2.57,2.06-3.84q1.45-2.68,3-5.34c.48-.85,1-1.7,1.45-2.54.19-.35.4-.7.6-1,.58-1,1.17-2,1.76-3,.2-.34.4-.69.62-1,.56-1,1.13-1.89,1.7-2.83.19-.32.38-.64.59-1,.7-1.15,1.41-2.29,2.12-3.43s1.61-2.56,2.43-3.83l.1-.16c.74-1.16,1.49-2.31,2.25-3.46l.46-.69c.55-.84,1.11-1.68,1.67-2.51.38-.58.77-1.16,1.17-1.73.61-.9,1.22-1.79,1.84-2.68.11-.17.23-.34.36-.52.7-1,1.4-2,2.11-3,.25-.36.51-.73.78-1.1.53-.75,1.07-1.5,1.62-2.24,1.13-1.57,2.29-3.14,3.46-4.7.85-1.14,1.71-2.28,2.58-3.41.11-.15.22-.3.34-.44.87-1.13,1.74-2.26,2.63-3.38l.08-.1c.88-1.13,1.78-2.26,2.68-3.38l.2-.25,2.6-3.18.79-1c1.78-2.15,3.59-4.29,5.43-6.4.78-.9,1.56-1.79,2.35-2.68q4.91-5.57,10-10.93,3.18-3.33,6.43-6.58,3.54-3.56,7.18-7c.91-.87,1.83-1.73,2.75-2.59l3.38-3.11c1-1,2.08-1.89,3.13-2.82,1.44-1.28,2.9-2.56,4.36-3.81,1-.83,1.92-1.66,2.89-2.47s2.14-1.81,3.22-2.7l.81-.67c.89-.74,1.79-1.47,2.69-2.2l1.16-.93,2.33-1.85q2.36-1.86,4.74-3.68c1-.75,2-1.49,2.94-2.23l.25-.18c1-.77,2-1.52,3.06-2.27l1.08-.79c.74-.54,1.48-1.08,2.23-1.61s1.36-1,2-1.45l1.2-.85c1-.69,1.94-1.36,2.92-2l.29-.2c1-.7,2-1.39,3-2.07s2.12-1.42,3.19-2.12c.84-.56,1.69-1.11,2.54-1.65,1.74-1.13,3.48-2.24,5.24-3.33.77-.49,1.55-1,2.34-1.45,1.1-.68,2.21-1.36,3.33-2,.85-.52,1.71-1,2.56-1.53l.9-.52c1.06-.63,2.13-1.25,3.2-1.86q2.49-1.44,5-2.83c.93-.52,1.87-1,2.81-1.54q13.8-7.48,28.26-13.86,1.92-.86,3.87-1.68c2-.87,4.12-1.74,6.19-2.57,1.06-.44,2.13-.87,3.2-1.29q2.94-1.17,5.9-2.28l2.08-.78,3.16-1.15,1-.38,3.4-1.18,1-.35c1.31-.45,2.64-.9,4-1.33s2.52-.83,3.79-1.23l.93-.3,3.12-1,1.55-.47c.82-.25,1.64-.5,2.46-.73.67-.21,1.35-.41,2-.59,1-.29,1.93-.56,2.9-.83l1.16-.32c1-.3,2.1-.58,3.15-.86,1.29-.35,2.59-.69,3.89-1l2.41-.61c1.07-.27,2.15-.53,3.22-.78l.35-.09c1.13-.27,2.26-.54,3.39-.79s2-.46,3-.68l.93-.2c1-.23,2.07-.45,3.1-.66l2.31-.48c1.35-.28,2.71-.54,4.07-.8.88-.18,1.77-.34,2.66-.5l2.32-.42,2.34-.41c1.32-.23,2.64-.44,4-.65,1.06-.18,2.13-.34,3.19-.5q7.1-1.08,14.26-1.89,6.81-.76,13.68-1.3c3.19-.24,6.39-.45,9.6-.61H942c2.89-.15,5.78-.26,8.69-.34q5.44-.17,10.94-.16h88.71l50.76,39.38,167.24,129.72,3.29-2.14,256.53-167h47.42c1.66,0,3.31,0,5,0a378.53,378.53,0,0,1,66,6.55,374.53,374.53,0,0,1,55,14.75h0q5.05,1.77,10,3.67a384.45,384.45,0,0,1,134.3,87.4q11.37,11.38,21.77,23.68,2.16,2.55,4.25,5.14,2.26,2.76,4.47,5.56,4.26,5.43,8.34,11t7.95,11.31a384.66,384.66,0,0,1,21.39,35.65q2.18,4.1,4.24,8.25a384.23,384.23,0,0,1,16.6,38.48c1.07,2.93,2.11,5.87,3.12,8.84a377.39,377.39,0,0,1,12.37,45.55c.64,3.11,1.25,6.23,1.81,9.37A382.12,382.12,0,0,1,1958.14,2036.58Z"/><polyline class="cls-6" points="1269.01 1822.58 1269.01 1822.79 1269.01 1822.94 1268.83 2537"/><circle class="cls-7" cx="1339.51" cy="1995.08" r="25"/><circle class="cls-7" cx="1339.51" cy="2250.08" r="25"/><circle class="cls-7" cx="1339.51" cy="2505.08" r="25"/><path class="cls-7" d="M1268.38,1822.87,1155,1907.58l-213.1-253.3q9.81-.51,19.76-.51h88.71Z"/><path class="cls-7" d="M1268.91,1822.87l113.37,84.71,213.1-253.3q-9.81-.51-19.76-.51h-88.71Z"/><path class="cls-8" d="M1712,1705a48.06,48.06,0,0,0-96.11,0h0v630.13h0a48.06,48.06,0,0,0,96.12,0h0V1705Z"/><path class="cls-9" d="M1663.51,2308.08a201.65,201.65,0,0,0,7.36,19.06q1.68,3.81,3.53,7.57a241.64,241.64,0,0,0,21.82,35.95q7.18,9.86,15.31,19h0a251.49,251.49,0,0,0,47.5,41.86"/><path class="cls-10" d="M1633.51,1694.75c.52,3.71,3,18,18.67,29.42,16.89,12.4,37,12.64,41.33,12.61"/><path class="cls-10" d="M1693.51,1738.1c-.51,3.71-3,18-18.67,29.42-16.89,12.4-37,12.64-41.33,12.61"/><path class="cls-10" d="M1633.51,1780.65c.52,3.72,3,18,18.67,29.43,16.89,12.39,37,12.64,41.33,12.61"/><path class="cls-10" d="M1693.51,1824c-.51,3.71-3,18-18.67,29.42-16.89,12.4-37,12.64-41.33,12.61"/><path class="cls-10" d="M1633.51,1865.77c.52,3.71,3,18,18.67,29.42,16.89,12.4,37,12.64,41.33,12.61"/><path class="cls-10" d="M1693.51,1909.12c-.51,3.71-3,18-18.67,29.42-16.89,12.4-37,12.64-41.33,12.61"/><path class="cls-10" d="M1633.51,1951.68c.52,3.71,3,18,18.67,29.42,16.89,12.4,37,12.64,41.33,12.61"/><path class="cls-10" d="M1693.51,1995c-.51,3.72-3,18-18.67,29.43-16.89,12.39-37,12.64-41.33,12.61"/><path class="cls-10" d="M1633.51,2036.79c.52,3.72,3,18,18.67,29.43,16.89,12.4,37,12.64,41.33,12.61"/><path class="cls-10" d="M1693.51,2080.14c-.51,3.71-3,18-18.67,29.42-16.89,12.4-37,12.64-41.33,12.61"/><path class="cls-10" d="M1633.51,2122.7c.52,3.71,3,18,18.67,29.42,16.89,12.4,37,12.64,41.33,12.61"/><path class="cls-10" d="M1693.51,2166.05c-.51,3.71-3,18-18.67,29.42-16.89,12.4-37,12.64-41.33,12.61"/><path class="cls-10" d="M1693.51,1694.75c-.51,3.71-3,18-18.67,29.42-16.89,12.4-37,12.64-41.33,12.61"/><path class="cls-10" d="M1633.51,1738.1c.52,3.71,3,18,18.67,29.42,16.89,12.4,37,12.64,41.33,12.61"/><path class="cls-10" d="M1693.51,1780.65c-.51,3.72-3,18-18.67,29.43-16.89,12.39-37,12.64-41.33,12.61"/><path class="cls-10" d="M1633.51,1824c.52,3.71,3,18,18.67,29.42,16.89,12.4,37,12.64,41.33,12.61"/><path class="cls-10" d="M1693.51,1865.77c-.51,3.71-3,18-18.67,29.42-16.89,12.4-37,12.64-41.33,12.61"/><path class="cls-10" d="M1633.51,1909.12c.52,3.71,3,18,18.67,29.42,16.89,12.4,37,12.64,41.33,12.61"/><path class="cls-10" d="M1693.51,1951.68c-.51,3.71-3,18-18.67,29.42-16.89,12.4-37,12.64-41.33,12.61"/><path class="cls-10" d="M1633.51,1995c.52,3.72,3,18,18.67,29.43,16.89,12.39,37,12.64,41.33,12.61"/><path class="cls-10" d="M1693.51,2036.79c-.51,3.72-3,18-18.67,29.43-16.89,12.4-37,12.64-41.33,12.61"/><path class="cls-10" d="M1633.51,2080.14c.52,3.71,3,18,18.67,29.42,16.89,12.4,37,12.64,41.33,12.61"/><path class="cls-10" d="M1693.51,2122.7c-.51,3.71-3,18-18.67,29.42-16.89,12.4-37,12.64-41.33,12.61"/><path class="cls-10" d="M1633.51,2166.05c.52,3.71,3,18,18.67,29.42,16.89,12.4,37,12.64,41.33,12.61"/><path class="cls-10" d="M1693.51,2209.14c-.51,3.71-3,18-18.67,29.42-16.89,12.4-37,12.64-41.33,12.61"/><path class="cls-10" d="M1633.51,2251.7c.52,3.71,3,18,18.67,29.42,16.89,12.4,37,12.64,41.33,12.61"/><path class="cls-10" d="M1693.51,2295.05c-.51,3.71-3,18-18.67,29.42-16.89,12.4-37,12.64-41.33,12.61"/><path class="cls-10" d="M1633.51,2209.14c.52,3.71,3,18,18.67,29.42,16.89,12.4,37,12.64,41.33,12.61"/><path class="cls-10" d="M1693.51,2251.7c-.51,3.71-3,18-18.67,29.42-16.89,12.4-37,12.64-41.33,12.61"/><path class="cls-10" d="M1633.51,2295.05c.52,3.71,3,18,18.67,29.42,16.89,12.4,37,12.64,41.33,12.61"/><path class="cls-2" d="M1697,1175.12v.22c0,10.94,14.23,270.32,11,259.85C1575.67,1003,1467.67,909,1349.88,853c-2.82-1.34-156.65-23.71-210.21,10-248,156-253.57,444.74-276,598-10.12-7-22.88-258.25-33-265.28,0-.23,14.78-20.37,14.78-20.6q0-5.5.14-11c.1-3.63.23-7.26.42-10.86.09-1.81.19-3.61.31-5.4s.23-3.48.36-5.2c16.66-220,201.28-394.26,424.57-394.26h1.2c223.6.63,406.83,174.67,423.37,394.3q.2,2.58.36,5.19Q1697,1161.38,1697,1175.12Z"/><path class="cls-2" d="M1124.91,862.06c-3,1.52-171.75,87.65-228.28,342.14a1.43,1.43,0,0,0,2.7.92c14.4-31.24,80-116,132.34-186.12,59-79,173.72-148.83,216-175,.61-.38-1.13-33.56-1.79-33.29L1125,862Z"/></g></g></svg>