<?xml version="1.0" encoding="UTF-8"?>
<svg id="Layer_2" data-name="Layer 2" xmlns="http://www.w3.org/2000/svg" viewBox="0 0 2295 2295">
  <defs>
    <style>
      .cls-1 {
        fill: #190d08;
      }

      .cls-1, .cls-2, .cls-3, .cls-4, .cls-5, .cls-6, .cls-7, .cls-8, .cls-9 {
        stroke-width: 0px;
      }

      .cls-2 {
        fill: #c69c6d;
      }

      .cls-2, .cls-5, .cls-9 {
        fill-rule: evenodd;
      }

      .cls-3 {
        fill: #3d3f1f;
      }

      .cls-4 {
        fill: #959678;
      }

      .cls-5, .cls-7 {
        fill: #8c6923;
      }

      .cls-6 {
        fill: #f5c9d9;
      }

      .cls-10 {
        stroke: #205874;
        stroke-width: 2px;
      }

      .cls-10, .cls-11, .cls-12 {
        fill: none;
        stroke-miterlimit: 10;
      }

      .cls-11 {
        stroke: #9e2863;
        stroke-linecap: round;
        stroke-width: 9px;
      }

      .cls-12 {
        stroke: #3d3f1f;
        stroke-width: 5px;
      }

      .cls-8 {
        fill: #bf5573;
      }

      .cls-9 {
        fill: #4c5127;
      }
    </style>
  </defs>
  <g id="Layer_1-2" data-name="Layer 1">
    <g>
      <circle class="cls-6" cx="1147.5" cy="1147.5" r="1147.5"/>
      <g>
        <polygon class="cls-7" points="1592.67 1442.23 1096.67 1433.23 1250.67 1234.23 1413.67 1234.23 1592.67 1442.23"/>
        <path class="cls-5" d="M1588.25,932.95c0,7.43-.19,14.82-.58,22.15-11.78,227.4-204.02,409.89-439.18,409.89s-427.15-182.31-439.17-409.52c-.4-7.46-.6-14.96-.6-22.52,0-238.49,197.94-432.96,439.77-432.96h.02c.41,0,.8,0,1.21.01h.01c242.19.66,438.52,194.86,438.52,432.95Z"/>
        <path class="cls-1" d="M1539.6,1495.78c0,28.67-11.94,54.02-30.23,69.47h0c-3.74,3.15-7.74,5.9-11.96,8.17-.02.01-.04.02-.06.03-.95.51-1.9.99-2.87,1.45-.03.01-.05.03-.08.04-1.03.49-2.07.95-3.12,1.38-2.96,1.22-6.01,2.21-9.14,2.97-4.65,1.12-9.46,1.71-14.38,1.71h-.02c-4.86,0-9.61-.57-14.21-1.67-3.02-.72-5.97-1.66-8.85-2.81-.79-.32-1.58-.65-2.36-1-.4-.18-.81-.37-1.21-.56-1.01-.48-2.01-.98-3-1.52-2.21-1.18-4.35-2.5-6.43-3.93-1.92-1.32-3.78-2.74-5.57-4.26,0,0,0,0,0,0-18.3-15.45-30.23-40.81-30.23-69.47,0-47.06,32.17-85.22,71.86-85.22s71.86,38.15,71.86,85.22Z"/>
        <path class="cls-2" d="M1559.2,953.67c0,7.08-.18,14.12-.54,21.11-11.03,216.7-191.01,390.61-411.17,390.61s-399.9-173.73-411.16-390.26c-.37-7.11-.56-14.26-.56-21.46,0-227.27,185.31-412.59,411.72-412.59h.02c.38,0,.75,0,1.13.01h.01c226.74.63,410.55,185.69,410.55,412.58Z"/>
        <path class="cls-2" d="M1837.14,1794.58v280.44h-.01c-61.91,44.07-128.21,82.37-198.13,114.09-.32.15-.64.29-.96.43-15.66,7.11-31.5,13.87-47.51,20.28l-1.35.54c-17.03,6.82-34.26,13.25-51.68,19.29-49.08,17.01-99.63,30.9-151.39,41.43-76.99,15.67-156.68,23.9-238.28,23.92h-.33c-80.57,0-159.28-8-235.36-23.27-50.05-10.03-98.97-23.2-146.53-39.3-13.14-4.45-26.18-9.12-39.11-14.02-6.69-2.53-13.36-5.12-19.99-7.77-16.78-6.68-33.36-13.75-49.75-21.18-36.55-16.55-72.11-34.9-106.57-54.93-31.74-18.44-62.54-38.31-92.33-59.5v-280.45c0-3.29.04-6.58.13-9.85.04-1.62.09-3.25.15-4.87.08-2.14.18-4.27.31-6.4.05-1.08.11-2.15.18-3.22.02-.32.04-.65.07-.97.07-1.24.16-2.47.26-3.7.1-1.43.22-2.86.35-4.29.09-1.08.19-2.16.29-3.24.05-.58.11-1.16.17-1.74.07-.7.14-1.41.22-2.11.12-1.15.24-2.29.38-3.43h0c.16-1.42.33-2.83.51-4.24.07-.56.14-1.11.22-1.67.12-.99.26-1.97.4-2.96.09-.73.2-1.45.31-2.17.1-.78.22-1.55.34-2.33.1-.7.21-1.39.32-2.09.15-.97.31-1.95.47-2.92.21-1.27.42-2.53.65-3.79.19-1.12.39-2.23.6-3.34.2-1.14.42-2.28.65-3.42.23-1.23.47-2.46.73-3.69.06-.33.13-.66.2-.99.27-1.31.55-2.62.84-3.92.03-.15.06-.3.1-.44.23-1.12.48-2.23.74-3.34.18-.79.36-1.58.55-2.36.3-1.31.62-2.61.94-3.9.33-1.35.67-2.69,1.02-4.03.38-1.5.78-2.99,1.19-4.48.01-.04.02-.09.03-.13.34-1.26.69-2.52,1.06-3.78.52-1.86,1.06-3.71,1.61-5.56.21-.72.43-1.43.66-2.14.3-1.01.61-2.01.93-3.01.42-1.35.85-2.69,1.29-4.03,2.87-8.75,6.04-17.37,9.52-25.84.59-1.44,1.19-2.87,1.8-4.3,2.32-5.49,4.78-10.91,7.36-16.27.57-1.2,1.16-2.4,1.75-3.59.45-.91.9-1.82,1.37-2.73.43-.89.88-1.77,1.34-2.65,0,0,.01-.03.03-.05.69-1.36,1.4-2.72,2.12-4.08.68-1.28,1.37-2.57,2.06-3.84.97-1.79,1.96-3.57,2.96-5.34.48-.85.96-1.7,1.45-2.54.19-.35.4-.7.6-1.05.58-1,1.17-2,1.76-3,.2-.34.4-.69.62-1.04.56-.95,1.13-1.89,1.7-2.83.19-.32.38-.64.59-.97.7-1.15,1.41-2.29,2.12-3.43.8-1.28,1.61-2.56,2.43-3.83.03-.05.06-.1.1-.16.74-1.16,1.49-2.31,2.25-3.46.15-.23.3-.46.46-.69.55-.84,1.11-1.68,1.67-2.51.38-.58.77-1.16,1.17-1.73.61-.9,1.22-1.79,1.84-2.68.11-.17.23-.34.36-.52.7-1,1.4-2.01,2.11-3,.25-.36.51-.73.78-1.1.53-.75,1.07-1.5,1.62-2.24,1.13-1.57,2.29-3.14,3.46-4.7.85-1.14,1.71-2.28,2.58-3.41.11-.15.22-.3.34-.44.87-1.13,1.74-2.26,2.63-3.38.02-.03.04-.06.08-.1.88-1.13,1.78-2.26,2.68-3.38.07-.08.13-.16.2-.25.86-1.06,1.73-2.12,2.6-3.18.26-.32.52-.64.79-.96,1.79-2.15,3.6-4.29,5.43-6.4.78-.9,1.56-1.79,2.35-2.68,3.27-3.71,6.61-7.35,10.02-10.93,2.12-2.22,4.26-4.42,6.43-6.58,2.36-2.37,4.76-4.7,7.18-6.99.91-.87,1.83-1.73,2.75-2.59,1.12-1.04,2.25-2.08,3.38-3.11,1.04-.95,2.08-1.89,3.13-2.82,1.44-1.28,2.9-2.56,4.36-3.81.96-.83,1.92-1.66,2.89-2.47,1.07-.91,2.14-1.81,3.22-2.7.27-.23.54-.45.81-.67.89-.74,1.79-1.47,2.69-2.2.39-.31.77-.62,1.16-.93.77-.62,1.55-1.24,2.33-1.85,1.57-1.24,3.15-2.47,4.74-3.68.97-.75,1.95-1.49,2.94-2.23.08-.06.17-.13.25-.18,1.01-.77,2.03-1.52,3.06-2.27.36-.27.72-.53,1.08-.79.74-.54,1.48-1.08,2.23-1.61.68-.49,1.36-.98,2.05-1.45.4-.29.8-.57,1.2-.85.97-.69,1.94-1.36,2.92-2.03.1-.07.19-.14.29-.2,1.01-.7,2.02-1.39,3.04-2.07,1.06-.71,2.12-1.42,3.19-2.12.84-.56,1.69-1.11,2.54-1.65,1.74-1.13,3.48-2.24,5.24-3.33.77-.49,1.55-.97,2.34-1.45,1.1-.68,2.21-1.36,3.33-2.02.85-.52,1.71-1.03,2.56-1.53.3-.18.6-.35.9-.52,1.06-.63,2.13-1.25,3.2-1.86,1.66-.96,3.33-1.9,5.02-2.83.93-.52,1.87-1.03,2.81-1.54,9.2-4.99,18.63-9.62,28.26-13.86,1.28-.57,2.57-1.13,3.87-1.68,2.05-.87,4.12-1.74,6.19-2.57,1.06-.44,2.13-.87,3.2-1.29,1.96-.78,3.93-1.54,5.9-2.28.69-.26,1.39-.52,2.08-.78,1.05-.39,2.11-.77,3.16-1.15.35-.13.69-.25,1.04-.38,1.13-.4,2.26-.79,3.4-1.18.32-.12.65-.23.99-.35,1.31-.45,2.64-.9,3.96-1.33,1.26-.42,2.52-.83,3.79-1.23.31-.1.62-.2.93-.3,1.04-.33,2.08-.65,3.12-.97.51-.16,1.03-.32,1.55-.47.82-.25,1.64-.5,2.46-.73.67-.21,1.35-.41,2.02-.59.96-.29,1.93-.56,2.9-.83.38-.11.77-.22,1.16-.32,1.04-.3,2.1-.58,3.15-.86,1.29-.35,2.59-.69,3.89-1.02.8-.21,1.6-.41,2.41-.61,1.07-.27,2.15-.53,3.22-.78.12-.04.23-.06.35-.09,1.13-.27,2.26-.54,3.39-.79,1-.24,2-.46,3-.68.31-.07.62-.13.93-.2,1.03-.23,2.07-.45,3.1-.66.77-.17,1.54-.33,2.31-.48,1.35-.28,2.71-.54,4.07-.8.88-.18,1.77-.34,2.66-.5.77-.14,1.54-.28,2.32-.42.78-.14,1.56-.28,2.34-.41,1.32-.23,2.64-.44,3.97-.65,1.06-.18,2.13-.34,3.19-.5,4.73-.72,9.48-1.35,14.26-1.89,4.54-.51,9.1-.94,13.68-1.3,3.19-.24,6.39-.45,9.6-.61.04,0,.09,0,.13,0,2.89-.15,5.78-.26,8.69-.34,3.63-.11,7.28-.16,10.94-.16h613.95c1.66,0,3.31,0,4.96.03,22.49.26,44.53,2.5,65.96,6.55,18.83,3.55,37.19,8.5,54.95,14.75h.01c3.37,1.18,6.71,2.4,10.03,3.67,50.77,19.46,96.46,49.5,134.3,87.4,7.58,7.59,14.84,15.49,21.77,23.68,1.44,1.7,2.86,3.41,4.25,5.14,1.52,1.84,3.01,3.69,4.47,5.56,2.84,3.62,5.62,7.29,8.34,11.01,2.04,2.79,4.04,5.61,6,8.45.65.95,1.3,1.9,1.95,2.86,7.75,11.46,14.89,23.36,21.39,35.65,1.45,2.73,2.86,5.48,4.24,8.25,6.2,12.46,11.75,25.3,16.6,38.48,1.07,2.93,2.11,5.87,3.12,8.84,5.03,14.8,9.18,30.01,12.37,45.55.64,3.11,1.25,6.23,1.81,9.37,3.94,21.94,6,44.53,6,67.57Z"/>
        <path class="cls-9" d="M1837.14,1794.58v280.44h-.01c-61.91,44.07-128.21,82.37-198.13,114.09-.32.15-.64.29-.96.43-15.66,7.11-31.5,13.87-47.51,20.28l-1.35.54c-17.03,6.82-34.26,13.25-51.68,19.29-49.08,17.01-99.63,30.9-151.39,41.43-76.99,15.67-156.68,23.9-238.28,23.92h-.33c-80.57,0-159.28-8-235.36-23.27-50.05-10.03-98.97-23.2-146.53-39.3-13.14-4.45-26.18-9.12-39.11-14.02-6.69-2.53-13.36-5.12-19.99-7.77-16.78-6.68-33.36-13.75-49.75-21.18-36.55-16.55-72.11-34.9-106.57-54.93-31.74-18.44-62.54-38.31-92.33-59.5v-280.45c0-3.29.04-6.58.13-9.85.04-1.62.09-3.25.15-4.87.08-2.14.18-4.27.31-6.4.05-1.08.11-2.15.18-3.22.02-.32.04-.65.07-.97.07-1.24.16-2.47.26-3.7.1-1.43.22-2.86.35-4.29.09-1.08.19-2.16.29-3.24.05-.58.11-1.16.17-1.74.07-.7.14-1.41.22-2.11.12-1.15.24-2.29.38-3.43h0c.16-1.42.33-2.83.51-4.24.07-.56.14-1.11.22-1.67.12-.99.26-1.97.4-2.96.09-.73.2-1.45.31-2.17.1-.78.22-1.55.34-2.33.1-.7.21-1.39.32-2.09.15-.97.31-1.95.47-2.92.21-1.27.42-2.53.65-3.79.19-1.12.39-2.23.6-3.34.2-1.14.42-2.28.65-3.42.23-1.23.47-2.46.73-3.69.06-.33.13-.66.2-.99.27-1.31.55-2.62.84-3.92.03-.15.06-.3.1-.44.23-1.12.48-2.23.74-3.34.18-.79.36-1.58.55-2.36.3-1.31.62-2.61.94-3.9.33-1.35.67-2.69,1.02-4.03.38-1.5.78-2.99,1.19-4.48.01-.04.02-.09.03-.13.34-1.26.69-2.52,1.06-3.78.52-1.86,1.06-3.71,1.61-5.56.21-.72.43-1.43.66-2.14.3-1.01.61-2.01.93-3.01.42-1.35.85-2.69,1.29-4.03,2.87-8.75,6.04-17.37,9.52-25.84.59-1.44,1.19-2.87,1.8-4.3,2.32-5.49,4.78-10.91,7.36-16.27.57-1.2,1.16-2.4,1.75-3.59.45-.91.9-1.82,1.37-2.73.43-.89.88-1.77,1.34-2.65,0,0,.01-.03.03-.05.69-1.36,1.4-2.72,2.12-4.08.68-1.28,1.37-2.57,2.06-3.84.97-1.79,1.96-3.57,2.96-5.34.48-.85.96-1.7,1.45-2.54.19-.35.4-.7.6-1.05.58-1,1.17-2,1.76-3,.2-.34.4-.69.62-1.04.56-.95,1.13-1.89,1.7-2.83.19-.32.38-.64.59-.97.7-1.15,1.41-2.29,2.12-3.43.8-1.28,1.61-2.56,2.43-3.83.03-.05.06-.1.1-.16.74-1.16,1.49-2.31,2.25-3.46.15-.23.3-.46.46-.69.55-.84,1.11-1.68,1.67-2.51.38-.58.77-1.16,1.17-1.73.61-.9,1.22-1.79,1.84-2.68.11-.17.23-.34.36-.52.7-1,1.4-2.01,2.11-3,.25-.36.51-.73.78-1.1.53-.75,1.07-1.5,1.62-2.24,1.13-1.57,2.29-3.14,3.46-4.7.85-1.14,1.71-2.28,2.58-3.41.11-.15.22-.3.34-.44.87-1.13,1.74-2.26,2.63-3.38.02-.03.04-.06.08-.1.88-1.13,1.78-2.26,2.68-3.38.07-.08.13-.16.2-.25.86-1.06,1.73-2.12,2.6-3.18.26-.32.52-.64.79-.96,1.79-2.15,3.6-4.29,5.43-6.4.78-.9,1.56-1.79,2.35-2.68,3.27-3.71,6.61-7.35,10.02-10.93,2.12-2.22,4.26-4.42,6.43-6.58,2.36-2.37,4.76-4.7,7.18-6.99.91-.87,1.83-1.73,2.75-2.59,1.12-1.04,2.25-2.08,3.38-3.11,1.04-.95,2.08-1.89,3.13-2.82,1.44-1.28,2.9-2.56,4.36-3.81.96-.83,1.92-1.66,2.89-2.47,1.07-.91,2.14-1.81,3.22-2.7.27-.23.54-.45.81-.67.89-.74,1.79-1.47,2.69-2.2.39-.31.77-.62,1.16-.93.77-.62,1.55-1.24,2.33-1.85,1.57-1.24,3.15-2.47,4.74-3.68.97-.75,1.95-1.49,2.94-2.23.08-.06.17-.13.25-.18,1.01-.77,2.03-1.52,3.06-2.27.36-.27.72-.53,1.08-.79.74-.54,1.48-1.08,2.23-1.61.68-.49,1.36-.98,2.05-1.45.4-.29.8-.57,1.2-.85.97-.69,1.94-1.36,2.92-2.03.1-.07.19-.14.29-.2,1.01-.7,2.02-1.39,3.04-2.07,1.06-.71,2.12-1.42,3.19-2.12.84-.56,1.69-1.11,2.54-1.65,1.74-1.13,3.48-2.24,5.24-3.33.77-.49,1.55-.97,2.34-1.45,1.1-.68,2.21-1.36,3.33-2.02.85-.52,1.71-1.03,2.56-1.53.3-.18.6-.35.9-.52,1.06-.63,2.13-1.25,3.2-1.86,1.66-.96,3.33-1.9,5.02-2.83.93-.52,1.87-1.03,2.81-1.54,9.2-4.99,18.63-9.62,28.26-13.86,1.28-.57,2.57-1.13,3.87-1.68,2.05-.87,4.12-1.74,6.19-2.57,1.06-.44,2.13-.87,3.2-1.29,1.96-.78,3.93-1.54,5.9-2.28.69-.26,1.39-.52,2.08-.78,1.05-.39,2.11-.77,3.16-1.15.35-.13.69-.25,1.04-.38,1.13-.4,2.26-.79,3.4-1.18.32-.12.65-.23.99-.35,1.31-.45,2.64-.9,3.96-1.33,1.26-.42,2.52-.83,3.79-1.23.31-.1.62-.2.93-.3,1.04-.33,2.08-.65,3.12-.97.51-.16,1.03-.32,1.55-.47.82-.25,1.64-.5,2.46-.73.67-.21,1.35-.41,2.02-.59.96-.29,1.93-.56,2.9-.83.38-.11.77-.22,1.16-.32,1.04-.3,2.1-.58,3.15-.86,1.29-.35,2.59-.69,3.89-1.02.8-.21,1.6-.41,2.41-.61,1.07-.27,2.15-.53,3.22-.78.12-.04.23-.06.35-.09,1.13-.27,2.26-.54,3.39-.79,1-.24,2-.46,3-.68.31-.07.62-.13.93-.2,1.03-.23,2.07-.45,3.1-.66.77-.17,1.54-.33,2.31-.48,1.35-.28,2.71-.54,4.07-.8.88-.18,1.77-.34,2.66-.5.77-.14,1.54-.28,2.32-.42.78-.14,1.56-.28,2.34-.41,1.32-.23,2.64-.44,3.97-.65,1.06-.18,2.13-.34,3.19-.5,4.73-.72,9.48-1.35,14.26-1.89,4.54-.51,9.1-.94,13.68-1.3,3.19-.24,6.39-.45,9.6-.61.04,0,.09,0,.13,0,2.89-.15,5.78-.26,8.69-.34,3.63-.11,7.28-.16,10.94-.16h88.71l50.76,39.38,167.24,129.72,3.29-2.14,256.53-166.96h47.42c1.66,0,3.31,0,4.96.03,22.49.26,44.53,2.5,65.96,6.55,18.83,3.55,37.19,8.5,54.95,14.75h.01c3.37,1.18,6.71,2.4,10.03,3.67,50.77,19.46,96.46,49.5,134.3,87.4,7.58,7.59,14.84,15.49,21.77,23.68,1.44,1.7,2.86,3.41,4.25,5.14,1.51,1.84,3,3.69,4.47,5.56,2.84,3.62,5.62,7.29,8.34,11.01,2.03,2.79,4.03,5.61,6,8.45.65.95,1.3,1.9,1.95,2.86,7.75,11.46,14.89,23.36,21.39,35.65,1.45,2.73,2.86,5.48,4.24,8.25,6.2,12.46,11.75,25.3,16.6,38.48,1.07,2.93,2.11,5.87,3.12,8.84,5.03,14.8,9.18,30.01,12.37,45.55.64,3.11,1.25,6.23,1.81,9.37,3.94,21.94,6,44.53,6,67.57Z"/>
        <polyline class="cls-12" points="1148.01 1580.58 1148.01 1580.79 1148.01 1580.94 1147.83 2295"/>
        <circle class="cls-3" cx="1218.51" cy="1753.08" r="25"/>
        <circle class="cls-3" cx="1218.51" cy="2008.08" r="25"/>
        <path class="cls-3" d="M1147.38,1580.87l-113.37,84.71-213.1-253.3c6.54-.34,13.13-.51,19.76-.51h88.71l218,169.1Z"/>
        <path class="cls-3" d="M1147.91,1580.87l113.37,84.71,213.1-253.3c-6.54-.34-13.13-.51-19.76-.51h-88.71l-218,169.1Z"/>
        <path class="cls-8" d="M1591.04,1462.95c-.1-26.46-21.58-47.87-48.06-47.87s-47.95,21.42-48.06,47.87h0v630.13h0c.03,26.52,21.54,48,48.06,48s48.03-21.48,48.06-48h0v-630.13h0Z"/>
        <g>
          <path class="cls-11" d="M1512.51,1452.74c.51,3.71,3.05,17.96,18.67,29.42,16.89,12.4,36.98,12.64,41.33,12.61"/>
          <path class="cls-11" d="M1572.51,1496.09c-.51,3.71-3.05,17.96-18.67,29.42-16.89,12.4-36.98,12.64-41.33,12.61"/>
          <path class="cls-11" d="M1512.51,1538.65c.51,3.71,3.05,17.96,18.67,29.42,16.89,12.4,36.98,12.64,41.33,12.61"/>
          <path class="cls-11" d="M1572.51,1582c-.51,3.71-3.05,17.96-18.67,29.42-16.89,12.4-36.98,12.64-41.33,12.61"/>
          <path class="cls-11" d="M1512.51,1623.77c.51,3.71,3.05,17.96,18.67,29.42,16.89,12.4,36.98,12.64,41.33,12.61"/>
          <path class="cls-11" d="M1572.51,1667.11c-.51,3.71-3.05,17.96-18.67,29.42-16.89,12.4-36.98,12.64-41.33,12.61"/>
          <path class="cls-11" d="M1512.51,1709.67c.51,3.71,3.05,17.96,18.67,29.42,16.89,12.4,36.98,12.64,41.33,12.61"/>
          <path class="cls-11" d="M1572.51,1753.02c-.51,3.71-3.05,17.96-18.67,29.42-16.89,12.4-36.98,12.64-41.33,12.61"/>
          <path class="cls-11" d="M1512.51,1794.79c.51,3.71,3.05,17.96,18.67,29.42,16.89,12.4,36.98,12.64,41.33,12.61"/>
          <path class="cls-11" d="M1572.51,1838.14c-.51,3.71-3.05,17.96-18.67,29.42-16.89,12.4-36.98,12.64-41.33,12.61"/>
          <path class="cls-11" d="M1512.51,1880.7c.51,3.71,3.05,17.96,18.67,29.42,16.89,12.4,36.98,12.64,41.33,12.61"/>
          <path class="cls-11" d="M1572.51,1924.04c-.51,3.71-3.05,17.96-18.67,29.42-16.89,12.4-36.98,12.64-41.33,12.61"/>
          <path class="cls-11" d="M1572.51,1452.74c-.51,3.71-3.05,17.96-18.67,29.42-16.89,12.4-36.98,12.64-41.33,12.61"/>
          <path class="cls-11" d="M1512.51,1496.09c.51,3.71,3.05,17.96,18.67,29.42,16.89,12.4,36.98,12.64,41.33,12.61"/>
          <path class="cls-11" d="M1572.51,1538.65c-.51,3.71-3.05,17.96-18.67,29.42-16.89,12.4-36.98,12.64-41.33,12.61"/>
          <path class="cls-11" d="M1512.51,1582c.51,3.71,3.05,17.96,18.67,29.42,16.89,12.4,36.98,12.64,41.33,12.61"/>
          <path class="cls-11" d="M1572.51,1623.77c-.51,3.71-3.05,17.96-18.67,29.42-16.89,12.4-36.98,12.64-41.33,12.61"/>
          <path class="cls-11" d="M1512.51,1667.11c.51,3.71,3.05,17.96,18.67,29.42,16.89,12.4,36.98,12.64,41.33,12.61"/>
          <path class="cls-11" d="M1572.51,1709.67c-.51,3.71-3.05,17.96-18.67,29.42-16.89,12.4-36.98,12.64-41.33,12.61"/>
          <path class="cls-11" d="M1512.51,1753.02c.51,3.71,3.05,17.96,18.67,29.42,16.89,12.4,36.98,12.64,41.33,12.61"/>
          <path class="cls-11" d="M1572.51,1794.79c-.51,3.71-3.05,17.96-18.67,29.42-16.89,12.4-36.98,12.64-41.33,12.61"/>
          <path class="cls-11" d="M1512.51,1838.14c.51,3.71,3.05,17.96,18.67,29.42,16.89,12.4,36.98,12.64,41.33,12.61"/>
          <path class="cls-11" d="M1572.51,1880.7c-.51,3.71-3.05,17.96-18.67,29.42-16.89,12.4-36.98,12.64-41.33,12.61"/>
          <path class="cls-11" d="M1512.51,1924.04c.51,3.71,3.05,17.96,18.67,29.42,16.89,12.4,36.98,12.64,41.33,12.61"/>
          <path class="cls-11" d="M1572.51,1967.14c-.51,3.71-3.05,17.96-18.67,29.42-16.89,12.4-36.98,12.64-41.33,12.61"/>
          <path class="cls-11" d="M1512.51,2009.7c.51,3.71,3.05,17.96,18.67,29.42,16.89,12.4,36.98,12.64,41.33,12.61"/>
          <path class="cls-11" d="M1572.51,2053.04c-.51,3.71-3.05,17.96-18.67,29.42-16.89,12.4-36.98,12.64-41.33,12.61"/>
          <path class="cls-11" d="M1512.51,1967.14c.51,3.71,3.05,17.96,18.67,29.42,16.89,12.4,36.98,12.64,41.33,12.61"/>
          <path class="cls-11" d="M1572.51,2009.7c-.51,3.71-3.05,17.96-18.67,29.42-16.89,12.4-36.98,12.64-41.33,12.61"/>
          <path class="cls-11" d="M1512.51,2053.04c.51,3.71,3.05,17.96,18.67,29.42,16.89,12.4,36.98,12.64,41.33,12.61"/>
        </g>
        <path class="cls-5" d="M1583.12,972.87c0,7.48-.19,14.92-.57,22.3-202.88-60.32-349.12-314.34-430.13-431.77-81.16,117.61-235.03,372.39-438.42,432.08-.06.02-.13.04-.19.05-.39-7.51-.59-15.06-.59-22.67,0-3.75.05-7.49.15-11.22.1-3.71.23-7.42.42-11.09.1-1.85.2-3.69.32-5.51.12-1.77.24-3.55.37-5.31,17.02-224.71,205.61-402.73,433.7-402.73h.02c.4,0,.79,0,1.19.01h.01c228.41.64,415.58,178.43,432.47,402.78.14,1.76.25,3.53.37,5.3.58,9.16.88,18.42.88,27.78Z"/>
        <g>
          <g>
            <polygon class="cls-3" points="583.23 1769.32 580.94 1930.84 457.86 1975.69 457.86 1816.3 583.23 1769.32"/>
            <polygon class="cls-4" points="572.25 1885.26 572.25 1885.5 571.33 1925.69 457.86 1968.88 457.86 1929.13 572.25 1885.26"/>
            <polygon class="cls-4" points="572.53 1832.6 572.53 1832.84 571.56 1873.04 520.61 1892.37 494.08 1902.44 457.86 1916.19 457.86 1876.44 476.7 1869.24 511.49 1855.94 572.53 1832.6"/>
            <polygon class="cls-4" points="571.84 1780.14 571.83 1780.38 570.86 1820.58 457.86 1863.46 457.86 1823.72 571.84 1780.14"/>
            <g>
              <line class="cls-10" x1="458.96" y1="1880.77" x2="459.34" y2="1912.72"/>
              <line class="cls-10" x1="466.02" y1="1878.09" x2="466.4" y2="1910.04"/>
              <line class="cls-10" x1="473.09" y1="1875.4" x2="473.46" y2="1907.35"/>
              <line class="cls-10" x1="480.15" y1="1872.72" x2="480.53" y2="1904.67"/>
              <line class="cls-10" x1="487.21" y1="1870.03" x2="487.59" y2="1901.98"/>
              <line class="cls-10" x1="494.27" y1="1867.35" x2="494.65" y2="1899.3"/>
              <line class="cls-10" x1="501.34" y1="1864.66" x2="501.71" y2="1896.61"/>
              <line class="cls-10" x1="508.4" y1="1861.98" x2="508.78" y2="1893.93"/>
              <line class="cls-10" x1="515.46" y1="1859.29" x2="515.84" y2="1891.24"/>
              <line class="cls-10" x1="522.52" y1="1856.61" x2="522.9" y2="1888.56"/>
              <line class="cls-10" x1="529.58" y1="1853.92" x2="529.96" y2="1885.88"/>
              <line class="cls-10" x1="536.65" y1="1851.24" x2="537.03" y2="1883.19"/>
              <line class="cls-10" x1="543.71" y1="1848.55" x2="544.09" y2="1880.51"/>
              <line class="cls-10" x1="550.77" y1="1845.87" x2="551.15" y2="1877.82"/>
              <line class="cls-10" x1="557.83" y1="1843.19" x2="558.21" y2="1875.14"/>
              <line class="cls-10" x1="564.9" y1="1840.5" x2="565.28" y2="1872.45"/>
            </g>
            <g>
              <line class="cls-10" x1="458.02" y1="1827.64" x2="458.4" y2="1859.59"/>
              <line class="cls-10" x1="465.08" y1="1824.95" x2="465.46" y2="1856.91"/>
              <line class="cls-10" x1="472.14" y1="1822.27" x2="472.52" y2="1854.22"/>
              <line class="cls-10" x1="479.21" y1="1819.59" x2="479.58" y2="1851.54"/>
              <line class="cls-10" x1="486.27" y1="1816.9" x2="486.65" y2="1848.85"/>
              <line class="cls-10" x1="493.33" y1="1814.22" x2="493.71" y2="1846.17"/>
              <line class="cls-10" x1="500.39" y1="1811.53" x2="500.77" y2="1843.48"/>
              <line class="cls-10" x1="507.46" y1="1808.85" x2="507.83" y2="1840.8"/>
              <line class="cls-10" x1="514.52" y1="1806.16" x2="514.9" y2="1838.11"/>
              <line class="cls-10" x1="521.58" y1="1803.48" x2="521.96" y2="1835.43"/>
              <line class="cls-10" x1="528.64" y1="1800.79" x2="529.02" y2="1832.74"/>
              <line class="cls-10" x1="535.71" y1="1798.11" x2="536.08" y2="1830.06"/>
              <line class="cls-10" x1="542.77" y1="1795.42" x2="543.15" y2="1827.37"/>
              <line class="cls-10" x1="549.83" y1="1792.74" x2="550.21" y2="1824.69"/>
              <line class="cls-10" x1="556.89" y1="1790.05" x2="557.27" y2="1822"/>
              <line class="cls-10" x1="563.96" y1="1787.37" x2="564.33" y2="1819.32"/>
            </g>
            <g>
              <line class="cls-10" x1="459.55" y1="1932.97" x2="459.93" y2="1964.92"/>
              <line class="cls-10" x1="466.61" y1="1930.29" x2="466.99" y2="1962.24"/>
              <line class="cls-10" x1="473.67" y1="1927.6" x2="474.05" y2="1959.55"/>
              <line class="cls-10" x1="480.73" y1="1924.92" x2="481.11" y2="1956.87"/>
              <line class="cls-10" x1="487.8" y1="1922.23" x2="488.18" y2="1954.18"/>
              <line class="cls-10" x1="494.86" y1="1919.55" x2="495.24" y2="1951.5"/>
              <line class="cls-10" x1="501.92" y1="1916.86" x2="502.3" y2="1948.81"/>
              <line class="cls-10" x1="508.98" y1="1914.18" x2="509.36" y2="1946.13"/>
              <line class="cls-10" x1="516.05" y1="1911.49" x2="516.43" y2="1943.44"/>
              <line class="cls-10" x1="523.11" y1="1908.81" x2="523.49" y2="1940.76"/>
              <line class="cls-10" x1="530.17" y1="1906.12" x2="530.55" y2="1938.07"/>
              <line class="cls-10" x1="537.23" y1="1903.44" x2="537.61" y2="1935.39"/>
              <line class="cls-10" x1="544.3" y1="1900.75" x2="544.67" y2="1932.7"/>
              <line class="cls-10" x1="551.36" y1="1898.07" x2="551.74" y2="1930.02"/>
              <line class="cls-10" x1="558.42" y1="1895.38" x2="558.8" y2="1927.33"/>
              <line class="cls-10" x1="565.48" y1="1892.7" x2="565.86" y2="1924.65"/>
            </g>
          </g>
          <circle class="cls-3" cx="500.05" cy="1878.16" r="25"/>
        </g>
        <g>
          <g>
            <polygon class="cls-3" points="1837.14 1816.34 1837.14 1975.7 1711.28 1929.84 1708.99 1768.32 1837.14 1816.34"/>
            <polygon class="cls-4" points="1837.14 1929.2 1837.14 1968.94 1720.88 1924.69 1719.97 1884.5 1719.96 1884.26 1837.14 1929.2"/>
            <polygon class="cls-4" points="1837.14 1876.51 1837.14 1916.24 1798.13 1901.44 1771.6 1891.37 1720.66 1872.04 1719.69 1831.84 1719.68 1831.6 1780.73 1854.94 1815.52 1868.24 1837.14 1876.51"/>
            <polygon class="cls-4" points="1837.14 1823.78 1837.14 1863.52 1721.35 1819.58 1720.38 1779.38 1720.38 1779.14 1837.14 1823.78"/>
            <g>
              <line class="cls-10" x1="1833.26" y1="1879.77" x2="1832.88" y2="1911.72"/>
              <line class="cls-10" x1="1826.19" y1="1877.09" x2="1825.81" y2="1909.04"/>
              <line class="cls-10" x1="1819.13" y1="1874.4" x2="1818.75" y2="1906.35"/>
              <line class="cls-10" x1="1812.07" y1="1871.72" x2="1811.69" y2="1903.67"/>
              <line class="cls-10" x1="1805.01" y1="1869.03" x2="1804.63" y2="1900.98"/>
              <line class="cls-10" x1="1797.94" y1="1866.35" x2="1797.56" y2="1898.3"/>
              <line class="cls-10" x1="1790.88" y1="1863.66" x2="1790.5" y2="1895.61"/>
              <line class="cls-10" x1="1783.82" y1="1860.98" x2="1783.44" y2="1892.93"/>
              <line class="cls-10" x1="1776.76" y1="1858.29" x2="1776.38" y2="1890.24"/>
              <line class="cls-10" x1="1769.69" y1="1855.61" x2="1769.31" y2="1887.56"/>
              <line class="cls-10" x1="1762.63" y1="1852.92" x2="1762.25" y2="1884.88"/>
              <line class="cls-10" x1="1755.57" y1="1850.24" x2="1755.19" y2="1882.19"/>
              <line class="cls-10" x1="1748.51" y1="1847.55" x2="1748.13" y2="1879.51"/>
              <line class="cls-10" x1="1741.44" y1="1844.87" x2="1741.06" y2="1876.82"/>
              <line class="cls-10" x1="1734.38" y1="1842.19" x2="1734" y2="1874.14"/>
              <line class="cls-10" x1="1727.32" y1="1839.5" x2="1726.94" y2="1871.45"/>
            </g>
            <g>
              <line class="cls-10" x1="1834.2" y1="1826.64" x2="1833.82" y2="1858.59"/>
              <line class="cls-10" x1="1827.13" y1="1823.95" x2="1826.76" y2="1855.91"/>
              <line class="cls-10" x1="1820.07" y1="1821.27" x2="1819.69" y2="1853.22"/>
              <line class="cls-10" x1="1813.01" y1="1818.59" x2="1812.63" y2="1850.54"/>
              <line class="cls-10" x1="1805.95" y1="1815.9" x2="1805.57" y2="1847.85"/>
              <line class="cls-10" x1="1798.88" y1="1813.22" x2="1798.51" y2="1845.17"/>
              <line class="cls-10" x1="1791.82" y1="1810.53" x2="1791.44" y2="1842.48"/>
              <line class="cls-10" x1="1784.76" y1="1807.85" x2="1784.38" y2="1839.8"/>
              <line class="cls-10" x1="1777.7" y1="1805.16" x2="1777.32" y2="1837.11"/>
              <line class="cls-10" x1="1770.64" y1="1802.48" x2="1770.26" y2="1834.43"/>
              <line class="cls-10" x1="1763.57" y1="1799.79" x2="1763.19" y2="1831.74"/>
              <line class="cls-10" x1="1756.51" y1="1797.11" x2="1756.13" y2="1829.06"/>
              <line class="cls-10" x1="1749.45" y1="1794.42" x2="1749.07" y2="1826.37"/>
              <line class="cls-10" x1="1742.39" y1="1791.74" x2="1742.01" y2="1823.69"/>
              <line class="cls-10" x1="1735.32" y1="1789.05" x2="1734.94" y2="1821"/>
              <line class="cls-10" x1="1728.26" y1="1786.37" x2="1727.88" y2="1818.32"/>
            </g>
            <g>
              <line class="cls-10" x1="1832.67" y1="1931.97" x2="1832.29" y2="1963.92"/>
              <line class="cls-10" x1="1825.61" y1="1929.29" x2="1825.23" y2="1961.24"/>
              <line class="cls-10" x1="1818.54" y1="1926.6" x2="1818.17" y2="1958.55"/>
              <line class="cls-10" x1="1811.48" y1="1923.92" x2="1811.1" y2="1955.87"/>
              <line class="cls-10" x1="1804.42" y1="1921.23" x2="1804.04" y2="1953.18"/>
              <line class="cls-10" x1="1797.36" y1="1918.55" x2="1796.98" y2="1950.5"/>
              <line class="cls-10" x1="1790.29" y1="1915.86" x2="1789.92" y2="1947.81"/>
              <line class="cls-10" x1="1783.23" y1="1913.18" x2="1782.85" y2="1945.13"/>
              <line class="cls-10" x1="1776.17" y1="1910.49" x2="1775.79" y2="1942.44"/>
              <line class="cls-10" x1="1769.11" y1="1907.81" x2="1768.73" y2="1939.76"/>
              <line class="cls-10" x1="1762.04" y1="1905.12" x2="1761.67" y2="1937.07"/>
              <line class="cls-10" x1="1754.98" y1="1902.44" x2="1754.6" y2="1934.39"/>
              <line class="cls-10" x1="1747.92" y1="1899.75" x2="1747.54" y2="1931.7"/>
              <line class="cls-10" x1="1740.86" y1="1897.07" x2="1740.48" y2="1929.02"/>
              <line class="cls-10" x1="1733.79" y1="1894.38" x2="1733.42" y2="1926.33"/>
              <line class="cls-10" x1="1726.73" y1="1891.7" x2="1726.35" y2="1923.65"/>
            </g>
          </g>
          <circle class="cls-3" cx="1792.17" cy="1877.16" r="25"/>
        </g>
      </g>
    </g>
  </g>
</svg>