<?xml version="1.0" encoding="UTF-8"?>
<svg id="Layer_2" data-name="Layer 2" xmlns="http://www.w3.org/2000/svg" viewBox="0 0 2663.53 3338.26">
  <defs>
    <style>
      .cls-1 {
        fill: #fff;
      }

      .cls-2 {
        fill: #ff5c64;
      }

      .cls-3 {
        fill: #8ce4ed;
      }

      .cls-4 {
        fill: #f4812c;
      }

      .cls-5 {
        opacity: .35;
      }

      .cls-5, .cls-6 {
        fill: none;
      }

      .cls-7 {
        fill: #f78b2b;
      }

      .cls-8 {
        fill: #afafaf;
      }

      .cls-9 {
        fill: #d3d3d3;
      }

      .cls-10 {
        fill: #000072;
      }

      .cls-11 {
        fill: #e8e8e8;
      }

      .cls-6 {
        opacity: .2;
      }

      .cls-12 {
        fill: #f9a528;
      }

      .cls-13 {
        fill: #f27e80;
      }

      .cls-14 {
        fill: #686868;
      }
    </style>
  </defs>
  <g id="Layer_1-2" data-name="Layer 1">
    <g class="cls-6">
      <ellipse class="cls-10" cx="1684.32" cy="3212.49" rx="798.12" ry="125.76"/>
    </g>
    <path class="cls-1" d="m2429.7,2487.79c-2.11,34.45-11.38,75.84-29.28,119.73-65.45,160.69-240.71,226.44-374.2,141.85-153.97-97.61-19.06-66.74-19.06-66.74,0,0,44.71-156.34,150.6-188.76,11.64-3.58,24.01-5.61,37.17-5.82,136.38-2.07,145.69-75.63,178.11-90.28,38.29-17.29,60.79,23.41,56.65,90.03Z"/>
    <g class="cls-6">
      <path class="cls-10" d="m2429.7,2487.79c-2.11,34.45-11.38,75.84-29.28,119.73-65.45,160.69-240.71,226.44-374.2,141.85-153.97-97.61-19.06-66.74-19.06-66.74,0,0,44.71-156.34,150.6-188.76,14.57,14.1,31.3,34.84,46.22,64.8,37.08,74.46,141.89,80.97,188.33,11.9,15.35-22.81,28.54-50.14,37.38-82.78Z"/>
    </g>
    <path class="cls-10" d="m2152.34,2804.77c-47.53,0-94.07-13.49-135.89-40-69.21-43.87-89.49-66.06-80.38-87.92,2.5-5.99,9.65-23.09,58.75-15.25,17.2-48.68,77.62-189.96,199.82-191.82,89.97-1.36,117.37-34.17,139.38-60.52,9.58-11.47,18.64-22.31,31.5-28.12,21.2-9.58,42.1-6.65,57.32,8.02,35.9,34.59,33.59,129.32-5.5,225.25-35.26,86.56-102.81,151.33-185.32,177.71-26.44,8.45-53.21,12.64-79.68,12.64Zm-168.58-107.66c9.45,7.96,25.4,19.81,52.24,36.83,55.82,35.39,121.49,43.7,184.91,23.43,72.18-23.08,131.46-80.2,162.63-156.72,37.92-93.08,32.49-167.35,13.98-185.18-2.15-2.07-6.15-5.93-16.98-1.04-5.22,2.36-11.38,9.72-18.5,18.25-23.95,28.67-60.15,72.01-166.85,73.63-117.45,1.78-169.98,179.56-170.5,181.36-2.67,9.31-12.16,14.94-21.61,12.76h0c-6.32-1.44-13.14-2.57-19.34-3.3Z"/>
    <path class="cls-12" d="m1493.35,1756.36l-1.35,128.59-2.05,201.12s-65.54,45.71-174.55,69.54c-47.36,10.34-102.91,16.49-164.91,13.04-339-18.98-450.66-215.41-450.66-215.41l89.02-302.94,13.14-44.76c164.26,226.75,416.74,218.21,566.81,187.34,75.08-15.49,124.54-36.52,124.54-36.52Z"/>
    <path class="cls-7" d="m1493.35,1756.36l-1.35,128.59c-50.76-25.08-92.82-56.35-123.19-92.07,75.08-15.49,124.54-36.52,124.54-36.52Z"/>
    <path class="cls-11" d="m1969.48,1927.17c-55.65,14.09-116.65,21.88-180.64,21.88-130.74,0-249.08-32.47-334.76-84.98h-.05c-15.14-100.91-2.75-155.36-2.75-155.36,0,0,637.79-53.8,656.03,35.12,11.24,54.95-78.73,99.36-137.83,183.34Z"/>
    <path class="cls-7" d="m2005.55,1916.92c-64.94,20.53-138.58,32.12-216.71,32.12-152.52,0-288.15-44.16-374.72-112.85,32.97-52.25,69.19-108.76,101.56-173.5l460.8-56.85c-21.83,60.9.3,179.34,29.07,311.08Z"/>
    <path class="cls-7" d="m2115.66,1868.77c-47.96,28.08-105.51,50.06-169.4,63.84l-55.8-152.07s59.1,17.83,134.58,48.36c28.58,11.54,59.6,24.93,90.62,39.87Z"/>
    <path class="cls-7" d="m1315.42,2155.61c-47.38,10.32-102.93,16.51-164.91,13.04-339.01-19-450.67-215.39-450.67-215.39l89-302.98c35.42,21.67,98.76,62.82,122.07,93.83,33.12,44.05-2.35,228.01,103.78,298.1,119.45,78.91,293.22-41.61,293.22-41.61l7.51,155.01Z"/>
    <path class="cls-10" d="m1185.45,2185.46c-11.74,0-23.71-.32-35.96-1.01-344.95-19.34-460.76-216.2-465.52-224.57l-3.83-6.74,114.79-390.87,21.82,30.11c98.23,135.57,240.11,201.29,421.61,195.49,137.21-4.43,246.78-50.29,247.87-50.75,9.3-3.94,20,.39,23.94,9.66,3.94,9.28-.38,19.99-9.65,23.93-4.67,1.99-116.02,48.73-259.8,53.6-179.19,6.05-327.34-56.67-431.28-181.85l-89.72,305.49c22.39,32.56,141.58,183.75,431.83,200.02,195.18,10.96,326.69-78.43,328-79.33,8.28-5.73,19.65-3.69,25.4,4.58,5.75,8.27,3.72,19.63-4.55,25.38-5.38,3.75-126.91,86.82-314.93,86.83Z"/>
    <path class="cls-1" d="m789.15,1567.83s83.78-51.36,133.99,19.12c29.59,41.53,15.66,229.88-81.8,197.47-87.55-29.11-52.19-216.6-52.19-216.6Z"/>
    <path class="cls-10" d="m862.82,1806.41c-8.75,0-17.87-1.54-27.25-4.66-101.51-33.75-65.93-229.01-64.37-237.3l1.5-7.95,6.9-4.23c34.01-20.84,110.85-42.63,158.4,24.09,26.54,37.25,23.25,145.64-15.02,197.43-15.89,21.5-36.68,32.61-60.16,32.61Zm-57.21-226.69c-8.42,52.97-14.57,168.76,41.48,187.39,19.41,6.46,34.19,1.68,46.52-15.01,30.97-41.91,29.6-133.55,14.64-154.56-32.6-45.76-83.97-26.87-102.65-17.83Z"/>
    <g>
      <path class="cls-12" d="m2463.45,2251.68c-10.44,46.06-44.71,92.77-113.4,137.83-9.64,6.34-19.93,12.64-30.92,18.88,0,0,50.61,140.68-115.7,170.95-29.97,5.45-58.65,3.2-84.23-5.15-103.51-34.02-156.81-169.65-43.41-311.63,2.55-3.3,5.3-6.54,8.09-9.84,5.15-6.09,10.69-12.24,16.54-18.38,7.59-7.99,15.84-16.09,24.68-24.08.35-.35.75-.65,1.1-1,0,0-.4-.6-1.3-1.7-3.1-3.75-12.04-13.34-31.02-25.63-.95-.65-1.95-1.25-3-1.95-3-1.85-6.24-3.8-9.74-5.79-14.19-8.19-32.57-17.23-55.9-26.28l-19.33-52.7-40.32-109.95-.1-.25-75.03-204.47s59.1,17.83,134.58,48.36c31.82,12.84,66.64,27.98,101.16,45.01,0,0,16.39,7.84,42.01,22.03,64.54,35.77,187.64,111.95,253.88,203.97,5.3,7.24,10.14,14.64,14.64,22.13,24.78,41.21,36.87,85.13,26.73,129.64Z"/>
      <path class="cls-7" d="m2115.66,1868.77c-47.96,28.08-105.51,50.06-169.4,63.84l-55.8-152.07s59.1,17.83,134.58,48.36c28.58,11.54,59.6,24.93,90.62,39.87Z"/>
      <path class="cls-7" d="m2209.73,2167.86s-44.16,16.84-84.83,39.72c-3.1-3.75-12.04-13.34-31.02-25.63-.95-.65-1.95-1.25-3-1.95-3-1.85-6.24-3.8-9.74-5.79-14.19-8.19-32.57-17.23-55.9-26.28l-19.33-52.7,30.57-40.51s114.45,110.8,173.25,113.15Z"/>
      <path class="cls-1" d="m2319.12,2408.4s50.6,140.68-115.71,170.94c-29.95,5.43-58.61,3.2-84.2-5.16-103.52-34-156.83-169.6-43.44-311.61,34.22,43.08,133.64,148.2,274.28,126.97-9.61,6.32-19.94,12.64-30.93,18.87Z"/>
      <path class="cls-11" d="m2203.41,2579.33c164.32-29.88,116.84-167.65,115.74-170.92l-.05-.04s-28.53,136.38-177.08,98.97c-94.99-23.97-86.96-143.37-68.82-226.3-1.61-3.27-2.91-6.68-3.97-10.13h-.05c-131.11,173.97-14.57,335.48,134.23,308.42Z"/>
      <path class="cls-10" d="m2171.55,2600.48c-67.92,0-129.17-36.11-158.88-96.37-34.36-69.68-28.34-182.59,87.31-295.27-11.1-9.1-31.67-23.05-66.7-37.92-9.28-3.94-13.61-14.66-9.67-23.94,3.95-9.27,14.66-13.61,23.94-9.67,70.89,30.1,91.64,58.53,93.77,61.66l8.91,13.13-11.76,10.65c-114.06,103.35-122.86,204.76-93.06,265.21,27.9,56.61,88.61,85.41,154.71,73.41,46.92-8.53,78.96-27.06,95.22-55.06,23.93-41.21,6.74-91.3,6.56-91.8l-5.07-14.4,13.25-7.6c94.18-53.47,140.82-113.09,138.62-177.18-5.75-167.22-327.15-323.43-330.39-324.99-113.7-55.96-231.93-91.95-233.12-92.3-9.65-2.92-15.11-13.11-12.19-22.75,2.92-9.65,13.09-15.11,22.75-12.19,1.21.37,122.31,37.23,238.51,94.41,13.9,6.66,344.38,167.32,350.92,356.54,2.62,75.69-46.08,143.96-144.8,203.07,4.99,22.51,10.03,66.75-13.27,107.18-21.83,37.87-62.36,62.43-120.46,73-11.81,2.15-23.56,3.19-35.11,3.19Z"/>
      <path class="cls-10" d="m2325.88,2425.34c-31.58,9.13-63.96,14.96-97.07,13.71,27.62-17.22,54.76-33.16,83.51-47.6,23.82-10.54,38.1,25.07,13.56,33.89h0Z"/>
      <path class="cls-10" d="m2116.89,2193.56c30.41-10.67,61.33-19.65,92.83-25.7-13.33,8.58-26.03,17.8-38.4,27.41-12.15,9.47-24.48,19.54-35.84,29.71-23.41,18.42-46-19.75-18.6-31.41h0Z"/>
    </g>
    <path class="cls-12" d="m1659.9,2595.43c-26.38,61.15-35.92,137.28-41.56,215.06-5.75,78.93-7.39,159.56-18.48,227.9-16.64,102.61-54.35,177.5-158.71,177.5-49.26,0-231.1,11.04-266.27-45.31-13.34-21.38-19.08-50.21-4.8-76.43,10.49-19.23,31.87-37.07,68.99-49.46-10.39-66.09-16.24-133.28-19.23-198.13-7.89-174.25,5.5-331.21,10.64-403.55l429.43,152.42Z"/>
    <path class="cls-7" d="m1618.34,2810.5c-5.75,78.93-7.39,159.56-18.48,227.9-16.64,102.61-54.35,177.5-158.71,177.5-49.26,0-231.1,11.04-266.27-45.31-13.34-21.38-19.08-50.21-4.8-76.43,8.99,18.13,40.96,41.61,144.62,45.66,168.8,6.59,230.1-10.14,239.79-153.87,7.44-110.25-91.42-148.97-100.06-209.52,0,0,79.73,30.22,163.91,34.07Z"/>
    <path class="cls-11" d="m1608.8,2959.92c-17.63,137.83-30.17,255.98-167.7,255.98-49.21,0-231.05,11.04-266.22-45.31-13.34-21.43-19.08-50.26-4.75-76.43,8.94,18.13,40.91,41.61,144.57,45.66,167.3,6.54,229-9.84,239.49-150.07,21.18-7.74,39.72-17.63,54.6-29.82Z"/>
    <path class="cls-1" d="m1608.81,2959.9c-17.65,137.83-30.2,256.01-167.71,256.01-49.22,0-231.07,11.03-266.24-45.35-23.12-37.13-23.43-96.62,64.25-125.83-3.16-19.92-5.56-39.66-7.34-59.18,131.43,39.35,301.23,36.32,377.04-25.65Z"/>
    <g class="cls-6">
      <path class="cls-10" d="m1608.8,2959.92c-17.63,137.83-30.17,255.98-167.7,255.98-49.21,0-231.05,11.04-266.22-45.31-13.34-21.43-19.08-50.26-4.75-76.43,8.94,18.13,40.91,41.61,144.57,45.66,167.3,6.54,229-9.84,239.49-150.07,21.18-7.74,39.72-17.63,54.6-29.82Z"/>
    </g>
    <path class="cls-10" d="m1378.29,3234.92c-100.44,0-190.6-9.28-218.91-54.68-16.35-26.22-20.29-56.32-10.82-82.61,7.12-19.77,25.15-46.21,70.25-64.84-33.41-227.77-15.57-468.58-7.86-572.67l1.35-18.4c.73-10.05,9.33-17.66,19.52-16.89,10.05.72,17.62,9.46,16.89,19.52l-1.36,18.48c-7.79,105.09-26.02,351.18,9.76,579.07,1.38,8.81-3.8,17.33-12.26,20.15-33.21,11.07-54.63,27.66-61.95,47.96-8.03,22.29,2.53,43.04,7.45,50.92,25.61,41.06,178.29,38.05,228.46,37.05,8.94-.18,16.51-.32,22.29-.32,127.24,0,143.31-120.52,154.65-319,5.85-102.38,11.9-208.24,47.4-290.47,3.99-9.25,14.73-13.53,23.99-9.52,9.25,4,13.52,14.74,9.52,23.99-32.94,76.29-38.8,178.87-44.47,278.08-9.93,173.75-20.2,353.42-191.1,353.42-5.59,0-12.92.15-21.57.32-13.85.27-27.65.44-41.25.44Z"/>
    <path class="cls-10" d="m1379.37,3120.97c-9.89,14.74-14.25,33.61-10.3,51.1,3.45,15.47,13.31,31.84,29.7,32.59,16.02,1.54,16.06,24.72.17,26.41-46.7,3.39-69.57-55.59-53.88-93.23,4.41-10.88,12.17-20.93,22.8-26.36,1.59-.85,2.97-1.34,5.16-2.15,3.1-1.13,6.52.45,7.66,3.55,1.11,2.39-.66,5.82-1.32,8.09h0Z"/>
    <path class="cls-10" d="m1259.8,3103.6c-13.37,14.23-17.78,33-14.62,52.63,2.45,16.73,10.82,36.9,26.65,42.55,16.05,4.75,10.83,28.35-5.64,25.9-44.74-9.21-59.02-68.23-43.47-105.88,4.62-9.84,12.03-18.29,21.53-23.4,5.03-2.71,15.63-7.75,18.09.88.81,2.88-.77,5.33-2.56,7.33h0Z"/>
    <path class="cls-12" d="m2065.94,2514.54c4,113.63,34.65,418.01,49.37,538.18,80.27,25.94,89.28,86.55,62.44,130.5-34.62,56.7-229.98,48.58-279.09,45.32-189.17-12.56-219.51-440.9-223.76-460.39"/>
    <path class="cls-12" d="m2177.75,3183.22c-34.62,56.7-230,48.61-279.11,45.31-189.14-12.54-219.51-440.87-223.76-460.35l58.4-37.87c67.19,10.19,139.88,23.58,139.03,34.02-3.1,39.17-67.74,54.4-89.07,96.47-42.91,84.68,31.42,235.99,70.69,262.37,76.38,51.36,189.83,43.51,269.17,31.47,41.71-6.29,58.35-24.33,64.74-39.97,7.34,22.93,2.7,47.61-10.09,68.54Z"/>
    <path class="cls-7" d="m2177.75,3183.22c-34.62,56.7-230,48.61-279.11,45.31-189.14-12.54-219.51-440.87-223.76-460.35l58.4-37.87c67.19,10.19,139.88,23.58,139.03,34.02-3.1,39.17-67.74,54.4-89.07,96.47-42.91,84.68,31.42,235.99,70.69,262.37,76.38,51.36,189.83,43.51,269.17,31.47,41.71-6.29,58.35-24.33,64.74-39.97,7.34,22.93,2.7,47.61-10.09,68.54Z"/>
    <path class="cls-11" d="m2177.75,3183.22c-34.62,56.7-230,48.61-279.11,45.31-101.31-6.69-157.11-132.78-187.69-251.43,15.79,7.94,39.47,17.38,72.99,25.08,17.68,56.6,48.91,106.81,69.99,120.99,76.38,51.36,189.83,43.51,269.17,31.47,41.71-6.29,58.35-24.33,64.74-39.97,7.34,22.93,2.7,47.61-10.09,68.54Z"/>
    <path class="cls-14" d="m2191.33,3137.17c0,2.31-.09,4.62-.31,6.89-.09,1.33-.22,2.62-.44,3.96-.09.84-.22,1.64-.36,2.45-.09.58-.18,1.11-.31,1.69-.44,2.4-.98,4.76-1.65,7.11-.36,1.24-.71,2.44-1.11,3.6-.09.31-.18.62-.27.93-.98,2.84-2.09,5.69-3.33,8.49-.13.31-.27.62-.4.93-.76,1.56-1.51,3.11-2.31,4.62-.98,1.82-2,3.6-3.07,5.38-34.64,56.69-230,48.6-279.13,45.31-101.33-6.71-157.08-132.81-187.67-251.43,22.68,11.38,61.67,25.92,122.58,33.92,17.16,79.94,59.67,146.37,139.74,159.08,95.82,15.25,179.76-7.91,216.62-47.4.22,1.2.44,2.45.62,3.65.18,1.2.36,2.4.44,3.65.13,1.2.22,2.4.27,3.65.04,1.16.09,2.31.09,3.51Z"/>
    <path class="cls-1" d="m2177.77,3183.24c-34.64,56.69-230,48.6-279.13,45.31-101.33-6.71-157.08-132.81-187.67-251.43,46.82,23.52,163.26,60.47,398.11,25.3,2.18,17.34,4.27,34.28,6.22,50.33,80.3,25.92,89.28,86.52,62.47,130.49Z"/>
    <g class="cls-6">
      <path class="cls-10" d="m2177.75,3183.22c-34.62,56.7-230,48.61-279.11,45.31-101.31-6.69-157.11-132.78-187.69-251.43,15.79,7.94,39.47,17.38,72.99,25.08,17.68,56.6,48.91,106.81,69.99,120.99,76.38,51.36,189.83,43.51,269.17,31.47,41.71-6.29,58.35-24.33,64.74-39.97,7.34,22.93,2.7,47.61-10.09,68.54Z"/>
    </g>
    <path class="cls-10" d="m2084.18,2513.9c8.62,179.12,29.52,358.35,48.67,536.68,0,0-12.12-14.67-12.1-14.66,73.03,21.59,114.86,89.53,70.37,159.7-37.61,50.74-150.34,51.84-208.83,53.7-33.3-.07-63.63.23-97.33-3.49-35.41-4.81-68.24-25.59-91.88-50.68-85.07-91.13-121.72-272.46-126.68-394.26-.77-9.87-.14-22.34-.43-32.24.12-10.43,14.97-12.58,17.84-2.43,2.75,9.45,5.07,22.11,7.25,31.7,26.1,119.24,47.28,277.44,129.96,370.75,19.3,20.51,42.28,35.84,69.68,40.12,28.89,3.3,61.67,3.55,91.27,3.66,44.19-1.01,169.84-1.59,185.43-48.17,10.51-22.85,7.31-49.66-10.99-67.87-11.71-12.22-28.52-20.99-46.6-26.88-6.69-2.26-11.17-8.09-12.05-14.65-5.92-44.86-10.74-89.69-15.56-134.55-12.25-130.95-28.09-274.27-34.52-405.14-.46-23.91,34.98-25.88,36.49-1.28h0Z"/>
    <path class="cls-10" d="m1970.81,3117.35c40.51,16.19,41.39,75.13,14.81,104.81-4.81,5.36-10.88,10.12-18.01,13.23-11.78,5.57-35.45,7.76-34.67-10.75.64-6.84,6.37-11.87,13-12.03,15.93-1.27,25.41-17.35,28.83-32.52,3.95-17.49-.41-36.36-10.3-51.1,0,0-1.38-4.17-1.38-4.17-1.68-4.57,3.26-9.28,7.72-7.47h0Z"/>
    <path class="cls-10" d="m2089.42,3104.14c44.65,12.71,45.64,73.21,24.7,106.98-7.87,12.73-20.91,23.77-36.48,26.21-7.22,1.22-14.05-3.65-15.26-10.87-1.17-6.84,3.17-13.23,9.63-15.03,15.84-5.67,24.2-25.81,26.66-42.55,3.16-19.63-1.25-38.41-14.62-52.63-5.44-5.04-2.14-13.45,5.38-12.11h0Z"/>
    <path class="cls-12" d="m1976.5,1605.83c-29.43,82.1,20.98,268.75,59.99,451.42,29.68,139.03,123.12,444.85-45.82,626.87-181.56,195.61-642.24,172.05-745.69-98.28-36.11-94.36-51.58-249.49,84.97-596.52,38.56-97.99,119.99-195.07,185.74-326.61"/>
    <path class="cls-7" d="m2005.55,1916.92c-64.94,20.53-138.58,32.12-216.71,32.12-152.52,0-288.15-44.16-374.72-112.85,32.97-52.25,69.19-108.76,101.56-173.5l460.8-56.85c-21.83,60.9.3,179.34,29.07,311.08Z"/>
    <path class="cls-1" d="m1451.28,1708.69s-15.27,67.13,8.87,190.39c20.61,105.23-65.82,220.88-102.26,340.77-44.09,145.06-40.38,333.5,142.23,397.25,276.23,96.44,562.66-47,471.44-427.84-18.39-76.77-50.22-190.64-27.25-239.26,53.41-113.06,176.06-162.52,163-226.17-18.24-88.93-656.03-35.15-656.03-35.15Z"/>
    <g class="cls-6">
      <path class="cls-10" d="m1969.48,1927.17c-55.65,14.09-116.65,21.88-180.64,21.88-130.74,0-249.08-32.47-334.76-84.98h-.05c-15.14-100.91-2.75-155.36-2.75-155.36,0,0,637.79-53.8,656.03,35.12,11.24,54.95-78.73,99.36-137.83,183.34Z"/>
    </g>
    <path class="cls-10" d="m1236.45,2586.53c-80.86-140.21-5.91-391.67,50.32-533.6,9.95-23.94,21.48-47.14,34.68-69.52,2.64-4.38,8.32-5.79,12.7-3.16,3.47,2.09,5.08,6.09,4.29,9.84-10.05,50.91-27.63,98.56-42.24,147.21-27.26,90.55-50.05,182.4-56.63,276.71-1.46,30.6-.74,61.98,2.54,92.39,2.35,24.51,6.45,48.75,11.38,73.64,2.05,9.97-11.9,15.43-17.05,6.49h0Z"/>
    <path class="cls-10" d="m1876.08,2772.64c-126.7,68.8-295.21,78.77-424.83,12.36-9.28-5.03-3.94-19.46,6.4-17.1,68.28,15.52,136.7,23.73,206.39,22.59,69.1-.72,138.19-11.77,204.58-34.51,10.32-3.52,17.09,11.22,7.46,16.66h0Z"/>
    <path class="cls-10" d="m2045.41,2052.78c55.87,141.59,102.52,407.79,13.98,541.08-2.86,4.24-8.62,5.36-12.86,2.5-3.33-2.25-4.75-6.31-3.78-10,11.04-43.48,19.66-85.9,24.02-129.7,5.96-66.2.61-132.97-8.53-198.76-8.27-67.51-27.55-132.91-30.67-201.31-.34-10.05,14-13.31,17.85-3.81h0Z"/>
    <path class="cls-12" d="m988.1,1362.38c.65,1.84.14,4.13-1.88,5.15-13.3,18.01-23.1,24.09-59.93,46.93-49.37,30.57-21.26,60.75,55.77,110.97,77.09,50.18,364.54,256.28,646.77,302.43l183.99,19.64c285.61,14.47,610.1-126.31,696.04-159.09,85.9-32.83,119.79-56.38,77.94-96.69-31.17-30.1-39.48-38.11-48.67-58.52-1.75-1.43-1.77-3.77-.75-5.43.68-.99,1.82-1.71,3.28-1.73,89.53-19.56,136.79-54.39,79.7-97.87-58.32-44.37-104.11-156.4-110.54-213.15-5.34-46.59-13.3-95.99-26.48-147.84-.04-.05-.03-.14-.07-.18-9.15-36.11-20.88-73.43-36.07-111.87,228.32-298.27,164.95-670.08,63.05-785.08-19.78-22.42-41.04-35.09-61.91-35.6-102.88-2.57-225.02,268.14-417.61,458.88-98.67-35.8-172.89-39.03-172.89-39.03,0,0-73.27-12.51-177.28,1.65-147.99-227.1-210.23-517.5-311.33-536.7-125.91-23.93-363.48,396.6-172.13,802.42-55.9,83.78-90.59,165.39-116.07,240.82-18.26,54.12-86.71,153.95-153.04,185.01-64.98,30.46-26.09,74.48,57.25,112.49,1.43.33,2.39,1.27,2.84,2.38Z"/>
    <path class="cls-4" d="m2202.79,687.45c75.06,87.4,196.9,142.4,280.49,379.54-9.15-36.11-20.88-73.43-36.07-111.87,228.32-298.27,164.95-670.08,63.05-785.08-13.1,1.3-26.81,8.25-41.09,22.21-141.82,138.77-278.19,481.46-266.38,495.2Z"/>
    <path class="cls-4" d="m1494.29,611.81c-91.82,69.59-222.53,97.63-354.29,311.77,16.57-33.37,35.91-67.37,58.87-101.74-160.21-339.75-19.78-689.8,104.1-780.7,12.53,4.04,24.47,13.72,35.48,30.38,109.33,165.58,170.29,529.34,155.84,540.28Z"/>
    <path class="cls-1" d="m982.08,1525.44c77.07,50.17,364.54,256.26,646.78,302.4l183.96,19.64c285.62,14.48,610.12-126.28,696.04-159.05,85.93-32.83,119.78-56.41,77.94-96.73-31.17-30.1-39.46-38.07-48.67-58.48-1.73-1.45-1.75-3.81-.73-5.43-88.24,30.9-365.94,14.01-525.84-84.38-205.38-126.34-72.19-312.72-69.61-528.16,1.01-80.27-42.62-156.95-105.17-163.63-62.55-6.68-121.38,59.07-137.34,137.74-42.96,211.13,47.88,421.42-179.54,501.56-177.07,62.42-452.08,20.3-531.81-28.53.65,1.8.14,4.11-1.86,5.16-13.31,18-23.09,24.05-59.92,46.89-49.41,30.58-21.29,60.78,55.77,111Z"/>
    <g class="cls-6">
      <path class="cls-10" d="m982.07,1525.44c77.03,50.15,364.33,256.13,646.49,302.35l184.57,19.7c285.56,14.38,609.83-126.31,695.74-159.07,68.45-26.18,103.86-46.46,94.23-73.97-87.27,34.16-227.78,86.59-385.51,123.16-160.21,37.14-325.63,46.33-489.15,28.88h0c-163.53-17.46-323.3-61.36-472.06-131.49-146.44-69.04-272.71-149.95-350.8-201.75-15.22,24.86,15.11,52.15,76.49,92.19Z"/>
    </g>
    <path class="cls-1" d="m2037.35,951.22c3.38,39.08,50,53.58,117.53,85.22,59.25,27.76,133.01,23,127.65-43.37-2.86-35.42-46.06-74.1-109.66-89.47-81.56-19.71-138.84,9.28-135.53,47.62Z"/>
    <path class="cls-1" d="m1598.57,904.38c-11.56,37.48-60.18,41.82-132.87,58.49-63.77,14.63-134.87-5.59-115.62-69.34,10.27-34.02,60.66-62.71,126.07-64.31,83.89-2.05,133.76,38.38,122.42,75.15Z"/>
    <path class="cls-10" d="m1627.4,1836.85c-233.04-22.35-462.28-165.01-653.18-292.47-41.84-27.66-133.83-84.14-70.59-137.34,22.61-17.95,50.67-26.9,67.91-50.33,0,0,6.15-5.3,6.15-5.3-4.83,2.3-8.44,8.95-7.49,14.24.49,5.5,5.85,11.54,11.56,12.28,0,0-4.09-1.31-4.09-1.31-27.86-13.16-54.54-26.63-77.8-48.58-39.28-38.03-24.86-77.41,22.84-98.35,0,0,4.15-2.21,4.15-2.21l4.16-2.19c3.98-2.74,8.27-5.17,12.16-7.95,52.31-38.82,103.65-108.59,124.08-170.8,28.37-82.56,66-162.22,114.65-234.96,0,0-1.33,17.92-1.33,17.92-98.89-208.14-98.71-461.68,4.77-668.13,32.39-61.84,86.85-146.04,160.43-160.25,49.52-8.57,88.11,34.85,111.81,72.24,26.67,41.47,47.07,86.57,67.31,130.89,52.21,116.6,101.42,234.87,170.97,341.76,0,0-17.76-8.12-17.76-8.12,15.06-1.93,30.14-3.66,45.29-4.74,42.28-3.98,101.74-2.33,135.24,2.92,46.14,3.29,90.87,13.02,135.08,25.94,14.58,4.25,28.95,9.13,43.27,14.19l-19.07,4.19c90.54-89.81,163.6-195.01,239.26-297.97,29.14-39.04,58.6-78.81,93.42-113.73,31.03-31.53,78.04-65.95,124.54-47.01,91.98,39.63,130.98,197.06,141.02,287.79,22.12,196.36-33.71,400.17-154.41,556.79,0,0,2.49-17.79,2.49-17.79,32.2,81.37,52.16,167.18,62.47,253.87,2.47,27.03,9.94,53.37,19.59,78.82,15.81,41.32,36.33,81.17,65.63,114.33,2.2,2.42,4.54,4.6,6.79,6.92l3.41,3.43,3.6,3.02,3.59,3.04c27.22,19.93,48.49,51.76,22.29,83.52-28.07,30.16-69.42,39.11-107.03,48.5,0,0-4.28.42-4.28.42,5.48.36,12.34-4.08,13.83-9.39,1.98-4.96.23-11.94-3.94-15.4,0,0-.31-.26-.31-.26l4.89,6.48c7.57,17.1,19.61,27.38,33.06,40.51,12.07,11.79,26.88,23.63,33.25,41.07,19.89,58.32-69.34,84.45-108.53,101.33-36.57,14.45-73.9,29.49-111.43,43.22-112.63,41.66-229.09,76.29-347.71,96.23-49.52,8.41-100.03,14.72-150.42,14.54-30.35.56-60.6-2.04-90.65-6.02-11.21-1.83-10.12-17.7.92-18.23,117.74-7,234.75-22.38,348.59-52.96,115.06-29.43,225.67-70.78,336.24-114.44,17.61-7.05,91.09-33.01,86.65-50.41-2.17-6.04-7.44-11.28-12.73-16.59,0,0-10.7-10.52-10.7-10.52-14.94-14.42-32.07-32.71-39.83-52.75,0,0,4.89,6.47,4.89,6.47-11.07-8.91-10.29-26.92,1.26-35.16,3.81-2.86,8.98-4.37,13.42-4.22l-4.28.42c13.46-3,26.8-6.4,39.53-10.69,17.55-6.03,35.38-12.93,47.29-25.55,2.21-2.52,3.3-4.66,3.34-7.34-1.57-10.97-16.4-20.56-24.97-28.1-5.99-4.94-11.71-10.9-17.01-16.46-46.84-53.43-82.69-132.52-93.25-202.83-9.72-87.31-29.07-173.74-61.44-255.4-2.42-6.16-1.24-12.88,2.49-17.8,115-149.17,168.19-343.54,147.12-530.53-7.09-61.47-21.69-123.38-48.98-178.77-16.76-32.46-46.02-81.28-85.3-81.88-26.14,1.68-50.06,23.02-69.3,41.73-10.91,10.68-21.2,22.46-31.36,34.37-101.19,124.7-184.59,262.66-301.33,377.34-5.17,5.13-12.65,6.53-19.07,4.19-54.58-19.49-111.96-33.8-169.76-38.22-42.26-5.86-86-5.89-128.62-2.75-14.42,1.02-28.78,2.69-43.12,4.51-7.2,1-14.04-2.41-17.76-8.12-71.36-109.76-121.46-230-173.65-346.68-24.47-50.74-70.33-166.18-123.56-181.4-24.37-5.7-51.06,12.16-69.86,29.08-56.4,52.55-91.3,125.09-116.41,197.35-39.78,118.76-48.75,248.07-25.81,371.22,11.36,61.64,31.02,121.65,57.63,178.41,2.82,5.99,2.07,12.77-1.33,17.92-51.47,76.15-88.58,160.87-118.13,247.74-28.36,64.86-80.03,135.04-139.62,173.98,0,0-4.96,3.18-4.96,3.18l-5.32,2.84-10.16,5.32c-5.5,2.67-10.58,5.72-14.23,8.89-3.64,3.18-5.7,6.22-5.95,7.99-.3.93-.29,1.79-.05,3.09,1.67,6.33,5.88,11.49,11.51,17.04,18.61,17.44,43.71,30.51,67.46,41.5,0,0-4.09-1.31-4.09-1.31,20.53,3.69,24.15,32.36,6.03,41.59,0,0,6.15-5.3,6.15-5.3-11.77,17.93-32.44,32.21-50.07,43.14,0,0-12.68,8.02-12.68,8.02-4.11,2.6-7.18,4.65-10.01,7.09-2.76,2.32-4.91,4.7-5.94,6.45-1.04,1.83-1.09,2.48-1.09,3.33.08.88.52,2.72,1.97,5.26,6.29,9.99,15.65,18.08,25.79,26.04,14.7,11.46,30.83,22.23,47.38,32.98,33.57,22.09,66.18,43.99,99.53,65.25,99.51,63.43,203.14,121.59,311.83,167.25,72.51,30.16,146.5,55.36,222.72,75.66,10.69,2.67,8.11,18.8-2.94,18.01h0Z"/>
    <g>
      <ellipse class="cls-10" cx="1443.88" cy="1237.91" rx="116.42" ry="134.84"/>
      <ellipse class="cls-1" cx="1478.57" cy="1211.17" rx="63.23" ry="48.57" transform="translate(177.12 2610.93) rotate(-86.41)"/>
      <g class="cls-5">
        <ellipse class="cls-1" cx="1391.89" cy="1283.94" rx="33.21" ry="50.65" transform="translate(-213.32 279.37) rotate(-10.65)"/>
      </g>
    </g>
    <g>
      <ellipse class="cls-10" cx="2102.81" cy="1298.39" rx="116.42" ry="134.84"/>
      <ellipse class="cls-1" cx="2068.12" cy="1271.66" rx="48.57" ry="63.23" transform="translate(-75.63 132.11) rotate(-3.59)"/>
      <g class="cls-5">
        <ellipse class="cls-1" cx="2154.8" cy="1344.42" rx="50.65" ry="33.21" transform="translate(435.28 3213.62) rotate(-79.35)"/>
      </g>
    </g>
    <g>
      <path class="cls-13" d="m2220.16,709.65c85.58,70.24,147.79,156.84,157.7,157.9,3.27.35,42.2-33.82,77.81-125.46,14.28-36.9,28.08-83.1,38.79-140.12,16.18-86.21,14.46-168.39,4.21-232.69-12.27-76.91-36.7-128.29-57.26-130.48-12.26-1.26-72.81,80.16-125.52,161.26-82.04,126.27-160.84,256.13-95.73,309.6Z"/>
      <path class="cls-2" d="m2220.16,709.65c85.58,70.24,147.79,156.84,157.7,157.9,3.27.35,42.2-33.82,77.81-125.46-191.16-44.66-111.59-340.5-33.52-377,33.54-15.69,58.39-9.99,76.52,4.18-12.27-76.91-36.7-128.29-57.26-130.48-12.26-1.26-72.81,80.16-125.52,161.26-82.04,126.27-160.84,256.13-95.73,309.6Z"/>
      <path class="cls-10" d="m2377.35,885.75c-.48,0-.97-.02-1.44-.08-10.84-1.16-17.98-9.22-44.53-39.18-28.34-31.98-71.16-80.31-122.82-122.74-81.33-66.78,14.79-214.73,92.02-333.61,27.01-41.56,55.71-82.64,78.75-112.7,41.91-54.68,52.47-58,63.97-56.78,11.24,1.19,21.77,8.3,31.31,21.12,34.14,45.87,69.75,193.13,37.77,363.54-19.96,106.41-50.53,174.66-72.66,213.17-9.19,16-40.39,67.25-62.38,67.25Zm64.83-626.22c-15.9,15.07-58.19,69.23-110.99,150.49-78.71,121.16-151.23,243.01-99.47,285.51,53.91,44.26,97.88,93.9,126.98,126.75,6.53,7.37,13.58,15.33,18.98,21.12,19.53-21.63,69.8-90.11,98.82-244.8,19.97-106.42,10.04-194.11,2.35-236.9-11.08-61.66-27.71-92.9-36.68-102.16Z"/>
      <path class="cls-13" d="m1452.93,627.75c-98.48,50.6-177.56,122.11-187.48,121.05-3.27-.35-34.11-41.96-49.57-139.06-6.17-39.09-9.91-87.16-8.34-145.16,2.38-87.68,21.41-167.65,45.01-228.34,28.22-72.58,62.96-117.65,83.51-115.45,12.24,1.36,54.25,93.73,88.65,184.12,53.54,140.74,103.15,284.32,28.22,322.83Z"/>
      <path class="cls-2" d="m1452.93,627.75c-98.48,50.6-177.56,122.11-187.48,121.05-3.27-.35-34.11-41.96-49.57-139.06,196.28-3.3,180.95-309.27,112.34-361.43-29.47-22.41-54.97-22.09-75.67-12.07,28.22-72.58,62.96-117.65,83.51-115.45,12.24,1.36,54.25,93.73,88.65,184.12,53.54,140.74,103.15,284.32,28.22,322.83Z"/>
      <path class="cls-10" d="m1265.88,767.06c-.79,0-1.57-.04-2.36-.13h0c-22.05-2.36-42.46-61.17-48.19-79.14-13.51-42.32-28.98-115.48-26.03-223.71,4.72-173.32,70.62-309.75,113.66-347.37,12.04-10.52,23.85-15.23,35.07-14.04,11.42,1.23,21.11,6.69,50.55,69,16.18,34.25,35.56,80.45,53.18,126.78,50.4,132.5,113.12,297.41,19.53,345.52-59.47,30.57-111.53,68.78-145.98,94.06-29.9,21.94-39.54,29.02-49.41,29.02Zm65.03-626.15c-10.73,7.15-33.57,34.18-57.42,92.11-16.55,40.21-44.76,123.82-47.71,232.06-4.29,157.32,30.39,234.87,44.91,260.14,6.5-4.51,15.06-10.8,22.99-16.62,35.38-25.97,88.85-65.21,150.89-97.1,59.57-30.62,14.4-165.03-36.96-300.07-34.45-90.57-64.36-152.44-76.71-170.53Z"/>
    </g>
    <path class="cls-1" d="m1421.87,1468.74s102.8,139.23,232.91,130.9c84.03-5.4,100.09-80.88,103.15-109.53-3.06,28.69-3.29,105.79,77.67,128.84,125.45,35.62,255.33-78.78,255.33-78.78l-327.61-96.51s-4.66,39.63-5.38,46.38c.72-6.75,4.5-46.48,4.5-46.48l-340.57,25.18Z"/>
    <g class="cls-6">
      <path class="cls-10" d="m1406.66,1598.26s158.36-119.97,282.38-79.47c80.12,26.17,47.34,65.04,47.34,65.04,0,0-36.05-55,48.15-57.89,130.43-4.39,285.19,159.82,285.19,159.82l-17.08.74c-39.35-42.8-96.14-104.43-180.41-101.59-76.11,2.61-84.97,34.77-148.97,25.69-64-9.08-36.92-18.82-109.53-42.54-80.12-26.17-141.4-.56-191.1,29.6l-15.96.6Z"/>
    </g>
    <path class="cls-10" d="m1716.17,1556.81c12.54.2,27.86,2.3,40.22,1.39,15.63-1.16,39.53.34,47.67,1.83,39.83,7.28,99.78,16.5,168.26,67.06,29.48,21.05,56.73,45.95,84.1,69.92,7.23,7.2,19.43-1.49,14.79-10.69h0c-35.4-67.7-118.82-103.02-184.03-144.73-5.88-3.76-182.64-67.57-185.76-4.17"/>
    <path class="cls-10" d="m1406,1618.77c74.61-40.75,89.13-46.86,176.96-70.29,5.09-1.36,52.91-9.6,126.87,8.1,29.47,7.05,41.56,5.7,43.4-19.91,2.4-33.3-61.71-23.21-102.75-28.94-36.42-5.09-136.2,16.06-161.45,28.06-35.89,17.06-68.8,38.85-94.96,69.17-6.62,7.99,3.07,19.22,11.92,13.82h0Z"/>
    <path class="cls-10" d="m1716.17,1556.81c9.96.46,19.92.92,29.87,1.39,6.71-38.43,13.41-76.86,20.12-115.29-9.77-.35-19.54-.7-29.31-1.05"/>
    <path class="cls-10" d="m1627.04,1376.58c-2.92,27.39,53.98,78.14,93.14,109.57,21.75,17.46,51.6,20.64,76.54,8.17,44.91-22.46,111.25-60.05,114.17-87.44,8.37-78.38-275.49-108.69-283.85-30.3Z"/>
    <g class="cls-5">
      <path class="cls-1" d="m1706.98,1360.86c-.75,7.01,26.28,21.34,44.81,30.29,10.29,4.97,23.97,6.43,35.08,3.74,20-4.84,49.45-13.14,50.2-20.15,2.14-20.07-127.95-33.96-130.09-13.89Z"/>
    </g>
    <path class="cls-9" d="m863.76,2089.76l-71.95,9.56c-15.19,2.01-29.15-8.65-31.16-23.84l-12.53-94.3-24.84-186.99-51.32-385.93-31-233.17c-2.05-15.19,8.65-29.15,23.84-31.16l71.95-9.56c15.19-2.01,29.15,8.65,31.16,23.84l31,233.12,50.72,381.54,21.76,163.9,16.22,121.82c2.05,15.19-8.65,29.15-23.84,31.16Z"/>
    <path class="cls-8" d="m871.39,1936.78c-26.7,9.03-59.82,10.56-83.66,11.93-21.19,1.2-33.02,16.74-39.61,32.46l-24.84-186.99c42.72-7.37,91.25-15.5,126.35-21.31l21.76,163.9Z"/>
    <path class="cls-8" d="m798.91,1391.34l-126.95,16.92-31-233.17c-2.05-15.19,8.65-29.15,23.84-31.16l71.95-9.56c15.19-2.01,29.15,8.65,31.16,23.84l31,233.12Z"/>
    <path class="cls-10" d="m787.67,2117.89c-22.44,0-42.02-16.65-45.06-39.48l-119.84-901.41c-3.3-24.86,14.24-47.77,39.09-51.07l73.01-9.71c24.82-3.3,47.77,14.22,51.08,39.08l119.84,901.41c3.3,24.86-14.24,47.77-39.09,51.07h0s-73.01,9.71-73.01,9.71c-2.02.27-4.03.4-6.02.4Zm76.62-28.2h.05-.05Zm-123.42-937.37c-.39,0-.79.03-1.19.08l-73.01,9.71c-4.9.65-8.36,5.17-7.71,10.08l119.84,901.41c.65,4.9,5.2,8.37,10.08,7.71l73-9.71c4.9-.65,8.36-5.17,7.71-10.08l-119.84-901.41c-.6-4.5-4.46-7.79-8.89-7.79Z"/>
    <g>
      <path class="cls-1" d="m1318.36,1225.58l-1185.37,157.59c-24.98,3.32-47.93-14.24-51.25-39.22l-63.08-474.46c-3.32-24.98,14.24-47.93,39.22-51.25l1185.37-157.59c24.98-3.32,47.93,14.24,51.25,39.22l63.08,474.46c3.32,24.98-14.24,47.93-39.22,51.25Z"/>
      <path class="cls-10" d="m126.93,1401.83c-31.51,0-59.02-23.39-63.29-55.47L.57,871.89c-2.25-16.92,2.23-33.7,12.6-47.25,10.37-13.55,25.4-22.26,42.32-24.5l1185.37-157.59c16.91-2.25,33.7,2.22,47.25,12.59s22.25,25.4,24.5,42.32l63.08,474.47c2.25,16.92-2.23,33.7-12.6,47.25-10.37,13.55-25.4,22.25-42.31,24.5l-1185.37,157.59c-2.85.38-5.67.56-8.47.56Zm1122.4-723.33c-1.22,0-2.44.08-3.67.24L60.29,836.33c-7.25.96-13.69,4.69-18.14,10.5-4.44,5.81-6.36,13-5.4,20.25l63.08,474.47c1.99,14.97,15.79,25.51,30.75,23.53l1185.38-157.59c7.25-.96,13.69-4.69,18.13-10.5,4.44-5.81,6.36-13,5.4-20.25l-63.08-474.47c-.96-7.25-4.69-13.69-10.5-18.13-4.82-3.69-10.61-5.64-16.58-5.64Z"/>
    </g>
    <path class="cls-1" d="m893.79,1815.15c-1.74,21.58-4.74,37.63-8.77,44.66-32.04,55.92-97.63,50.1-125.69,49.68-13.56,26.6-6.71,105.89-6.71,105.89,0,0-109.12-79.85-101.48-232.6.09-2.11.23-4.22.38-6.33,14.97-211.96,78.07-237.16,138.07-237.72,36.97-.38,80.88,23.83,91.39,74.69,13.93,67.46,16.98,150.32,12.81,201.74Z"/>
    <g class="cls-6">
      <path class="cls-10" d="m893.79,1815.15c-1.74,21.58-4.74,37.63-8.77,44.66-32.04,55.92-97.63,50.1-125.69,49.68-13.56,26.6-6.71,105.89-6.71,105.89,0,0-109.12-79.85-101.48-232.6,12.24,24.68,37.44,59.02,85.06,65.4,56.49,7.6,125.22,5.11,157.59-33.03Z"/>
    </g>
    <path class="cls-10" d="m774.26,2053.82l-32.41-23.7c-4.91-3.6-120.19-89.92-108.54-254.95,15.76-223.27,87.74-254.05,156.09-254.71.32,0,.63,0,.95,0,44.91,0,96.35,30.51,108.49,89.28,19.01,92.03,20.06,227.67,2.02,259.17-32.81,57.29-93.88,59.76-128.48,59.14-4.33,21.08-3.77,60.14-1.56,85.77l3.44,40.01Zm16.15-496.87c-.22,0-.43,0-.65,0-36.52.35-104.51,1.01-120.02,220.78-6.54,92.71,33.08,157.63,62.82,192.63.12-24.87,2.35-53.12,10.52-69.17l5.17-10.14,11.38.18c1.95.03,4.08.09,6.36.15,38.11,1,80.64-1.24,103.19-40.62,8.74-15.25,14.55-133.72-6.09-233.65-8.55-41.42-43.53-60.16-72.68-60.16Z"/>
    <path class="cls-10" d="m716.31,1897.57c15.97-4.17,31.28-6.45,48.06-5.87,10.38.32,18.54,8.99,18.22,19.37-.09,13.47-15.4,22.47-27.21,16.24-11.47-5.79-25.5-9.54-38.34-11.69-9.69-1.68-10.13-15.66-.73-18.04h0Z"/>
    <g>
      <circle class="cls-2" cx="370.32" cy="1085.55" r="31.21"/>
      <path class="cls-2" d="m350.44,1232.25c.75,5.65,4.54,9.81,8.46,9.29l62.98-8.32c3.93-.52,6.5-5.51,5.75-11.17l-11.36-85.95c-.6-4.51-4.12-7.77-7.88-7.27l-63.58,8.4c-3.76.5-6.32,4.56-5.72,9.07l11.36,85.95Z"/>
      <path class="cls-2" d="m379.66,913.81l-101.45,13.41c-3.92.52-6.5,5.52-5.75,11.18l9.72,73.56c.74,5.58,4.45,9.72,8.33,9.31l24.58-2.68c3.89-.42,7.6,3.72,8.34,9.31l.94,7.13c.6,4.51,4.12,7.76,7.87,7.26l63.6-8.41c3.75-.5,6.31-4.55,5.72-9.06l-13.44-101.7c-.75-5.65-4.53-9.82-8.46-9.3Z"/>
      <path class="cls-2" d="m424.44,1066.26c-6.52-49.32,1.97-90.38,25.47-123.17,23.5-32.78,63.34-52.9,119.54-60.33,56.19-7.43,99.9,1.71,131.14,27.42,31.23,25.71,50.09,63.08,56.57,112.1,6.52,49.33-1.96,90.46-25.44,123.4-23.49,32.94-63.32,53.12-119.51,60.55-56.2,7.43-99.91-1.71-131.14-27.42-31.24-25.71-50.11-63.22-56.63-112.55Z"/>
      <path class="cls-2" d="m769.07,1023.23c-6.52-49.32,1.97-90.38,25.47-123.17,23.5-32.78,63.34-52.9,119.54-60.33,56.19-7.43,99.9,1.71,131.14,27.42,31.23,25.71,50.09,63.08,56.57,112.1,6.52,49.33-1.96,90.46-25.44,123.4-23.49,32.94-63.32,53.12-119.51,60.55-56.2,7.43-99.91-1.71-131.14-27.42-31.24-25.71-50.11-63.22-56.63-112.55Z"/>
      <path class="cls-1" d="m560.63,1099.15l-13.16-99.58c-1.49-11.26,10.11-19.69,20.36-14.78l82.95,39.69c9.32,4.46,10.99,17.03,3.14,23.77l-69.79,59.88c-8.62,7.4-22.01,2.28-23.5-8.98Z"/>
      <path class="cls-1" d="m1017.42,1038.03c-1.51.53-3.07.9-4.62,1.11-6.51.86-13.05-1.11-16.81-5.35l-19.69-22.24c-2.3-2.6-6.32-3.88-10.45-3.33l-55.34,7.31c-4.13.55-7.69,2.83-9.23,5.93l-13.24,26.59c-2.53,5.08-8.32,8.68-14.84,9.54-1.56.21-3.15.25-4.75.13-8.31-.64-14.56-5.77-15.03-12.34l-3.78-53.27c-.04-.24-.09-.49-.12-.73-1.9-14.36,11.52-27.97,29.97-30.41,8.06-1.07,94.08-12.43,102.14-13.5,18.44-2.44,34.93,7.22,36.83,21.58.03.25.05.49.08.74l10.19,52.42c1.26,6.46-3.44,13.04-11.3,15.82Z"/>
      <g>
        <path class="cls-2" d="m991.45,967.17c.35,2.62-1.5,5.03-4.12,5.37-1.34.18-2.62-.22-3.6-1-.94-.74-1.61-1.84-1.78-3.12s.19-2.52.91-3.48c.75-1,1.88-1.72,3.21-1.9,2.62-.35,5.03,1.5,5.38,4.12Z"/>
        <path class="cls-2" d="m994.02,986.65c.35,2.62-1.5,5.03-4.12,5.38-1.34.18-2.62-.22-3.6-1-.94-.74-1.61-1.84-1.78-3.12s.19-2.51.91-3.48c.74-1,1.88-1.72,3.21-1.9,2.62-.35,5.03,1.5,5.38,4.12Z"/>
        <path class="cls-2" d="m1002.48,975.62c.35,2.62-1.5,5.03-4.12,5.37s-5.03-1.5-5.38-4.12,1.5-5.03,4.12-5.38,5.03,1.5,5.38,4.12Z"/>
        <path class="cls-2" d="m982.99,978.2c.35,2.62-1.5,5.03-4.12,5.37s-5.03-1.5-5.37-4.12,1.5-5.03,4.12-5.38,5.03,1.5,5.38,4.12Z"/>
      </g>
      <g>
        <rect class="cls-2" x="879.87" y="977.27" width="7.03" height="29.52" rx="2.5" ry="2.5" transform="translate(-122.37 124.3) rotate(-7.53)"/>
        <rect class="cls-2" x="879.87" y="977.27" width="7.03" height="29.52" rx="2.5" ry="2.5" transform="translate(1751.11 -13.73) rotate(82.47)"/>
      </g>
    </g>
    <path class="cls-3" d="m1308.53,1377.13c-61.37,14.3-106.59,50.65-114.16,95.21-3.36,19.78-1.71,55.32,21.08,68.96,24.21,14.49,59.42-3.44,76.91-19.74,32.62-30.4,38.18-87.32,16.17-144.43Z"/>
    <path class="cls-3" d="m2160.21,1461.88c-47.47,41.44-70.33,94.76-56.09,137.67,6.32,19.04,24.47,49.64,50.99,50.99,28.18,1.43,50.85-30.94,58.64-53.54,14.53-42.16-7.28-95.02-53.54-135.12Z"/>
    <path class="cls-3" d="m2229.95,1688.43c-47.47,41.44-70.33,94.76-56.09,137.67,6.32,19.04,24.47,49.64,50.99,50.99,28.18,1.43,50.85-30.94,58.64-53.54,14.53-42.16-7.28-95.02-53.54-135.12Z"/>
    <path class="cls-3" d="m1119.09,1499.49c-62.57,7.5-111.49,38.67-123.9,82.14-5.5,19.29-7.75,54.8,13.4,70.85,22.48,17.06,59.44,3.08,78.61-11.2,35.76-26.64,47.51-82.61,31.89-141.79Z"/>
  </g>
</svg>